<svg width="127" height="51" fill="none" xmlns="http://www.w3.org/2000/svg"><path d="M15.905 12.973c0 .076-.063.126-.19.151-.128 0-.205-.038-.23-.113-.077-1.331-.484-2.361-1.224-3.09-.739-.753-1.72-1.13-2.944-1.13H8.985c-.867 0-1.517.063-1.95.189-.433.125-.74.351-.918.678-.152.326-.229.803-.229 1.431v8.252H9.75c1.35 0 2.306-.201 2.867-.603.587-.427.88-1.105.88-2.035 0-.05.076-.075.23-.075.152 0 .229.025.229.075l-.039 3.052c0 .729.013 1.281.039 1.658l.038 1.808c0 .05-.077.076-.23.076-.153 0-.23-.025-.23-.076 0-1.105-.305-1.896-.917-2.373-.586-.477-1.58-.716-2.982-.716H5.888v8.213c0 .804.102 1.394.306 1.771.23.352.663.603 1.3.754.637.15 1.644.226 3.02.226.077 0 .115.075.115.226 0 .15-.038.226-.115.226a60.96 60.96 0 01-2.447-.038l-3.44-.038-2.6.038c-.46.025-1.11.038-1.95.038-.052 0-.077-.075-.077-.226 0-.15.025-.226.076-.226.97 0 1.683-.063 2.142-.189.458-.125.764-.364.917-.715.179-.377.268-.942.268-1.696V11.052c0-.754-.09-1.306-.268-1.658-.153-.352-.459-.59-.917-.716-.434-.15-1.135-.226-2.103-.226-.051 0-.077-.075-.077-.226 0-.15.026-.226.077-.226h15.37c.23 0 .344.113.344.34l.076 4.633zm6.492-.715c-.535 0-.956-.139-1.261-.415-.28-.276-.421-.666-.421-1.168 0-.502.14-.892.42-1.168.306-.276.727-.414 1.262-.414.51 0 .905.138 1.186.414.28.276.42.666.42 1.168 0 .502-.14.892-.42 1.168-.28.276-.676.415-1.186.415zm-3.211 19.29c-.051 0-.077-.075-.077-.226 0-.15.026-.226.077-.226.688 0 1.198-.063 1.529-.189a1.25 1.25 0 00.726-.753c.128-.377.192-.93.192-1.658v-7.045c0-.905-.102-1.558-.306-1.96-.179-.401-.497-.602-.956-.602-.459 0-1.032.175-1.72.527h-.039c-.102 0-.178-.063-.23-.188-.05-.126-.038-.214.039-.264l4.97-2.26.153-.038c.051 0 .115.037.191.113.077.05.115.113.115.188 0 .176-.013.678-.038 1.507a97.314 97.314 0 00-.038 2.939v7.083c0 .754.063 1.306.19 1.658.128.352.358.603.69.753.33.126.84.189 1.528.189.077 0 .115.075.115.226 0 .15-.038.226-.115.226-.586 0-1.057-.013-1.414-.038l-2.065-.038-2.064.038c-.357.025-.842.038-1.453.038zm19.554-1.959c.102 0 .178.063.23.188.05.1.038.176-.039.226-.943.729-1.797 1.244-2.561 1.545a6.118 6.118 0 01-2.333.452c-1.07 0-1.95-.239-2.638-.716s-1.032-1.268-1.032-2.373v-8.855c0-.652-.051-1.117-.153-1.393-.077-.277-.242-.453-.497-.528-.255-.1-.688-.15-1.3-.15-.102 0-.153-.076-.153-.227 0-.176.05-.264.153-.264 1.02-.025 1.848-.288 2.485-.79.637-.528 1.007-1.219 1.109-2.073 0-.075.102-.113.306-.113.178 0 .267.038.267.113v2.788c1.275-.025 3.046-.15 5.315-.377.05 0 .102.1.153.302.076.176.114.377.114.603 0 .2-.05.414-.152.64-.077.201-.166.289-.268.264-1.402-.352-3.123-.553-5.162-.603v9.381c0 1.03.255 1.796.765 2.299.535.502 1.287.753 2.256.753 1.121 0 2.14-.351 3.059-1.055l.076-.037z" fill="#fff"/><path d="M79.975 31.096c.077 0 .116.075.116.226 0 .15-.039.226-.116.226-.8 0-1.431-.013-1.895-.038l-2.67-.038-2.475.038a30.58 30.58 0 01-1.74.038c-.052 0-.077-.075-.077-.226 0-.15.025-.226.077-.226.877 0 1.521-.063 1.934-.189.438-.15.722-.401.85-.753.155-.352.207-.904.155-1.658l-.696-17.143-8.818 19.931c-.052.1-.155.15-.31.15a.487.487 0 01-.348-.15L54.448 11.58 54.1 27.441c-.026 1.331.206 2.273.696 2.826.49.553 1.354.829 2.591.829.052 0 .078.075.078.226 0 .15-.026.226-.078.226-.722 0-1.276-.013-1.663-.038l-2.088-.038-2.012.038c-.36.025-.876.038-1.547.038-.051 0-.077-.075-.077-.226 0-.15.026-.226.077-.226 1.083 0 1.857-.276 2.321-.83.49-.577.748-1.519.773-2.825L53.52 9.96c-.774-1.005-1.831-1.507-3.172-1.507-.051 0-.077-.075-.077-.226 0-.15.026-.226.077-.226l1.431.038c.258.025.619.037 1.083.037.464 0 .851-.012 1.16-.037.336-.025.593-.038.774-.038a1 1 0 01.812.377c.232.226.555.753.967 1.582L65.2 27.667l8.432-18.725c.283-.628.67-.942 1.16-.942.129 0 .31.013.541.038.258.025.594.037 1.006.037l1.818-.037c.284-.025.709-.038 1.276-.038.077 0 .116.075.116.226 0 .15-.039.226-.116.226-1.29 0-2.217.188-2.785.565-.541.352-.799 1.03-.773 2.035l.773 17.444c.026.779.117 1.344.271 1.696.18.351.49.59.928.715.439.126 1.148.189 2.128.189zm16.203-1.583c.103 0 .168.063.193.189.026.1-.013.176-.116.226l-3.983 1.846a.7.7 0 01-.31.075c-.335 0-.632-.213-.89-.64-.257-.452-.425-1.055-.502-1.809l-2.011 1.281c-.645.402-1.212.691-1.702.867a4.545 4.545 0 01-1.547.264c-.954 0-1.702-.239-2.244-.716-.515-.503-.773-1.13-.773-1.884s.31-1.407.928-1.96c.619-.552 1.637-1.08 3.056-1.582l4.254-1.544v-2.562c0-2.814-.812-4.22-2.437-4.22-.876 0-1.547.289-2.01.866a4.572 4.572 0 00-.89 1.922c-.078.452-.22.829-.426 1.13-.206.276-.554.415-1.044.415-.413 0-.735-.113-.967-.34a1.137 1.137 0 01-.31-.79c0-.604.4-1.206 1.2-1.81.799-.602 1.753-1.104 2.862-1.506 1.108-.402 2.101-.603 2.978-.603 1.057 0 1.856.326 2.398.98.541.653.812 1.595.812 2.825v7.046c0 .879.116 1.52.348 1.921.232.402.619.603 1.16.603.49 0 1.122-.163 1.895-.49h.078zm-5.647-.64v-4.219l-3.597 1.355c-.722.277-1.25.603-1.586.98-.31.352-.464.779-.464 1.281 0 .603.194 1.118.58 1.545.413.402.942.603 1.586.603.516 0 1.135-.201 1.857-.603l1.624-.942zm17.054.716c.104 0 .181.063.233.188.051.1.038.176-.039.226-.954.729-1.818 1.244-2.592 1.545a6.248 6.248 0 01-2.359.452c-1.083 0-1.972-.239-2.669-.716-.696-.477-1.044-1.268-1.044-2.373v-8.855c0-.652-.051-1.117-.154-1.393-.078-.277-.245-.453-.503-.528-.258-.1-.697-.15-1.315-.15-.103 0-.155-.076-.155-.227 0-.176.052-.264.155-.264 1.031-.025 1.87-.288 2.514-.79.644-.528 1.018-1.219 1.121-2.073 0-.075.103-.113.31-.113.18 0 .27.038.27.113v2.788c1.29-.025 3.082-.15 5.377-.377.051 0 .103.1.154.302.078.176.116.377.116.603 0 .2-.051.414-.154.64-.078.201-.168.289-.271.264-1.418-.352-3.159-.553-5.222-.603v9.381c0 1.03.258 1.796.774 2.299.541.502 1.302.753 2.282.753 1.134 0 2.166-.351 3.094-1.055l.077-.037zm14.152-.151c.077 0 .142.05.193.15.078.076.091.151.039.227-1.702 1.457-3.584 2.185-5.647 2.185-1.495 0-2.772-.34-3.829-1.017a6.836 6.836 0 01-2.436-2.675 7.937 7.937 0 01-.813-3.542c0-1.482.361-2.838 1.083-4.069a7.764 7.764 0 012.94-2.939 8.14 8.14 0 014.138-1.092c1.444 0 2.553.376 3.326 1.13.774.753 1.161 1.808 1.161 3.165 0 .351-.039.603-.116.753-.052.151-.155.226-.31.226l-9.592.038a15.375 15.375 0 00-.077 1.356c0 2.186.529 3.956 1.586 5.313 1.057 1.356 2.54 2.034 4.448 2.034.773 0 1.431-.1 1.972-.301.567-.201 1.199-.515 1.895-.942h.039zm-5.608-12.019c-1.109 0-2.024.364-2.746 1.093-.722.703-1.199 1.695-1.431 2.976l7.348-.15c0-1.282-.283-2.248-.851-2.902-.567-.678-1.34-1.017-2.32-1.017z" fill="#FF862F"/><path fill-rule="evenodd" clip-rule="evenodd" d="M118.187 41.727L127 51V0H45v41.727h73.187zm-71.654-1.545h72.308l6.626 6.972V1.545H46.533v38.637z" fill="#FF862F"/></svg>