<svg width="81" height="56" fill="none" xmlns="http://www.w3.org/2000/svg"><path fill-rule="evenodd" clip-rule="evenodd" d="M78.238 27.507C78.238 15.077 68.16 5 55.73 5a22.285 22.285 0 00-14.177 5.052c2.956 2.855 5.213 6.429 6.424 10.469h-1.87c-1.171-3.592-3.23-6.761-5.906-9.304a22.511 22.511 0 00-5.868 9.293h-1.87a24.288 24.288 0 016.358-10.442C34.955 6.936 30.07 5 24.707 5 12.277 5 2.2 15.077 2.2 27.507c0 12.43 10.077 22.506 22.507 22.506 5.363 0 10.248-1.936 14.115-5.067a24.285 24.285 0 01-6.358-10.442h1.87a22.512 22.512 0 005.868 9.293c2.676-2.543 4.735-5.712 5.907-9.305h1.87c-1.212 4.04-3.469 7.615-6.425 10.47a22.287 22.287 0 0014.177 5.05c12.43.001 22.507-10.075 22.507-22.505z" fill="#100F0A"/><path fill-rule="evenodd" clip-rule="evenodd" d="M61.696 32.78l1.554-8.329h1.965l.205.821c.352-.41 1.027-.82 2.17-.82l-.615 2.169c-.558 0-1.613-.146-2.287 2.346l-.704 3.812h-2.288zM31.58 22.334h2.265l-.465 2.206h1.22l-.406 1.8h-1.161l-.64 3.368c-.116.639-.057 1.22 1.25 1.016l-.146 1.684c-.494.32-1.161.407-1.684.407-.522 0-2.236-.32-1.8-2.584l1.568-7.897zm9.813 6.735c.262-1.335.872-4.644-3.106-4.644-3.658 0-4.122 3.628-4.21 4.15-.087.523-.144 4.21 3.774 4.21.959.03 2.352-.087 2.904-.378l.349-1.712c-.349.086-1.656.203-2.556.203-.9 0-2.351.059-2.09-1.829h4.935zm-11.96-2.67l.522-1.685c-1.075-.406-1.916-.318-2.236-.318-.32 0-3.038-.034-3.454 1.974-.32 1.539.244 2.175.784 2.41.87.377 1.364.725 1.83.957.574.288.468 1.249-.291 1.249-.35 0-1.858.174-2.99-.204l-.32 1.713c1.045.29 1.887.29 2.671.29.552 0 3.252.146 3.628-2.351.185-1.218-.348-1.772-.784-2.032a12.784 12.784 0 00-1.625-.9c-.465-.203-.813-.987.03-1.22.521-.058 1.595-.058 2.235.117zm-14.69 6.386l1.886-10.045h-3.715l-2.759 6.097-.436-6.097H6.092L4.146 32.786h2.265l1.393-7.258.61 7.258h2.148l3.165-7.083-1.335 7.083h2.351zm2.495-8.1l-.348 1.8c.552-.057 2.033-.29 2.816-.26.785.028 1.655-.088 1.394 1.16-.58.059-4.645-.58-5.283 2.903-.262 1.714 1.218 2.584 2.38 2.527 1.16-.059 1.48-.204 1.887-.495l.29.465h2.119l.9-4.529c.233-1.132.61-3.86-3.193-3.86-.697.029-1.48 0-2.962.29zm36.697.378c-.582-.349-.987-.407-1.742-.407s-2.44.722-2.758 2.759c-.377 2.409 1.277 3.599 3.6 2.816l.667 2.032c-.754.348-1.51.522-2.758.522-2.352 0-4.906-2.09-3.745-6.329.856-3.123 3.543-4.267 5.11-4.209 1.858.07 2.526.697 3.107 1.336l-1.481 1.48zm19.306.348c-.436-.319-.696-.986-1.771-.986-1.249 0-3.194-.233-4.297 3.541-.737 2.523.755 4.82 2.38 4.82.755-.029 1.51-.349 1.974-.668l.291.667h2.438l1.975-10.567H73.85l-.61 3.193zm-17.68-.725l-.35 1.8c.553-.058 2.033-.29 2.817-.262.784.03 1.655-.087 1.394 1.162-.58.058-4.645-.581-5.283 2.902-.262 1.714 1.218 2.584 2.38 2.527 1.161-.059 1.48-.204 1.887-.495l.29.465h2.119l.9-4.529c.233-1.132.61-3.86-3.194-3.86-.696.029-1.48 0-2.96.29z" fill="#fff"/><path fill-rule="evenodd" clip-rule="evenodd" d="M36.605 27.561h2.816c.145-.813-.116-1.51-1.016-1.51s-1.539.465-1.8 1.51zm-15.88 1.51c-.378-.06-1.22-.291-1.946.202-.726.494-.929 1.364-.174 1.656.727.279 1.8-.203 1.945-.96l.175-.899zm51.705-.262c.232-.755.105-1.697-.146-2.032-.696-.928-2.298-.194-2.786 1.626-.32 1.19.377 2.09 1.161 2.09.842 0 1.365-.668 1.77-1.684zm-13.383.261c-.378-.059-1.22-.29-1.945.203-.726.494-.93 1.364-.174 1.656.726.279 1.799-.203 1.944-.96l.175-.899z" fill="#100F0A"/><path fill-rule="evenodd" clip-rule="evenodd" d="M41.46 32.786l1.539-8.245h1.945l.203.814c.35-.407 1.017-.814 2.148-.814l-.58 2.178c-.551 0-1.626-.174-2.294 2.293l-.696 3.774H41.46z" fill="#fff"/></svg>