<svg width="81" height="56" fill="none" xmlns="http://www.w3.org/2000/svg"><path fill-rule="evenodd" clip-rule="evenodd" d="M72.641 4H7.359C4.404 4 2 6.413 2 9.38v38.24C2 50.588 4.404 53 7.359 53h65.282C75.596 53 78 50.587 78 47.62V9.38C78 6.412 75.596 4 72.641 4zM13.768 29.204c-.064 0-.213-.01-.446-.032a6.858 6.858 0 00-.606-.032c-.17 0-.35.016-.542.048a.98.98 0 00-.478.208.623.623 0 00-.223.416l-.574 3.52c-.043.405-.276.608-.701.608H7.775a.39.39 0 01-.319-.16.429.429 0 01-.095-.352l2.072-13.055c.042-.406.265-.608.669-.608h5.1c1.318 0 2.386.283 3.204.847.818.566 1.228 1.478 1.228 2.736 0 1.835-.521 3.27-1.563 4.304-1.041 1.035-2.476 1.552-4.303 1.552zm17.023-4.224l-1.308 8.351c-.063.406-.297.608-.7.608h-2.2c-.276 0-.415-.17-.415-.511 0-.192.043-.416.128-.672-.383.427-.893.768-1.53 1.024-.638.255-1.254.384-1.849.384-1.233 0-2.215-.373-2.949-1.12-.733-.746-1.1-1.749-1.1-3.008 0-1.557.537-2.912 1.61-4.064 1.073-1.152 2.375-1.728 3.905-1.728 1.445 0 2.455.427 3.029 1.28.064-.704.244-1.056.542-1.056h2.422c.128 0 .234.054.319.16a.433.433 0 01.096.352zm4.176 12.255h-2.455c-.276 0-.414-.138-.414-.416 0-.17.87-1.45 2.614-3.84-.022-.084-.271-.831-.75-2.239l-1.338-3.936c-.415-1.216-.622-1.845-.622-1.888a.45.45 0 01.128-.304.375.375 0 01.286-.144h2.391c.361 0 .595.171.702.512l1.402 4.8 3.38-4.992c.148-.213.339-.32.573-.32h2.455a.38.38 0 01.287.144.455.455 0 01.127.304c0 .107-.021.182-.064.224l-8.128 11.776c-.15.213-.34.32-.574.32zm15.014-8.031a6.27 6.27 0 01-.447-.032 6.846 6.846 0 00-.605-.032c-.17 0-.351.016-.542.048a.979.979 0 00-.478.208.622.622 0 00-.224.416l-.573 3.712c-.086.277-.256.416-.51.416h-2.614a.39.39 0 01-.319-.16.428.428 0 01-.095-.352l2.071-13.055c.043-.406.276-.608.702-.608h5.068c1.318 0 2.386.283 3.204.847.818.566 1.227 1.478 1.227 2.736 0 1.835-.52 3.27-1.562 4.304-1.041 1.035-2.476 1.552-4.303 1.552zm17.023-4.224l-1.308 8.351c-.063.406-.297.608-.7.608h-2.2c-.277 0-.415-.17-.415-.511 0-.085.021-.213.064-.384.042-.171.064-.267.064-.288-.362.427-.861.768-1.499 1.024a5.03 5.03 0 01-1.88.384c-1.233 0-2.216-.373-2.95-1.12-.732-.746-1.099-1.749-1.099-3.008 0-1.557.537-2.912 1.61-4.064 1.073-1.152 2.375-1.728 3.905-1.728 1.467 0 2.475.427 3.029 1.28.063-.704.243-1.056.541-1.056h2.423c.127 0 .233.054.319.16a.432.432 0 01.096.352zm5.642-4.736l-2.072 13.088c-.043.405-.266.608-.67.608H67.8a.408.408 0 01-.318-.144.452.452 0 01-.128-.304l.032-.064 2.072-13.311c.042-.235.18-.352.414-.352h2.36c.275 0 .414.149.414.448v.031zm-8.921 6.98c-.41-.364-.924-.547-1.543-.547-.818 0-1.504.282-2.057.846-.553.564-.83 1.256-.83 2.074 0 .62.2 1.106.598 1.46.398.354.918.53 1.56.53.796 0 1.476-.276 2.04-.829a2.726 2.726 0 00.846-2.023c0-.642-.205-1.145-.614-1.51zm-37.69 0c-.41-.364-.924-.547-1.543-.547-.818 0-1.504.282-2.057.846-.553.564-.83 1.256-.83 2.074 0 .62.194 1.106.581 1.46.387.354.901.53 1.543.53.818 0 1.51-.27 2.074-.813.564-.54.846-1.221.846-2.04 0-.64-.205-1.144-.614-1.51zm25.431-4.86c.287.045.564.183.83.415.265.233.398.57.398 1.012 0 .93-.244 1.56-.73 1.892-.487.331-1.217.497-2.19.497l-1.062.033.564-3.55c.044-.243.188-.365.432-.365h.597c.486 0 .873.023 1.161.067zm-38.85-.066c.884 0 1.526.128 1.924.382.398.255.53.791.398 1.61-.111.774-.398 1.282-.863 1.525-.464.244-1.128.365-1.99.365l-1.095.033.564-3.55c.044-.243.188-.364.431-.364h.63z" fill="#100F0A"/></svg>