<svg width="81" height="56" fill="none" xmlns="http://www.w3.org/2000/svg"><path d="M13.5 3C9.387 3 6 6.388 6 10.5v35c0 4.112 3.387 7.5 7.5 7.5h55c4.112 0 7.5-3.388 7.5-7.5v-35C76 6.388 72.612 3 68.5 3h-55zm0 5h55c1.412 0 2.5 1.088 2.5 2.5v35c0 1.413-1.088 2.5-2.5 2.5h-55c-1.412 0-2.5-1.087-2.5-2.5v-35C11 9.088 12.088 8 13.5 8zm5.157 13.125L13.5 34.875h3.125l1.015-3.125h5.86l1.015 3.125h5.86V24.562l3.75 10.313h2.735l3.825-10v10h2.737v-13.75h-4.457l-3.44 9.3-3.432-9.3H27.25v13.05l-4.845-13.05h-3.75.002zm28.515 0v13.75h11.01l3.438-4.45 3.435 4.45H68.5L63.343 28l5.157-6.875h-3.75l-3.438 4.14-2.812-4.14H47.173zM20.375 23.86l1.72 4.843h-3.44l1.72-4.838v-.005zm29.532.39h6.876L59.594 28l-3.125 4.14h-6.563v-2.733h6.25v-2.812h-6.25V24.25z" fill="#100F0A"/></svg>