<svg width="1440" height="480" fill="none" xmlns="http://www.w3.org/2000/svg"><path d="M0 130.5l66.418-52.081c57.971-45.458 139.488-45.458 197.459 0l41.016 32.163c57.971 45.457 139.488 45.457 197.459-.001l41.017-32.163c57.971-45.457 139.488-45.457 197.459 0l41.016 32.164c57.971 45.457 139.488 45.457 197.459-.001l41.017-32.163c57.97-45.457 139.49-45.457 197.46 0l41.02 32.164c57.97 45.457 139.48 45.457 197.45-.001L1596 1" stroke="url(#paint0_linear_60_766)"/><path d="M0 203.5l66.418-52.081c57.971-45.458 139.488-45.458 197.459 0l41.016 32.163c57.971 45.457 139.488 45.457 197.459-.001l41.017-32.163c57.971-45.457 139.488-45.457 197.459.001l41.016 32.163c57.971 45.457 139.488 45.457 197.459-.001l41.017-32.163c57.97-45.457 139.49-45.457 197.46.001l41.02 32.163c57.97 45.457 139.48 45.457 197.45-.001L1596 74" stroke="url(#paint1_linear_60_766)"/><path d="M0 276.5l66.418-52.081c57.971-45.458 139.488-45.458 197.459 0l41.016 32.163c57.971 45.457 139.488 45.457 197.459-.001l41.017-32.163c57.971-45.457 139.488-45.457 197.459.001l41.016 32.163c57.971 45.457 139.488 45.457 197.459-.001l41.017-32.163c57.97-45.457 139.49-45.457 197.46.001l41.02 32.163c57.97 45.457 139.48 45.457 197.45-.001L1596 147" stroke="url(#paint2_linear_60_766)"/><path d="M0 349.5l66.418-52.081c57.971-45.458 139.488-45.458 197.459 0l41.016 32.163c57.971 45.457 139.488 45.457 197.459-.001l41.017-32.163c57.971-45.457 139.488-45.457 197.459.001l41.016 32.163c57.971 45.457 139.488 45.457 197.459-.001l41.017-32.163c57.97-45.457 139.49-45.457 197.46.001l41.02 32.163c57.97 45.457 139.48 45.457 197.45-.001L1596 220" stroke="url(#paint3_linear_60_766)"/><path d="M0 422.5l66.418-52.081c57.971-45.458 139.488-45.458 197.459 0l41.016 32.163c57.971 45.457 139.488 45.457 197.459-.001l41.017-32.163c57.971-45.457 139.488-45.457 197.459.001l41.016 32.163c57.971 45.457 139.488 45.457 197.459-.001l41.017-32.163c57.97-45.457 139.49-45.457 197.46.001l41.02 32.163c57.97 45.457 139.48 45.457 197.45-.001L1596 293" stroke="url(#paint4_linear_60_766)"/><defs><linearGradient id="paint0_linear_60_766" x1="1400.25" y1="143.5" x2="142.83" y2="143.5" gradientUnits="userSpaceOnUse"><stop stop-color="#fff"/><stop offset="1" stop-color="#fff" stop-opacity="0"/></linearGradient><linearGradient id="paint1_linear_60_766" x1="1400.25" y1="216.5" x2="142.83" y2="216.5" gradientUnits="userSpaceOnUse"><stop stop-color="#fff"/><stop offset="1" stop-color="#fff" stop-opacity="0"/></linearGradient><linearGradient id="paint2_linear_60_766" x1="1400.25" y1="289.5" x2="142.83" y2="289.5" gradientUnits="userSpaceOnUse"><stop stop-color="#fff"/><stop offset="1" stop-color="#fff" stop-opacity="0"/></linearGradient><linearGradient id="paint3_linear_60_766" x1="1400.25" y1="362.5" x2="142.83" y2="362.5" gradientUnits="userSpaceOnUse"><stop stop-color="#fff"/><stop offset="1" stop-color="#fff" stop-opacity="0"/></linearGradient><linearGradient id="paint4_linear_60_766" x1="1400.25" y1="435.5" x2="142.83" y2="435.5" gradientUnits="userSpaceOnUse"><stop stop-color="#fff"/><stop offset="1" stop-color="#fff" stop-opacity="0"/></linearGradient></defs></svg>