<svg width="158" height="131" fill="none" xmlns="http://www.w3.org/2000/svg"><path opacity=".1" d="M19.8 122.4l-.665.747.008.007.657-.754zm-14.4-23l-.947.32.004.011.943-.331zm.2-67.6l.942.335.001-.003L5.6 31.8zM20 8.8l-.657-.754-.008.007L20 8.8zm42.4 0l-.673.74.008.007.665-.747zM76.6 32l-.949.316.002.004.947-.32zm-.2 67.8l-.944-.331-.002.007.946.324zm-14.2 22.8l.656.755.01-.008-.666-.747zm-.8-10.2l-.933-.359-.003.007.936.352zm-1.8-92.6l-.905.425.905-.425zm-38.8-.2l-.928-.373-.004.01.932.363zm1.4 91l-.91.413.91-.413zm19 19c-7.748 0-14.65-2.639-20.743-7.954l-1.314 1.508c6.44 5.618 13.805 8.446 22.057 8.446v-2zm-20.735-7.947c-5.977-5.327-10.696-12.835-14.122-22.585l-1.886.663c3.507 9.984 8.388 17.81 14.678 23.416l1.33-1.494zM6.347 99.08C3.056 89.337 1.4 78.115 1.4 65.4h-2c0 12.885 1.678 24.33 5.053 34.32l1.894-.64zM1.4 65.4c0-12.577 1.721-23.66 5.142-33.265l-1.884-.67C1.145 41.327-.6 52.644-.6 65.4h2zm5.143-33.269c3.426-9.75 8.145-17.257 14.122-22.584l-1.33-1.494c-6.29 5.606-11.17 13.432-14.678 23.415l1.886.664zM20.657 9.555C26.747 4.242 33.714 1.6 41.6 1.6v-2c-8.38 0-15.813 2.825-22.257 8.446l1.314 1.508zM41.6 1.6c7.609 0 14.304 2.634 20.127 7.94l1.347-1.48C56.896 2.433 49.724-.4 41.6-.4v2zm20.135 7.947c5.97 5.321 10.623 12.889 13.916 22.77l1.898-.633c-3.374-10.12-8.188-18.02-14.484-23.63l-1.33 1.493zM75.653 32.32C78.944 42.063 80.6 53.285 80.6 66h2c0-12.885-1.677-24.33-5.053-34.32l-1.894.64zM80.6 66c0 12.577-1.721 23.728-5.143 33.469l1.887.662C80.854 90.138 82.6 78.757 82.6 66h-2zm-5.146 33.476c-3.291 9.611-7.943 17.051-13.92 22.377l1.331 1.494c6.29-5.607 11.106-13.367 14.481-23.223l-1.892-.648zm-13.91 22.369c-5.958 5.181-12.727 7.755-20.344 7.755v2c8.116 0 15.347-2.76 21.656-8.245l-1.312-1.51zM43.6 128.8c4.235 0 7.952-1.366 11.104-4.094 3.133-2.71 5.662-6.723 7.632-11.954l-1.872-.704c-1.896 5.036-4.268 8.723-7.068 11.146-2.781 2.406-6.031 3.606-9.796 3.606v2zm18.733-16.041C66.398 102.191 68.4 87.382 68.4 68.4h-2c0 18.884-1.998 33.409-5.933 43.641l1.866.718zM68.4 68.4c0-21.387-2.602-37.76-7.895-49.025l-1.81.85C63.802 31.095 66.4 47.12 66.4 68.4h2zm-7.895-49.025C55.23 8.148 48.228 2.2 39.4 2.2v2c7.705 0 14.17 5.118 19.295 16.025l1.81-.85zM39.4 2.2c-8.595 0-15.06 5.924-19.528 17.027l1.856.746C26.06 9.21 31.995 4.2 39.4 4.2v-2zM19.868 19.236C15.538 30.334 13.4 45.274 13.4 64h2c0-18.607 2.129-33.267 6.332-44.037l-1.864-.727zM13.4 64c0 19.671 2.607 35.365 7.89 47.013l1.82-.826C17.994 98.902 15.4 83.529 15.4 64h-2zm7.89 47.013C26.577 122.674 33.988 128.8 43.6 128.8v-2c-8.522 0-15.378-5.341-20.49-16.613l-1.82.826zm94.105 13.587l.213.977.02-.004.02-.005-.253-.968zm6.4-4l-.813-.581-.015.02-.013.02.841.541zm-21.2-92.2l.448.894.08-.04.072-.054-.6-.8zm-.4.2v1h.236l.212-.106-.448-.894zm-1.2-1l.929-.371-.929.371zm.4-1.4l.448.894.076-.038.07-.05-.594-.806zm33.4-24.6l-.514-.857-.041.024-.038.028.593.805zm2.2-.2l-.707.707.707-.707zm2 119.4l-.882.471.007.012.007.013.868-.496zm9 7l.048-.999-.018-.001h-.017l-.013 1zm-16.4-.2l.013-1h-.025l.012 1zm-16.2.2l-.012-1h-.017l-.016.001.045.999zm-12-.8a.772.772 0 01.532.218c.101.1.123.185.117.166a.934.934 0 01-.03-.169 3.993 3.993 0 01-.019-.415h-2c0 .429.033.86.152 1.216.11.331.451.984 1.248.984v-2zm.6-.2c0-.174.008-.311.019-.415a.934.934 0 01.03-.169c.006-.019-.016.066-.117.166a.772.772 0 01-.532.218v-2c-.797 0-1.138.653-1.248.984-.119.356-.152.787-.152 1.216h2zm-.6-.2c6.283 0 11.037-.332 14.213-1.023l-.425-1.954c-2.958.643-7.537.977-13.788.977v2zm14.253-1.032c3.206-.837 5.604-2.274 6.988-4.427l-1.682-1.082c-1.016 1.58-2.884 2.81-5.811 3.573l.505 1.936zm6.961-4.387c1.515-2.121 2.186-5.31 2.186-9.381h-2c0 3.929-.662 6.607-1.813 8.219l1.627 1.162zm2.186-9.381V29.4h-2v82.4h2zm0-82.4c0-3.586-.451-6.426-1.459-8.404-.511-1.003-1.18-1.814-2.031-2.37-.856-.56-1.838-.826-2.91-.826v2c.729 0 1.322.176 1.815.5.499.326.955.84 1.344 1.604.793 1.555 1.241 4.015 1.241 7.496h2zm-6.4-11.6c-1.929 0-4.432.906-7.424 2.52-3.028 1.633-6.689 4.065-10.976 7.28l1.2 1.6c4.247-3.185 7.82-5.553 10.725-7.12 2.941-1.586 5.072-2.28 6.475-2.28v-2zm-18.247 9.706l-.4.2.895 1.788.4-.2-.895-1.788zm.047.094a.112.112 0 01-.038-.004.071.071 0 01-.022-.014c-.033-.028-.117-.119-.211-.353l-1.857.742c.173.432.421.842.788 1.147.385.32.846.482 1.34.482v-2zm-.271-.371a.858.858 0 01-.06-.208c-.004-.033.002-.027-.007.004a.223.223 0 01-.047.085c-.014.016-.012.007.032-.016l-.894-1.788c-.455.227-.853.607-1.014 1.17-.15.526-.045 1.05.133 1.495l1.857-.742zm.064-.224l33.4-24.6-1.186-1.61-33.4 24.6 1.186 1.61zM133.31 2.457a6.35 6.35 0 01.729-.388c.201-.086.232-.069.156-.069V0c-.342 0-.678.117-.944.23-.29.125-.616.3-.97.513l1.029 1.714zm.885-.457c-.039 0-.058-.011-.047-.006a.585.585 0 01.14.113l1.414-1.414c-.375-.376-.881-.693-1.507-.693v2zm.093.107a.602.602 0 01.113.14c.005.011-.006-.008-.006-.047h2c0-.625-.317-1.131-.693-1.507l-1.414 1.414zm.107.093v109.6h2V2.2h-2zm0 109.6c0 4.056.536 7.254 1.718 9.471l1.765-.942c-.951-1.783-1.483-4.585-1.483-8.529h-2zm1.732 9.496c1.262 2.208 3.642 3.582 6.856 4.281l.425-1.954c-2.919-.635-4.673-1.794-5.544-3.319l-1.737.992zm6.856 4.281c3.177.691 8.067 1.023 14.612 1.023v-2c-6.521 0-11.231-.335-14.187-.977l-.425 1.954zm14.612 1.023a.775.775 0 01-.532-.218c-.1-.1-.123-.185-.116-.166.003.012.018.062.029.169.012.104.019.241.019.415h2c0-.429-.032-.86-.151-1.216-.11-.331-.451-.984-1.249-.984v2zm-.6.2c0 .174-.007.311-.019.415-.011.107-.026.157-.029.169-.007.019.016-.066.116-.166a.745.745 0 01.532-.218v2c.798 0 1.139-.653 1.249-.984.119-.356.151-.787.151-1.216h-2zm.6.2c-4.927 0-8.775-.067-11.552-.199l-.095 1.998c2.823.134 6.708.201 11.647.201v-2zm-11.587-.2l-16.4-.2-.025 2 16.4.2.025-2zm-16.425-.2l-16.2.2.025 2 16.2-.2-.025-2zm-16.233.201c-2.911.132-6.894.199-11.955.199v2c5.073 0 9.09-.067 12.046-.201l-.091-1.998z" fill="#583D2B"/></svg>