<svg width="314" height="181" fill="none" xmlns="http://www.w3.org/2000/svg"><path d="M1.2 146l-.857.514.034.058.042.053L1.2 146zm.2-1.6l.6.8.104-.078.08-.101-.784-.621zM13 130.2l.755.656.01-.011.008-.011L13 130.2zm23-29.4l.81.587-.81-.587zM50.2 77l.903.43.003-.006L50.2 77zm-.4-42l-.739.674.005.005.005.006L49.8 35zm-34.4-1l.625.78.006-.005.007-.005L15.4 34zM5 50.2l-.952-.305-.048.148v.157h1zm-2.2-.6l.97.242.006-.024.005-.024L2.8 49.6zm12.2-22l.639.77L15 27.6zm45.8.6l-.716.698.009.01.008.008.699-.716zm2 45.2l-.889-.459.889.459zM48 96.2l.778.628L48 96.2zm-20.8 24l-.739-.674-.004.005.743.669zm-6.4 7l-.736-.677-.001.001.737.676zm-6.6 8l.814.581.005-.007.005-.007-.824-.567zm37.6.8l.056.998h.009l.009-.001L51.8 136zm15.2-3.6l.537.844.013-.009.013-.009L67 132.4zm4.6-9.6l1 .03v-.03h-1zm2.2 0l1 .009v-.009h-1zm-.2 22l-1-.009v.009h1zm-.6 1.6l-.8-.6-.017.022-.015.023.832.555zM3 146c-.28 0-.618-.123-1.02-.625l-1.56 1.25C1.083 147.456 1.947 148 3 148v-2zm-.943-.514c-.134-.225-.11-.297-.115-.262a.117.117 0 01-.013.042c-.001.001.014-.023.071-.066l-1.2-1.6c-.428.321-.768.778-.842 1.376-.071.569.12 1.096.385 1.538l1.714-1.028zm.127-.465c5.065-6.398 8.92-11.116 11.57-14.165l-1.509-1.312c-2.682 3.085-6.56 7.833-11.629 14.235l1.568 1.242zm11.59-14.187c9.739-11.874 17.42-21.691 23.036-29.447l-1.62-1.174c-5.583 7.711-13.236 17.494-22.963 29.353l1.546 1.268zm23.036-29.447c5.634-7.78 10.399-15.766 14.293-23.958l-1.806-.858c-3.84 8.075-8.54 15.956-14.107 23.642l1.62 1.174zm14.296-23.963C55.02 69.054 57 61.042 57 53.4h-2c0 7.291-1.888 15.013-5.706 23.176l1.812.848zM57 53.4c0-8.041-2.116-14.448-6.471-19.085l-1.458 1.37C52.983 39.848 55 45.708 55 53.4h2zm-6.461-19.074C46.176 29.541 40.082 27.2 32.4 27.2v2c7.252 0 12.758 2.192 16.661 6.474l1.478-1.348zM32.4 27.2c-6.875 0-12.774 2-17.638 6.03l1.276 1.54c4.469-3.703 9.903-5.57 16.362-5.57v-2zm-17.625 6.02C9.922 37.101 6.36 42.685 4.048 49.894l1.904.61c2.221-6.924 5.593-12.14 10.073-15.724l-1.25-1.562zM4 50.2a.907.907 0 01.35-.713.713.713 0 01.207-.107c.004-.001-.022.005-.09.011a3.314 3.314 0 01-.267.009v2c.287 0 .587-.016.843-.08.122-.03.32-.092.507-.233.215-.161.45-.46.45-.887H4zm.2-.8a3.18 3.18 0 01-.516-.035c-.124-.022-.156-.044-.138-.033a.488.488 0 01.19.233.47.47 0 01.034.278l-1.94-.486c-.072.286-.085.631.06.978.145.349.402.584.664.733.472.27 1.079.332 1.646.332v-2zm-.419.394c1.83-9.285 5.8-16.397 11.858-21.424l-1.278-1.54C7.886 32.203 3.721 39.758 1.82 49.407l1.962.387zM15.64 28.37c6.063-5.032 13.56-7.57 22.56-7.57v-2c-9.401 0-17.37 2.662-23.839 8.03l1.278 1.54zM38.2 20.8c9.396 0 16.647 2.733 21.884 8.098l1.432-1.396C55.82 21.666 48.004 18.8 38.2 18.8v2zm21.901 8.116C65.487 34.173 68.2 40.97 68.2 49.4h2c0-8.904-2.887-16.24-8.702-21.916l-1.396 1.432zM68.2 49.4c0 7.544-2.08 15.388-6.289 23.541l1.778.918C68.014 65.479 70.2 57.322 70.2 49.4h-2zm-6.289 23.541c-4.237 8.21-9.133 15.752-14.689 22.63l1.556 1.257c5.644-6.988 10.614-14.645 14.91-22.97l-1.777-.917zm-14.689 22.63c-5.584 6.914-12.503 14.898-20.761 23.955l1.478 1.348c8.276-9.077 15.223-17.092 20.839-24.046l-1.556-1.256zm-20.765 23.96a1022.374 1022.374 0 01-6.393 6.992l1.472 1.354c3.066-3.333 5.203-5.67 6.407-7.008l-1.486-1.338zm-6.394 6.993c-2.947 3.215-5.182 5.921-6.687 8.109l1.648 1.134c1.429-2.078 3.593-4.706 6.513-7.891l-1.474-1.352zm-6.677 8.095c-.2.279-.378.589-.472.919-.098.339-.125.784.118 1.208.236.413.62.618.94.719.32.102.676.135 1.028.135v-2a2.38 2.38 0 01-.286-.015.808.808 0 01-.136-.025c-.02-.007 0-.003.04.024a.556.556 0 01.225.412c.003.063-.008.096-.007.091a.554.554 0 01.041-.09 2.04 2.04 0 01.137-.216l-1.628-1.162zM15 137.6c17.333 0 29.625-.2 36.855-.602l-.11-1.996c-7.17.398-19.412.598-36.745.598v2zm36.874-.603c7.223-.535 12.506-1.745 15.663-3.753l-1.074-1.688c-2.71 1.725-7.56 2.915-14.737 3.447l.148 1.994zm15.69-3.771c3.26-2.223 4.895-5.762 5.036-10.396l-2-.06c-.126 4.166-1.558 7.027-4.163 8.804l1.126 1.652zM72.6 122.8a.734.734 0 01-.17.465.55.55 0 01-.209.163c-.017.007 0-.002.074-.012.07-.009.17-.016.305-.016v-2c-.37 0-.775.033-1.121.172a1.443 1.443 0 00-.585.413 1.264 1.264 0 00-.294.815h2zm0 .6c.174 0 .31.007.415.019a.918.918 0 01.169.03c.019.006-.066-.017-.166-.117a.763.763 0 01-.218-.532h2c0-.798-.653-1.138-.984-1.249-.356-.118-.787-.151-1.216-.151v2zm.2-.609l-.2 22 2 .018.2-22-2-.018zm-.2 22.009c0 .268-.097.596-.4 1l1.6 1.2c.497-.663.8-1.401.8-2.2h-2zm-.432 1.045c-.059.088-.126.155-.368.155v2c.825 0 1.557-.333 2.032-1.045l-1.664-1.11zM71.8 146H3v2h68.8v-2zm92.448-42.8v-1h-.018l-.018.001.036.999zm0 8.4l-.036.999.018.001h.018v-1zm-16.6-.6l.037-.999-1.037-.038V111h1zm1 28.8l-.948.316.003.01.004.01.941-.336zm4 3.8l-.316.949.316-.949zm1.4 3.2l.067-.998-.025-.001-.026-.001-.016 1zm-12.6-.2l.016-1h-.029l.013 1zm-15 .2l-.013-1h-.02l-.019.001.052.999zm2.8-3l.206.979.025-.006.024-.006-.255-.967zm5-3.6l.908.419.006-.012.006-.013-.92-.394zm1.2-29.6h1v-.985l-.985-.015-.015 1zm-52-1l-.894.447.073.145.114.115.707-.707zm.2-1.6l.8.6.01-.013.01-.014-.82-.573zm60.8-87l-.707-.707-.062.062-.05.072.819.573zm3.2 82.8h-1v1.037l1.037-.038-.037-.999zm-12.2.2l.018 1 .982-.017V104h-1zm0-62h1v-3.228l-1.824 2.663.824.565zm-41.8 61l-.825-.565-.022.033-.02.036.867.496zm70.6 1.2c-.388 0-.539-.278-.518-.241.019.032.077.167.136.478.115.605.182 1.578.182 2.963h2c0-1.415-.066-2.542-.217-3.337-.074-.389-.183-.779-.364-1.097-.179-.313-.564-.766-1.219-.766v2zm-.2 3.2c0 1.385-.067 2.358-.182 2.963-.059.311-.117.446-.136.478-.021.037.13-.241.518-.241v2c.655 0 1.04-.453 1.219-.766.181-.318.29-.708.364-1.097.151-.795.217-1.922.217-3.337h-2zm.237 3.201l-16.6-.6-.073 1.998 16.6.6.073-1.998zm-17.637.399v19.8h2V111h-2zm0 19.8c0 4.029.333 7.16 1.052 9.316l1.897-.632c-.614-1.844-.949-4.713-.949-8.684h-2zm1.059 9.336c.777 2.177 2.355 3.656 4.625 4.413l.633-1.898c-1.73-.576-2.819-1.631-3.375-3.187l-1.883.672zm4.625 4.413c2.162.72 5.5 1.051 9.916 1.051v-2c-4.383 0-7.446-.336-9.283-.949l-.633 1.898zm9.916 1.051a.775.775 0 01-.532-.218c-.1-.1-.123-.185-.116-.166a.934.934 0 01.03.169c.011.104.018.241.018.415h2c0-.429-.032-.86-.151-1.216-.11-.331-.451-.984-1.249-.984v2zm-.6.2c0 .174-.007.311-.018.415a.934.934 0 01-.03.169c-.007.019.016-.066.116-.166a.745.745 0 01.532-.218v2c.798 0 1.139-.653 1.249-.984.119-.356.151-.787.151-1.216h-2zm.6.2c-3.457 0-6.165-.067-8.133-.198l-.133 1.996c2.032.135 4.791.202 8.266.202v-2zm-8.184-.2l-12.6-.2-.031 2 12.6.2.031-2zm-12.629-.2l-15 .2.027 2 15-.2-.027-2zm-15.039.201c-2.508.132-5.954.199-10.348.199v2c4.407 0 7.894-.067 10.453-.201l-.105-1.998zm-10.348.199c.075 0 .186.022.293.093.1.067.143.141.152.16.007.015-.007-.008-.021-.092a2.337 2.337 0 01-.024-.361h-2c0 .451.052.938.256 1.347.109.219.276.443.527.61.257.171.542.243.817.243v-2zm.4-.2c0-.161.011-.279.024-.361.014-.084.028-.106.021-.092a.447.447 0 01-.152.16.546.546 0 01-.293.093v-2c-.275 0-.56.072-.817.243a1.554 1.554 0 00-.527.61c-.204.409-.256.896-.256 1.347h2zm-.4-.2c6.266 0 10.76-.264 13.406-.821l-.412-1.958c-2.42.51-6.726.779-12.994.779v2zm13.455-.833c2.709-.713 4.686-2.053 5.653-4.148l-1.816-.838c-.632 1.371-1.988 2.431-4.346 3.052l.509 1.934zm5.665-4.173c.886-2.068 1.28-5.38 1.28-9.794h-2c0 4.386-.405 7.341-1.119 9.006l1.839.788zm1.28-9.794v-20.2h-2v20.2h2zm-.985-21.2c-18.137-.267-34.942-.4-50.415-.4v2c15.461 0 32.256.133 50.386.4l.029-2zm-50.415-.4c-.452 0-.713-.128-.892-.307l-1.415 1.414c.621.621 1.427.893 2.307.893v-2zm-.705-.047a.385.385 0 01-.052-.229c.007-.057.037-.163.157-.324l-1.6-1.2c-.28.373-.482.8-.542 1.276-.06.484.036.948.248 1.371l1.789-.894zm.125-.58l60.8-87-1.639-1.146-60.8 87 1.64 1.146zm60.688-86.866c.013-.013.113-.107.492-.107v-2c-.687 0-1.386.172-1.907.693l1.415 1.414zm.492-.107c.6 0 .883.096.986.157.037.022.028.026.015.004-.012-.022-.001-.02-.001.039h2c0-.739-.34-1.37-.985-1.758-.564-.338-1.281-.442-2.015-.442v2zm1 .2v82h2v-82h-2zm1.037 82.999l16.6-.6-.073-1.998-16.6.6.073 1.998zm-53.037.601c11.741 0 25.347-.133 40.818-.4l-.035-2c-15.462.267-29.056.4-40.783.4v2zm41.8-1.4V42h-2v62h2zm-1.824-62.565l-41.8 61 1.65 1.13 41.799-61-1.649-1.13zM92.78 102.504c-.287.503-.638 1.367-.095 2.127.253.355.614.541.935.638.32.098.674.131 1.028.131v-2c-.118 0-.215-.006-.291-.015a.966.966 0 01-.155-.029c-.063-.019.023-.009.11.113a.5.5 0 01.083.188.308.308 0 01.006.097c0 .003.002-.017.02-.064.018-.047.048-.111.096-.194l-1.737-.992zm90.418 77.096l-.961-.274-.005.016-.004.015.97.243zm-4-.4l.302-.954-.024-.007-.023-.006-.255.967zm-3.6-1.8l-.961-.275-.005.016-.004.016.97.243zM225.998 1l-.894-.447-.042.083-.025.09.961.274zm4 .4l-.316.949.031.01.031.008.254-.967zm3.4 2l-.928-.371-.019.047-.014.05.961.274zm-51.17 175.957a.625.625 0 01.382-.447c.005-.001-.023.007-.1.009a2.396 2.396 0 01-.312-.014c-.56-.056-1.447-.263-2.698-.659l-.603 1.908c1.282.404 2.329.664 3.102.741.377.038.779.043 1.138-.055.381-.104.878-.384 1.032-.997l-1.941-.486zm-2.775-1.124c-1.25-.329-2.102-.625-2.607-.877a2.666 2.666 0 01-.277-.157 1.44 1.44 0 01-.092-.072s.009.01.023.031a.54.54 0 01.051.103.675.675 0 01.018.382l-1.941-.486c-.147.59.131 1.064.392 1.341.252.268.591.476.931.646.695.348 1.71.685 2.993 1.023l.509-1.934zm-2.893-.558l50.4-176.4-1.923-.55-50.4 176.4 1.923.55zM226.893 1.447c-.109.217-.282.256-.252.248.04-.01.177-.028.458 0 .554.055 1.403.26 2.583.654l.633-1.898c-1.22-.406-2.238-.668-3.017-.746-.386-.039-.782-.04-1.142.05-.37.092-.81.314-1.052.798l1.789.894zm2.851.92c1.247.328 2.054.634 2.497.895.227.133.271.205.256.183a.493.493 0 01-.027-.416l1.857.742a1.515 1.515 0 00-.153-1.416c-.23-.355-.578-.617-.919-.817-.689-.406-1.716-.767-3.002-1.105l-.509 1.934zm2.693.759l-50.2 176.2 1.923.548 50.2-176.2-1.923-.548zM269.962 142.6l.934.359.003-.008.003-.009-.94-.342zm-1.799 3.6l.707.707.039-.039.034-.043-.78-.625zm-12.801-1.2l.895.447.01-.02.009-.02-.914-.407zm49.401-111l-.869-.496-.025.044-.02.045.914.407zm-42.401-.6l-.068-.998h-.001l.069.998zm-14.999 3.4l.576.817.009-.006-.585-.811zm-5.601 9.4l-.953-.3-.047.147v.153h1zm-2 .4l-.707.707.167.167.224.075.316-.949zm-.2-.8l.895.447.052-.105.027-.114-.974-.228zm6.801-29l-.949-.316-.015.043-.01.045.974.228zm1.399-.4l-.164.986.082.014h.082v-1zm1 .6l-.948-.316-.012.036-.01.038.97.242zm1.601 4.4l-.317.949.015.005.014.004.288-.958zm62.199 1.6l-.857.515.035.057.042.053.78-.625zm.4 1.6l-.832-.555-.066.1-.041.113.939.342zm-43.933 117.641c-.663 1.723-1.218 2.797-1.647 3.334l1.561 1.25c.637-.796 1.282-2.122 1.953-3.866l-1.867-.718zm-1.574 3.252c-.279.28-.78.507-1.692.507v2c1.22 0 2.32-.306 3.107-1.093l-1.415-1.414zm-1.692.507h-8.801v2h8.801v-2zm-8.801 0c-.25 0-.467-.082-.692-.307l-1.415 1.414c.575.575 1.292.893 2.107.893v-2zm-.692-.307a.35.35 0 01-.065-.08c-.005-.009-.003-.009-.003-.004.003.015-.012-.029.055-.162l-1.789-.894c-.2.4-.314.856-.245 1.338.069.488.311.895.632 1.216l1.415-1.414zm.006-.286l49.4-111-1.827-.814-49.4 111 1.827.814zm49.355-110.91c.287-.504.638-1.368.095-2.128-.253-.355-.614-.54-.935-.638a3.562 3.562 0 00-1.028-.131v2c.118 0 .214.006.291.015.077.01.127.02.155.03.063.018-.023.008-.11-.114a.49.49 0 01-.083-.188.301.301 0 01-.006-.097c0-.003-.002.017-.02.064a1.522 1.522 0 01-.096.194l1.737.992zm-1.868-2.897c-19.866 0-33.697.266-41.469.802l.137 1.996c7.695-.531 21.463-.798 41.332-.798v-2zm-41.47.803c-3.829.268-7.034.69-9.602 1.272-2.549.578-4.553 1.331-5.914 2.314l1.171 1.622c1.039-.75 2.735-1.43 5.186-1.986 2.432-.551 5.527-.963 9.298-1.227l-.139-1.995zm-15.507 3.58c-2.538 1.791-4.49 5.183-5.977 9.917l1.907.6c1.446-4.6 3.228-7.474 5.223-8.883l-1.153-1.634zM240.762 46.2a.47.47 0 01.064-.223.494.494 0 01.172-.184c.04-.025.052-.02.006-.011a1.28 1.28 0 01-.242.018v2c.401 0 .868-.054 1.265-.292a1.49 1.49 0 00.735-1.308h-2zm0-.4c-.115 0-.333-.032-.683-.149l-.633 1.898c.45.15.899.251 1.316.251v-2zm-.292.093c-.051-.051-.011-.032.013.065a.457.457 0 01-.026.29l-1.789-.895a1.563 1.563 0 00-.126 1.09c.091.362.298.648.513.864l1.415-1.414zm.066.135l6.8-29-1.947-.456-6.8 29 1.947.456zm6.775-28.912a.429.429 0 01-.122.181c-.058.052-.104.065-.102.064a.581.581 0 01.138-.011c.09 0 .213.01.373.036l.329-1.972c-.461-.077-.948-.101-1.389.024-.495.142-.936.481-1.124 1.046l1.897.632zm.451.284c.163 0 .272.01.339.022.074.013.056.02-.003-.015a.656.656 0 01-.272-.353.596.596 0 01-.012-.37l1.897.632c.079-.237.126-.556.013-.895a1.35 1.35 0 00-.597-.728c-.416-.25-.938-.293-1.365-.293v2zm.03-.642c-.16.64-.23 1.394-.23 2.242h2c0-.752.064-1.33.171-1.758l-1.941-.485zm-.23 2.242c0 .772.196 1.494.65 2.1.451.601 1.093 1.001 1.834 1.249l.633-1.898c-.459-.152-.717-.352-.867-.551-.145-.194-.25-.472-.25-.9h-2zm2.513 3.358c1.495.448 4.238.642 8.088.642v-2c-3.885 0-6.341-.206-7.513-.558l-.575 1.916zm8.088.642h53v-2h-53v2zm53 0c.036 0 .232-.002.542.515l1.715-1.03c-.49-.817-1.227-1.485-2.257-1.485v2zm.619.625c.221.276.293.446.31.517.007.029.001.022.006-.008a.217.217 0 01.032-.089l1.665 1.11c.666-1 .119-2.067-.452-2.78l-1.561 1.25zm.241.633l-43 118 1.879.684 43-118-1.879-.684z" fill="#583D2B"/></svg>