<svg width="298" height="183" fill="none" xmlns="http://www.w3.org/2000/svg"><path d="M297.5 31.5l-7.75-7.75c-13.117-13.117-34.383-13.117-47.5 0v0c-13.117 13.117-34.383 13.117-47.5 0v0c-13.117-13.117-34.383-13.117-47.5 0v0c-13.117 13.117-34.383 13.117-47.5 0v0c-13.117-13.117-34.383-13.117-47.5 0v0c-13.117 13.117-34.383 13.117-47.5 0L1 20m296.5 56.5l-7.75-7.75c-13.117-13.117-34.383-13.117-47.5 0v0c-13.117 13.117-34.383 13.117-47.5 0v0c-13.117-13.117-34.383-13.117-47.5 0v0c-13.117 13.117-34.383 13.117-47.5 0v0c-13.117-13.117-34.383-13.117-47.5 0v0c-13.117 13.117-34.383 13.117-47.5 0L1 65m296.5 56.5l-7.75-7.75c-13.117-13.117-34.383-13.117-47.5 0v0c-13.117 13.117-34.383 13.117-47.5 0v0c-13.117-13.117-34.383-13.117-47.5 0v0c-13.117 13.117-34.383 13.117-47.5 0v0c-13.117-13.117-34.383-13.117-47.5 0v0c-13.117 13.117-34.383 13.117-47.5 0L1 110m296.5 56.5l-7.75-7.75c-13.117-13.117-34.383-13.117-47.5 0v0c-13.117 13.117-34.383 13.117-47.5 0v0c-13.117-13.117-34.383-13.117-47.5 0v0c-13.117 13.117-34.383 13.117-47.5 0v0c-13.117-13.117-34.383-13.117-47.5 0v0c-13.117 13.117-34.383 13.117-47.5 0L1 155" stroke="#71A364"/></svg>