<svg width="188" height="188" fill="none" xmlns="http://www.w3.org/2000/svg"><path d="M85.876 10.713c4.2-5.132 12.047-5.132 16.248 0l5.46 6.668a11.5 11.5 0 0012.962 3.473l8.062-3.045c6.204-2.344 12.999 1.58 14.072 8.124l1.394 8.505a11.5 11.5 0 009.488 9.488l8.505 1.394c6.544 1.073 10.467 7.868 8.124 14.072l-3.045 8.062a11.5 11.5 0 003.473 12.962l6.668 5.46c5.132 4.2 5.132 12.047 0 16.248l-6.668 5.46a11.5 11.5 0 00-3.473 12.962l3.045 8.062c2.343 6.204-1.58 12.999-8.124 14.072l-8.505 1.394a11.5 11.5 0 00-9.488 9.488l-1.394 8.505c-1.073 6.544-7.868 10.467-14.072 8.124l-8.062-3.045a11.5 11.5 0 00-12.962 3.473l-5.46 6.668c-4.2 5.132-12.047 5.132-16.248 0l-5.46-6.668a11.5 11.5 0 00-12.962-3.473l-8.062 3.045c-6.204 2.343-13-1.58-14.072-8.124l-1.394-8.505a11.5 11.5 0 00-9.488-9.488l-8.505-1.394c-6.544-1.073-10.467-7.868-8.124-14.072l3.045-8.062a11.5 11.5 0 00-3.473-12.962l-6.668-5.46c-5.132-4.2-5.132-12.047 0-16.248l6.668-5.46a11.5 11.5 0 003.473-12.962l-3.045-8.062c-2.344-6.204 1.58-13 8.124-14.072l8.505-1.394a11.5 11.5 0 009.488-9.488l1.394-8.505c1.073-6.544 7.868-10.467 14.072-8.124l8.062 3.045a11.5 11.5 0 0012.962-3.473l5.46-6.668z" stroke="#583D2B"/><path d="M86.013 86.288c-1.76 0-3.297-.352-4.609-1.056-1.295-.704-2.287-1.656-2.975-2.856-.689-1.2-1.032-2.52-1.032-3.96 0-1.552.391-2.904 1.175-4.056.784-1.168 1.856-2.064 3.216-2.688 1.377-.624 2.913-.936 4.609-.936.847 0 1.647.08 2.4.24.752.16 1.376.392 1.871.696.128.064.2.12.216.168.016.048.032.168.049.36l.287 2.832c0 .048-.047.08-.144.096-.08.016-.127-.008-.143-.072-.737-2.624-2.4-3.936-4.993-3.936-1.263 0-2.407.288-3.431.864-1.008.56-1.808 1.368-2.4 2.424-.576 1.04-.864 2.256-.864 3.648 0 1.36.28 2.64.84 3.84.56 1.2 1.4 2.176 2.52 2.928 1.12.736 2.471 1.104 4.055 1.104 1.136 0 1.937-.216 2.4-.648.465-.448.697-1.208.697-2.28 0-.832-.056-1.408-.169-1.728-.095-.336-.328-.56-.695-.672-.353-.112-.977-.168-1.873-.168-.096 0-.144-.064-.144-.192 0-.048.008-.088.024-.12.032-.048.064-.072.096-.072 1.249.08 2.257.12 3.025.12a42.2 42.2 0 002.376-.072c.031 0 .055.024.072.072.032.032.047.064.047.096 0 .112-.04.168-.12.168-.4-.016-.68.04-.84.168-.144.112-.24.352-.287.72-.049.352-.073.992-.073 1.92 0 .72.025 1.232.073 1.536.063.304.096.496.096.576 0 .096-.016.16-.048.192a.55.55 0 01-.216.096c-1.984.432-3.68.648-5.088.648zm15.716-1.632c.048 0 .088.032.12.096.048.048.056.096.024.144-1.056.928-2.224 1.392-3.504 1.392-.928 0-1.72-.216-2.376-.648-.656-.432-1.16-1-1.512-1.704a5.171 5.171 0 01-.504-2.256c0-.944.224-1.808.672-2.592a4.884 4.884 0 011.824-1.872 4.951 4.951 0 012.568-.696c.896 0 1.584.24 2.064.72s.72 1.152.72 2.016c0 .224-.024.384-.072.48-.032.096-.096.144-.192.144l-5.952.024c-.032.352-.048.64-.048.864 0 1.392.328 2.52.984 3.384.656.864 1.576 1.296 2.76 1.296.48 0 .888-.064 1.224-.192a6.3 6.3 0 001.176-.6h.024zM98.249 77c-.688 0-1.256.232-1.704.696-.448.448-.744 1.08-.888 1.896l4.56-.096c0-.816-.176-1.432-.528-1.848-.352-.432-.832-.648-1.44-.648zm11.885 7.752c.064 0 .112.04.144.12.032.064.024.112-.024.144-.592.464-1.128.792-1.608.984a3.791 3.791 0 01-1.464.288c-.672 0-1.224-.152-1.656-.456-.432-.304-.648-.808-.648-1.512v-5.64c0-.416-.032-.712-.096-.888a.446.446 0 00-.312-.336c-.16-.064-.432-.096-.816-.096-.064 0-.096-.048-.096-.144 0-.112.032-.168.096-.168.64-.016 1.16-.184 1.56-.504.4-.336.632-.776.696-1.32 0-.048.064-.072.192-.072.112 0 .168.024.168.072V77c.8-.016 1.912-.096 3.336-.24.032 0 .064.064.096.192a.967.967 0 01-.024.792c-.048.128-.104.184-.168.168-.88-.224-1.96-.352-3.24-.384v5.976c0 .656.16 1.144.48 1.464.336.32.808.48 1.416.48.704 0 1.344-.224 1.92-.672l.048-.024zm-33.46 24.96c.032 0 .048.048.048.144 0 .096-.015.144-.047.144h-3.096c-.4 0-1.152-.664-2.256-1.992-1.104-1.328-2.416-3.152-3.936-5.472-.433.096-.88.144-1.344.144-.097 0-.457-.024-1.08-.072v5.448c0 .496.047.856.144 1.08.096.224.28.376.552.456.287.08.735.12 1.343.12.049 0 .073.048.073.144 0 .096-.025.144-.073.144-.495 0-.887-.008-1.175-.024l-1.656-.024-1.633.024c-.287.016-.695.024-1.223.024-.032 0-.048-.048-.048-.144 0-.096.015-.144.047-.144.608 0 1.056-.04 1.344-.12.288-.08.48-.232.576-.456.112-.24.169-.6.169-1.08V96.944c0-.48-.048-.832-.145-1.056-.096-.224-.288-.376-.576-.456-.272-.096-.712-.144-1.32-.144-.047 0-.072-.048-.072-.144 0-.096.025-.144.072-.144l1.176.024c.673.032 1.217.048 1.633.048.351 0 .68-.008.983-.024.305-.016.56-.032.769-.048a20.063 20.063 0 011.608-.072c1.263 0 2.24.288 2.927.864.689.576 1.032 1.344 1.032 2.304 0 .864-.255 1.648-.767 2.352-.496.688-1.16 1.232-1.992 1.632 1.344 1.936 2.472 3.456 3.384 4.56.928 1.088 1.744 1.872 2.448 2.352.72.48 1.424.72 2.111.72zm-11.712-7.68c.4.064.873.096 1.416.096 1.248 0 2.136-.272 2.665-.816.543-.544.816-1.384.816-2.52 0-1.248-.28-2.144-.84-2.688-.544-.544-1.345-.816-2.4-.816-.624 0-1.056.112-1.296.336-.24.224-.36.68-.36 1.368v5.04zm19.423 6.624c.048 0 .088.032.12.096.048.048.056.096.024.144-1.056.928-2.224 1.392-3.504 1.392-.928 0-1.72-.216-2.376-.648-.656-.432-1.16-1-1.512-1.704a5.171 5.171 0 01-.504-2.256c0-.944.224-1.808.672-2.592a4.884 4.884 0 011.824-1.872 4.951 4.951 0 012.568-.696c.896 0 1.584.24 2.064.72s.72 1.152.72 2.016c0 .224-.024.384-.072.48-.032.096-.096.144-.192.144l-5.952.024c-.032.352-.048.64-.048.864 0 1.392.328 2.52.984 3.384.656.864 1.576 1.296 2.76 1.296.48 0 .888-.064 1.224-.192a6.3 6.3 0 001.176-.6h.024zM80.905 101c-.688 0-1.256.232-1.704.696-.448.448-.744 1.08-.888 1.896l4.56-.096c0-.816-.176-1.432-.528-1.848-.352-.432-.832-.648-1.44-.648zm6.845 1.2c0 .56.184 1.008.552 1.344.368.32.904.664 1.608 1.032.56.288.992.536 1.296.744.32.208.592.48.816.816.224.336.336.744.336 1.224 0 .816-.304 1.504-.912 2.064-.608.56-1.432.84-2.472.84-.848 0-1.616-.24-2.304-.72a.323.323 0 01-.144-.288l-.048-1.872c0-.048.04-.072.12-.072.096-.016.152 0 .168.048.304.8.696 1.408 1.176 1.824a2.576 2.576 0 001.704.624c.528 0 .928-.128 1.2-.384.272-.256.392-.632.36-1.128-.016-.608-.208-1.072-.576-1.392-.352-.336-.888-.68-1.608-1.032a12.012 12.012 0 01-1.272-.696 2.967 2.967 0 01-.792-.816c-.208-.336-.312-.752-.312-1.248 0-.864.32-1.52.96-1.968.656-.464 1.424-.696 2.304-.696.64 0 1.224.12 1.752.36.096.032.152.072.168.12.032.032.048.08.048.144 0 .32-.008.568-.024.744l-.024 1.008c0 .032-.048.048-.144.048-.096 0-.144-.016-.144-.048 0-.336-.128-.648-.384-.936a2.712 2.712 0 00-.96-.72 2.745 2.745 0 00-1.152-.264c-.4 0-.72.112-.96.336-.224.208-.336.528-.336.96zm17.133 6.432c.064 0 .104.04.12.12.032.064.016.112-.048.144l-2.808 1.32-.096.024c-.16 0-.312-.184-.456-.552-.144-.368-.216-.848-.216-1.44v-.096c-.624.704-1.248 1.224-1.872 1.56-.624.32-1.272.48-1.944.48-.8 0-1.424-.248-1.872-.744-.448-.512-.672-1.248-.672-2.208v-3.672c0-.624-.056-1.072-.168-1.344-.112-.288-.296-.432-.552-.432-.224 0-.496.08-.816.24h-.024c-.064 0-.112-.04-.144-.12-.032-.096-.016-.152.048-.168l2.664-1.2.096-.024c.048 0 .096.024.144.072.064.032.096.072.096.12v5.736c0 1.856.672 2.784 2.016 2.784.512 0 1.032-.128 1.56-.384a5.248 5.248 0 001.44-1.104v-4.176c0-.64-.056-1.096-.168-1.368-.096-.272-.28-.408-.552-.408-.224 0-.496.08-.816.24h-.024c-.064 0-.112-.04-.144-.12-.016-.096.008-.152.072-.168l2.664-1.2.072-.024c.048 0 .096.024.144.072.064.032.096.072.096.12v6.72c0 .544.064.936.192 1.176.128.24.344.36.648.36.272 0 .696-.112 1.272-.336h.048zm.868 1.368c-.048 0-.072-.048-.072-.144 0-.096.024-.144.072-.144.432 0 .752-.04.96-.12a.803.803 0 00.432-.48c.08-.24.12-.592.12-1.056V95.648c0-.576-.056-.992-.168-1.248-.112-.256-.312-.384-.6-.384-.24 0-.608.112-1.104.336h-.048c-.048 0-.088-.04-.12-.12-.016-.08 0-.128.048-.144l3.072-1.464a.267.267 0 01.12-.024c.032 0 .072.024.12.072.064.032.096.072.096.12v15.264c0 .464.032.808.096 1.032.08.224.224.384.432.48.208.096.528.144.96.144.048 0 .072.048.072.144 0 .096-.024.144-.072.144-.352 0-.64-.008-.864-.024l-1.344-.024-1.296.024a13.5 13.5 0 01-.912.024zm12.452-1.248c.064 0 .112.04.144.12.032.064.024.112-.024.144-.592.464-1.128.792-1.608.984a3.791 3.791 0 01-1.464.288c-.672 0-1.224-.152-1.656-.456-.432-.304-.648-.808-.648-1.512v-5.64c0-.416-.032-.712-.096-.888a.446.446 0 00-.312-.336c-.16-.064-.432-.096-.816-.096-.064 0-.096-.048-.096-.144 0-.112.032-.168.096-.168.64-.016 1.16-.184 1.56-.504.4-.336.632-.776.696-1.32 0-.048.064-.072.192-.072.112 0 .168.024.168.072V101c.8-.016 1.912-.096 3.336-.24.032 0 .064.064.096.192a.967.967 0 01-.024.792c-.048.128-.104.184-.168.168-.88-.224-1.96-.352-3.24-.384v5.976c0 .656.16 1.144.48 1.464.336.32.808.48 1.416.48.704 0 1.344-.224 1.92-.672l.048-.024zm2.829-6.552c0 .56.184 1.008.552 1.344.368.32.904.664 1.608 1.032.56.288.992.536 1.296.744.32.208.592.48.816.816.224.336.336.744.336 1.224 0 .816-.304 1.504-.912 2.064-.608.56-1.432.84-2.472.84-.848 0-1.616-.24-2.304-.72a.323.323 0 01-.144-.288l-.048-1.872c0-.048.04-.072.12-.072.096-.016.152 0 .168.048.304.8.696 1.408 1.176 1.824a2.576 2.576 0 001.704.624c.528 0 .928-.128 1.2-.384.272-.256.392-.632.36-1.128-.016-.608-.208-1.072-.576-1.392-.352-.336-.888-.68-1.608-1.032a12.012 12.012 0 01-1.272-.696 2.967 2.967 0 01-.792-.816c-.208-.336-.312-.752-.312-1.248 0-.864.32-1.52.96-1.968.656-.464 1.424-.696 2.304-.696.64 0 1.224.12 1.752.36.096.032.152.072.168.12.032.032.048.08.048.144 0 .32-.008.568-.024.744l-.024 1.008c0 .032-.048.048-.144.048-.096 0-.144-.016-.144-.048 0-.336-.128-.648-.384-.936a2.712 2.712 0 00-.96-.72 2.745 2.745 0 00-1.152-.264c-.4 0-.72.112-.96.336-.224.208-.336.528-.336.96z" fill="#583D2B"/></svg>