<svg width="188" height="188" fill="none" xmlns="http://www.w3.org/2000/svg"><path d="M85.876 10.713c4.2-5.132 12.047-5.132 16.248 0l5.46 6.668a11.5 11.5 0 0012.962 3.473l8.062-3.045c6.204-2.344 12.999 1.58 14.072 8.124l1.394 8.505a11.5 11.5 0 009.488 9.488l8.505 1.394c6.544 1.073 10.467 7.868 8.124 14.072l-3.045 8.062a11.5 11.5 0 003.473 12.962l6.668 5.46c5.132 4.2 5.132 12.047 0 16.248l-6.668 5.46a11.5 11.5 0 00-3.473 12.962l3.045 8.062c2.343 6.204-1.58 12.999-8.124 14.072l-8.505 1.394a11.5 11.5 0 00-9.488 9.488l-1.394 8.505c-1.073 6.544-7.868 10.467-14.072 8.124l-8.062-3.045a11.5 11.5 0 00-12.962 3.473l-5.46 6.668c-4.2 5.132-12.047 5.132-16.248 0l-5.46-6.668a11.5 11.5 0 00-12.962-3.473l-8.062 3.045c-6.204 2.343-13-1.58-14.072-8.124l-1.394-8.505a11.5 11.5 0 00-9.488-9.488l-8.505-1.394c-6.544-1.073-10.467-7.868-8.124-14.072l3.045-8.062a11.5 11.5 0 00-3.473-12.962l-6.668-5.46c-5.132-4.2-5.132-12.047 0-16.248l6.668-5.46a11.5 11.5 0 003.473-12.962l-3.045-8.062c-2.344-6.204 1.58-13 8.124-14.072l8.505-1.394a11.5 11.5 0 009.488-9.488l1.394-8.505c1.073-6.544 7.868-10.467 14.072-8.124l8.062 3.045a11.5 11.5 0 0012.962-3.473l5.46-6.668z" stroke="#583D2B"/><path d="M70.893 98.424c0-.032.032-.048.096-.048.048 0 .088.008.12.024.048.016.072.04.072.072a22.396 22.396 0 00-.216 3.168c0 .128-.032.224-.096.288-.048.048-.144.072-.288.072H60.525c-.032 0-.048-.048-.048-.144 0-.096.016-.144.048-.144.608 0 1.048-.04 1.32-.12.288-.08.48-.232.576-.456.112-.24.168-.6.168-1.08V88.944c0-.48-.056-.832-.168-1.056-.096-.224-.288-.376-.576-.456-.272-.096-.712-.144-1.32-.144-.032 0-.048-.048-.048-.144 0-.096.016-.144.048-.144h9.648c.144 0 .216.072.216.216l.048 2.952c0 .048-.04.08-.12.096-.08 0-.128-.024-.144-.072-.048-.848-.304-1.504-.768-1.968-.464-.48-1.08-.72-1.848-.72h-1.464c-.56 0-.976.048-1.248.144a.88.88 0 00-.552.456c-.096.208-.144.528-.144.96v4.872h2.928c.768 0 1.312-.128 1.632-.384.336-.256.504-.688.504-1.296 0-.032.048-.048.144-.048.096 0 .144.016.144.048l-.024 1.944c0 .464.008.816.024 1.056l.024 1.152c0 .032-.048.048-.144.048-.096 0-.144-.016-.144-.048 0-.704-.176-1.208-.528-1.512-.336-.304-.904-.456-1.704-.456H64.15v5.52c0 .448.048.776.144.984.096.208.272.352.528.432.256.08.656.12 1.2.12h1.92c.768 0 1.408-.272 1.92-.816.512-.544.856-1.296 1.032-2.256zm11.5 3.288c.031 0 .047.048.047.144 0 .096-.016.144-.048.144l-.768-.024a9.153 9.153 0 00-.768-.024l-1.536.024c-.24.016-.56.024-.96.024-.048 0-.072-.048-.072-.144 0-.096.024-.144.072-.144.288 0 .488-.016.6-.048.128-.048.192-.128.192-.24 0-.144-.096-.36-.288-.648l-1.824-2.76-1.44 2.064c-.32.48-.48.832-.48 1.056 0 .192.104.336.312.432.224.096.576.144 1.056.144.048 0 .072.048.072.144 0 .096-.024.144-.072.144-.432 0-.752-.008-.96-.024l-1.44-.024-.864.024c-.16.016-.416.024-.768.024-.032 0-.048-.048-.048-.144 0-.096.016-.144.048-.144.416 0 .864-.152 1.344-.456.496-.304.952-.744 1.368-1.32l1.632-2.28-1.944-2.928c-.384-.592-.784-1.024-1.2-1.296-.416-.272-.792-.408-1.128-.408-.032 0-.048-.048-.048-.144 0-.096.016-.144.048-.144.336 0 .584.008.744.024l.744.024 1.536-.024c.224-.016.536-.024.936-.024.032 0 .048.048.048.144 0 .096-.016.144-.048.144-.272 0-.472.024-.6.072-.128.032-.192.104-.192.216s.104.328.312.648l1.656 2.496 1.224-1.8c.336-.496.504-.856.504-1.08 0-.192-.112-.328-.336-.408-.208-.096-.56-.144-1.056-.144-.032 0-.048-.048-.048-.144 0-.096.016-.144.048-.144.432 0 .76.008.984.024l1.44.024.864-.024c.16-.016.416-.024.768-.024.032 0 .048.048.048.144 0 .096-.016.144-.048.144-.432 0-.888.152-1.368.456-.464.288-.912.728-1.344 1.32l-1.464 1.992 2.136 3.216c.4.608.808 1.048 1.224 1.32.432.256.816.384 1.152.384zm7.714-9.288c.656 0 1.264.176 1.824.528.56.352 1.008.864 1.344 1.536.336.672.504 1.456.504 2.352 0 1.2-.272 2.216-.816 3.048-.544.816-1.216 1.424-2.016 1.824-.784.4-1.56.6-2.328.6a5.77 5.77 0 01-1.344-.144 5.215 5.215 0 01-1.2-.48v4.968c0 .48.056.832.168 1.056.128.224.36.376.696.456.336.096.848.144 1.536.144.032 0 .048.048.048.144 0 .096-.016.144-.048.144-.544 0-.976-.008-1.296-.024l-1.752-.024-1.32.024c-.224.016-.52.024-.888.024-.048 0-.072-.048-.072-.144 0-.096.024-.144.072-.144.432 0 .752-.048.96-.144a.72.72 0 00.432-.456c.08-.224.12-.576.12-1.056v-11.28c0-.576-.064-.984-.192-1.224-.128-.256-.352-.384-.672-.384-.352 0-.776.112-1.272.336l-.048.024c-.064 0-.104-.04-.12-.12-.032-.08-.024-.136.024-.168l2.664-1.272a.412.412 0 01.168-.024c.224 0 .408.168.552.504.144.336.224.816.24 1.44 1.36-1.376 2.704-2.064 4.032-2.064zm-.768 9.384c.848 0 1.544-.368 2.088-1.104.544-.752.816-1.792.816-3.12 0-1.344-.296-2.384-.888-3.12-.592-.752-1.344-1.128-2.256-1.128-.56 0-1.08.136-1.56.408-.48.272-.968.656-1.464 1.152v5.4c.448.496.92.872 1.416 1.128.512.256 1.128.384 1.848.384zm13.746-1.152c.048 0 .088.032.12.096.048.048.056.096.024.144-1.056.928-2.224 1.392-3.504 1.392-.928 0-1.72-.216-2.376-.648-.656-.432-1.16-1-1.512-1.704a5.171 5.171 0 01-.504-2.256c0-.944.224-1.808.672-2.592a4.884 4.884 0 011.824-1.872 4.951 4.951 0 012.568-.696c.896 0 1.584.24 2.064.72s.72 1.152.72 2.016c0 .224-.024.384-.072.48-.032.096-.096.144-.192.144l-5.952.024c-.032.352-.048.64-.048.864 0 1.392.328 2.52.984 3.384.656.864 1.576 1.296 2.76 1.296.48 0 .888-.064 1.224-.192a6.3 6.3 0 001.176-.6h.024zM99.605 93c-.688 0-1.256.232-1.704.696-.448.448-.744 1.08-.888 1.896l4.56-.096c0-.816-.176-1.432-.528-1.848-.352-.432-.832-.648-1.44-.648zm11.021-.48c.352 0 .688.096 1.008.288.32.192.48.424.48.696a.718.718 0 01-.216.528c-.128.144-.32.216-.576.216a.967.967 0 01-.384-.072 6.356 6.356 0 01-.36-.264 1.928 1.928 0 00-.408-.288 1.009 1.009 0 00-.456-.096c-.208 0-.432.088-.672.264-.224.176-.584.552-1.08 1.128v5.136c0 .48.056.832.168 1.056.128.224.352.384.672.48.32.08.816.12 1.488.12.064 0 .096.048.096.144 0 .096-.032.144-.096.144-.512 0-.92-.008-1.224-.024l-1.776-.024-1.32.024c-.208.016-.496.024-.864.024-.048 0-.072-.048-.072-.144 0-.096.024-.144.072-.144.432 0 .752-.04.96-.12a.723.723 0 00.408-.48c.08-.224.12-.576.12-1.056v-4.752c0-.544-.064-.936-.192-1.176-.128-.24-.344-.36-.648-.36-.256 0-.688.12-1.296.36h-.048c-.064 0-.112-.032-.144-.096-.016-.08.008-.136.072-.168l2.784-1.32.144-.024c.144 0 .296.184.456.552.16.368.24.84.24 1.416v.024c.656-.768 1.176-1.288 1.56-1.56.384-.288.752-.432 1.104-.432zm9.366 8.232c.064 0 .112.04.144.12.032.064.024.112-.024.144-.592.464-1.128.792-1.608.984a3.791 3.791 0 01-1.464.288c-.672 0-1.224-.152-1.656-.456-.432-.304-.648-.808-.648-1.512v-5.64c0-.416-.032-.712-.096-.888a.446.446 0 00-.312-.336c-.16-.064-.432-.096-.816-.096-.064 0-.096-.048-.096-.144 0-.112.032-.168.096-.168.64-.016 1.16-.184 1.56-.504.4-.336.632-.776.696-1.32 0-.048.064-.072.192-.072.112 0 .168.024.168.072V93c.8-.016 1.912-.096 3.336-.24.032 0 .064.064.096.192a.967.967 0 01-.024.792c-.048.128-.104.184-.168.168-.88-.224-1.96-.352-3.24-.384v5.976c0 .656.16 1.144.48 1.464.336.32.808.48 1.416.48.704 0 1.344-.224 1.92-.672l.048-.024zm2.829-6.552c0 .56.184 1.008.552 1.344.368.32.904.664 1.608 1.032.56.288.992.536 1.296.744.32.208.592.48.816.816.224.336.336.744.336 1.224 0 .816-.304 1.504-.912 2.064-.608.56-1.432.84-2.472.84-.848 0-1.616-.24-2.304-.72a.323.323 0 01-.144-.288l-.048-1.872c0-.048.04-.072.12-.072.096-.016.152 0 .168.048.304.8.696 1.408 1.176 1.824a2.576 2.576 0 001.704.624c.528 0 .928-.128 1.2-.384.272-.256.392-.632.36-1.128-.016-.608-.208-1.072-.576-1.392-.352-.336-.888-.68-1.608-1.032a12.012 12.012 0 01-1.272-.696 2.967 2.967 0 01-.792-.816c-.208-.336-.312-.752-.312-1.248 0-.864.32-1.52.96-1.968.656-.464 1.424-.696 2.304-.696.64 0 1.224.12 1.752.36.096.032.152.072.168.12.032.032.048.08.048.144 0 .32-.008.568-.024.744l-.024 1.008c0 .032-.048.048-.144.048-.096 0-.144-.016-.144-.048 0-.336-.128-.648-.384-.936a2.712 2.712 0 00-.96-.72 2.745 2.745 0 00-1.152-.264c-.4 0-.72.112-.96.336-.224.208-.336.528-.336.96z" fill="#583D2B"/></svg>