<svg width="183" height="298" fill="none" xmlns="http://www.w3.org/2000/svg"><path d="M151 297.5l7.75-7.75c13.117-13.117 13.117-34.383 0-47.5v0c-13.117-13.117-13.117-34.383 0-47.5v0c13.117-13.117 13.117-34.383 0-47.5v0c-13.117-13.117-13.117-34.383 0-47.5v0c13.117-13.117 13.117-34.383 0-47.5v0c-13.117-13.117-13.117-34.383 0-47.5L162.5 1M106 297.5l7.75-7.75c13.117-13.117 13.117-34.383 0-47.5v0c-13.117-13.117-13.117-34.383 0-47.5v0c13.117-13.117 13.117-34.383 0-47.5v0c-13.117-13.117-13.117-34.383 0-47.5v0c13.117-13.117 13.117-34.383 0-47.5v0c-13.117-13.117-13.117-34.383 0-47.5L117.5 1M61 297.5l7.75-7.75c13.117-13.117 13.117-34.383 0-47.5v0c-13.117-13.117-13.117-34.383 0-47.5v0c13.117-13.117 13.117-34.383 0-47.5v0c-13.117-13.117-13.117-34.383 0-47.5v0c13.117-13.117 13.117-34.383 0-47.5v0c-13.117-13.117-13.117-34.383 0-47.5L72.5 1M16 297.5l7.75-7.75c13.117-13.117 13.117-34.383 0-47.5v0c-13.117-13.117-13.117-34.383 0-47.5v0c13.117-13.117 13.117-34.383 0-47.5v0c-13.117-13.117-13.117-34.383 0-47.5v0c13.117-13.117 13.117-34.383 0-47.5v0c-13.117-13.117-13.117-34.383 0-47.5L27.5 1" stroke="#71A364"/></svg>