<svg width="166" height="131" fill="none" xmlns="http://www.w3.org/2000/svg"><path opacity=".1" d="M19.8 122.4l-.665.747.008.007.657-.754zm-14.4-23l-.947.32.004.011.943-.331zm.2-67.6l.942.335.001-.003L5.6 31.8zM20 8.8l-.657-.754-.008.007L20 8.8zm42.4 0l-.673.74.008.007.665-.747zM76.6 32l-.949.316.002.004.947-.32zm-.2 67.8l-.944-.331-.002.007.946.324zm-14.2 22.8l.656.755.01-.008-.666-.747zm-.8-10.2l-.933-.359-.003.007.936.352zm-1.8-92.6l-.905.425.905-.425zm-38.8-.2l-.928-.373-.004.01.932.363zm1.4 91l-.91.413.91-.413zm19 19c-7.748 0-14.65-2.639-20.743-7.954l-1.314 1.508c6.44 5.618 13.805 8.446 22.057 8.446v-2zm-20.735-7.947c-5.977-5.327-10.696-12.835-14.122-22.585l-1.886.663c3.507 9.984 8.388 17.81 14.678 23.416l1.33-1.494zM6.347 99.08C3.056 89.337 1.4 78.115 1.4 65.4h-2c0 12.885 1.678 24.33 5.053 34.32l1.894-.64zM1.4 65.4c0-12.577 1.721-23.66 5.142-33.265l-1.884-.67C1.145 41.327-.6 52.644-.6 65.4h2zm5.143-33.269c3.426-9.75 8.145-17.257 14.122-22.584l-1.33-1.494c-6.29 5.606-11.17 13.432-14.678 23.415l1.886.664zM20.657 9.555C26.747 4.242 33.714 1.6 41.6 1.6v-2c-8.38 0-15.813 2.825-22.257 8.446l1.314 1.508zM41.6 1.6c7.609 0 14.304 2.634 20.127 7.94l1.347-1.48C56.896 2.433 49.724-.4 41.6-.4v2zm20.135 7.947c5.97 5.321 10.623 12.889 13.916 22.77l1.898-.633c-3.374-10.12-8.188-18.02-14.484-23.63l-1.33 1.493zM75.653 32.32C78.944 42.063 80.6 53.285 80.6 66h2c0-12.885-1.677-24.33-5.053-34.32l-1.894.64zM80.6 66c0 12.577-1.721 23.728-5.143 33.469l1.887.662C80.854 90.138 82.6 78.757 82.6 66h-2zm-5.146 33.476c-3.291 9.611-7.943 17.051-13.92 22.377l1.331 1.494c6.29-5.607 11.106-13.367 14.481-23.223l-1.892-.648zm-13.91 22.369c-5.958 5.181-12.727 7.755-20.344 7.755v2c8.116 0 15.347-2.76 21.656-8.245l-1.312-1.51zM43.6 128.8c4.235 0 7.952-1.366 11.104-4.094 3.133-2.71 5.662-6.723 7.632-11.954l-1.872-.704c-1.896 5.036-4.268 8.723-7.068 11.146-2.781 2.406-6.031 3.606-9.796 3.606v2zm18.733-16.041C66.398 102.191 68.4 87.382 68.4 68.4h-2c0 18.884-1.998 33.409-5.933 43.641l1.866.718zM68.4 68.4c0-21.387-2.602-37.76-7.895-49.025l-1.81.85C63.802 31.095 66.4 47.12 66.4 68.4h2zm-7.895-49.025C55.23 8.148 48.228 2.2 39.4 2.2v2c7.705 0 14.17 5.118 19.295 16.025l1.81-.85zM39.4 2.2c-8.595 0-15.06 5.924-19.528 17.027l1.856.746C26.06 9.21 31.995 4.2 39.4 4.2v-2zM19.868 19.236C15.538 30.334 13.4 45.274 13.4 64h2c0-18.607 2.129-33.267 6.332-44.037l-1.864-.727zM13.4 64c0 19.671 2.607 35.365 7.89 47.013l1.82-.826C17.994 98.902 15.4 83.529 15.4 64h-2zm7.89 47.013C26.577 122.674 33.988 128.8 43.6 128.8v-2c-8.522 0-15.378-5.341-20.49-16.613l-1.82.826zM93.394 127l-.857.514.034.058.042.053.781-.625zm.2-1.6l.6.8.104-.078.08-.101-.784-.621zm11.6-14.2l.755.656.009-.011.009-.011-.773-.634zm23-29.4l.81.587-.81-.587zm14.2-23.8l.903.43.003-.006-.906-.424zm-.4-42l-.739.674.005.005.005.006.729-.685zm-34.4-1l.625.78.007-.005.006-.005-.638-.77zm-10.4 16.2l-.952-.305-.048.149v.156h1zm-2.2-.6l.97.242.007-.024.004-.024-.98-.194zm12.2-22l.639.77-.639-.77zm45.8.6l-.715.699.008.008.009.009.698-.716zm2 45.2l-.888-.459.888.459zm-14.8 22.8l.778.628-.778-.628zm-20.8 24l-.739-.674-.004.005.743.669zm-6.4 7l-.736-.677-.001.001.737.676zm-6.6 8l.814.581.005-.007.005-.007-.824-.567zm37.6.8l.056.998h.009l.009-.001-.074-.997zm15.2-3.6l.537.844.014-.009.013-.009-.564-.826zm4.6-9.6l1 .03v-.03h-1zm2.2 0l1 .009v-.009h-1zm-.2 22l-1-.009v.009h1zm-.6 1.6l-.8-.6-.016.022-.016.023.832.555zm-70-.4c-.28 0-.617-.123-1.019-.625l-1.562 1.25c.666.831 1.529 1.375 2.581 1.375v-2zm-.942-.514c-.135-.225-.111-.297-.115-.262a.117.117 0 01-.014.042c0 .001.014-.023.071-.066l-1.2-1.6c-.428.321-.767.778-.842 1.376-.071.569.12 1.096.385 1.538l1.715-1.028zm.126-.465c5.065-6.398 8.92-11.116 11.571-14.165l-1.509-1.312c-2.683 3.085-6.561 7.833-11.63 14.235l1.568 1.242zm11.589-14.187c9.74-11.874 17.421-21.691 23.037-29.448l-1.62-1.172c-5.583 7.71-13.236 17.493-22.963 29.352l1.546 1.268zm23.037-29.448c5.634-7.78 10.399-15.765 14.293-23.957l-1.806-.858c-3.839 8.075-8.54 15.956-14.107 23.642l1.62 1.174zM143.3 58.424c3.915-8.37 5.894-16.382 5.894-24.024h-2c0 7.291-1.887 15.013-5.705 23.176l1.811.848zm5.894-24.024c0-8.041-2.116-14.448-6.471-19.085l-1.458 1.37c3.912 4.163 5.929 10.023 5.929 17.715h2zm-6.461-19.074C138.37 10.541 132.276 8.2 124.594 8.2v2c7.252 0 12.758 2.193 16.661 6.474l1.478-1.348zM124.595 8.2c-6.874 0-12.773 2-17.638 6.03l1.276 1.54c4.469-3.703 9.904-5.57 16.362-5.57v-2zm-17.624 6.02c-4.854 3.882-8.416 9.466-10.728 16.675l1.904.61c2.222-6.924 5.593-12.14 10.073-15.724l-1.249-1.562zM96.195 31.2a.907.907 0 01.35-.712.712.712 0 01.208-.108c.003-.001-.022.005-.09.011a3.317 3.317 0 01-.268.009v2c.287 0 .587-.016.843-.08.123-.03.32-.092.507-.233.216-.161.45-.46.45-.887h-2zm.2-.8c-.228 0-.397-.015-.516-.035-.124-.022-.156-.044-.138-.033a.488.488 0 01.19.233.47.47 0 01.035.277l-1.94-.484c-.072.285-.086.63.059.977.145.348.403.584.664.733.472.27 1.08.332 1.646.332v-2zm-.419.394c1.831-9.285 5.8-16.397 11.858-21.424l-1.277-1.54c-6.475 5.373-10.64 12.928-12.543 22.577l1.962.387zM107.834 9.37c6.064-5.032 13.562-7.57 22.561-7.57v-2c-9.401 0-17.369 2.662-23.838 8.03l1.277 1.54zm22.561-7.57c9.396 0 16.647 2.733 21.885 8.099l1.431-1.398C148.015 2.667 140.2-.2 130.395-.2v2zm21.902 8.116c5.385 5.257 8.098 12.055 8.098 20.484h2c0-8.904-2.887-16.24-8.701-21.916l-1.397 1.432zm8.098 20.484c0 7.544-2.08 15.388-6.288 23.541l1.777.918c4.325-8.38 6.511-16.537 6.511-24.459h-2zm-6.288 23.541c-4.237 8.21-9.134 15.752-14.69 22.63l1.556 1.257c5.645-6.988 10.615-14.645 14.911-22.97l-1.777-.917zm-14.69 22.63c-5.583 6.914-12.503 14.898-20.761 23.955l1.478 1.348c8.276-9.077 15.223-17.092 20.839-24.046l-1.556-1.256zm-20.765 23.96a1022.86 1022.86 0 01-6.393 6.992l1.472 1.354c3.067-3.333 5.204-5.67 6.408-7.008l-1.487-1.338zm-6.394 6.993c-2.947 3.215-5.182 5.921-6.687 8.109l1.648 1.134c1.429-2.078 3.594-4.706 6.513-7.891l-1.474-1.352zm-6.676 8.095c-.2.279-.379.589-.473.919-.097.339-.124.784.118 1.208.236.413.62.618.94.719.32.102.676.135 1.028.135v-2a2.38 2.38 0 01-.286-.015.789.789 0 01-.135-.025c-.02-.007 0-.003.039.024a.546.546 0 01.151.17c.05.087.07.174.073.242.004.063-.007.096-.005.091a.535.535 0 01.04-.09c.03-.055.074-.127.137-.216l-1.627-1.162zm1.613 2.981c17.334 0 29.625-.2 36.856-.602l-.111-1.996c-7.17.398-19.411.598-36.745.598v2zm36.874-.603c7.224-.535 12.507-1.745 15.663-3.753l-1.074-1.688c-2.71 1.725-7.56 2.915-14.737 3.447l.148 1.994zm15.69-3.771c3.261-2.223 4.895-5.762 5.036-10.396l-1.999-.06c-.126 4.166-1.559 7.027-4.164 8.804l1.127 1.652zm5.036-10.426a.734.734 0 01-.169.465.551.551 0 01-.209.163c-.018.007 0-.002.073-.012.07-.009.17-.016.305-.016v-2c-.37 0-.774.033-1.121.172a1.439 1.439 0 00-.584.413 1.262 1.262 0 00-.295.815h2zm0 .6c.174 0 .311.007.415.019a.912.912 0 01.169.03c.019.006-.065-.017-.166-.117a.75.75 0 01-.218-.532h2c0-.798-.653-1.138-.983-1.249-.357-.118-.787-.151-1.217-.151v2zm.2-.609l-.2 22 2 .018.2-22-2-.018zm-.2 22.009c0 .268-.097.596-.4 1l1.6 1.2c.497-.663.8-1.401.8-2.2h-2zm-.432 1.045c-.058.088-.126.155-.368.155v2c.825 0 1.558-.333 2.032-1.045l-1.664-1.11zm-.368.155h-68.8v2h68.8v-2z" fill="#583D2B"/></svg>