<svg width="165" height="131" fill="none" xmlns="http://www.w3.org/2000/svg"><path opacity=".1" d="M19.8 122.4l-.665.747.008.007.657-.754zm-14.4-23l-.947.32.004.011.943-.331zm.2-67.6l.942.335.001-.003L5.6 31.8zM20 8.8l-.657-.754-.008.007L20 8.8zm42.4 0l-.673.74.008.007.665-.747zM76.6 32l-.949.316.002.004.947-.32zm-.2 67.8l-.944-.331-.002.007.946.324zm-14.2 22.8l.656.755.01-.008-.666-.747zm-.8-10.2l-.933-.359-.003.007.936.352zm-1.8-92.6l-.905.425.905-.425zm-38.8-.2l-.928-.373-.004.01.932.363zm1.4 91l-.91.413.91-.413zm19 19c-7.748 0-14.65-2.639-20.743-7.954l-1.314 1.508c6.44 5.618 13.805 8.446 22.057 8.446v-2zm-20.735-7.947c-5.977-5.327-10.696-12.835-14.122-22.585l-1.886.663c3.507 9.984 8.388 17.81 14.678 23.416l1.33-1.494zM6.347 99.08C3.056 89.337 1.4 78.115 1.4 65.4h-2c0 12.885 1.678 24.33 5.053 34.32l1.894-.64zM1.4 65.4c0-12.577 1.721-23.66 5.142-33.265l-1.884-.67C1.145 41.327-.6 52.644-.6 65.4h2zm5.143-33.269c3.426-9.75 8.145-17.257 14.122-22.584l-1.33-1.494c-6.29 5.606-11.17 13.432-14.678 23.415l1.886.664zM20.657 9.555C26.747 4.242 33.714 1.6 41.6 1.6v-2c-8.38 0-15.813 2.825-22.257 8.446l1.314 1.508zM41.6 1.6c7.609 0 14.304 2.634 20.127 7.94l1.347-1.48C56.896 2.433 49.724-.4 41.6-.4v2zm20.135 7.947c5.97 5.321 10.623 12.889 13.916 22.77l1.898-.633c-3.374-10.12-8.188-18.02-14.484-23.63l-1.33 1.493zM75.653 32.32C78.944 42.063 80.6 53.285 80.6 66h2c0-12.885-1.677-24.33-5.053-34.32l-1.894.64zM80.6 66c0 12.577-1.721 23.728-5.143 33.469l1.887.662C80.854 90.138 82.6 78.757 82.6 66h-2zm-5.146 33.476c-3.291 9.611-7.943 17.051-13.92 22.377l1.331 1.494c6.29-5.607 11.106-13.367 14.481-23.223l-1.892-.648zm-13.91 22.369c-5.958 5.181-12.727 7.755-20.344 7.755v2c8.116 0 15.347-2.76 21.656-8.245l-1.312-1.51zM43.6 128.8c4.235 0 7.952-1.366 11.104-4.094 3.133-2.71 5.662-6.723 7.632-11.954l-1.872-.704c-1.896 5.036-4.268 8.723-7.068 11.146-2.781 2.406-6.031 3.606-9.796 3.606v2zm18.733-16.041C66.398 102.191 68.4 87.382 68.4 68.4h-2c0 18.884-1.998 33.409-5.933 43.641l1.866.718zM68.4 68.4c0-21.387-2.602-37.76-7.895-49.025l-1.81.85C63.802 31.095 66.4 47.12 66.4 68.4h2zm-7.895-49.025C55.23 8.148 48.228 2.2 39.4 2.2v2c7.705 0 14.17 5.118 19.295 16.025l1.81-.85zM39.4 2.2c-8.595 0-15.06 5.924-19.528 17.027l1.856.746C26.06 9.21 31.995 4.2 39.4 4.2v-2zM19.868 19.236C15.538 30.334 13.4 45.274 13.4 64h2c0-18.607 2.129-33.267 6.332-44.037l-1.864-.727zM13.4 64c0 19.671 2.607 35.365 7.89 47.013l1.82-.826C17.994 98.902 15.4 83.529 15.4 64h-2zm7.89 47.013C26.577 122.674 33.988 128.8 43.6 128.8v-2c-8.522 0-15.378-5.341-20.49-16.613l-1.82.826zM135.994 60.6l-.347-.938.288 1.936.059-.998zm21 10l-.771.637.771-.637zm2.8 42l.869.496.005-.009-.874-.487zm-13.4 13.2l.472.882.008-.004.008-.005-.488-.873zm-51.8-10.4l-.894.447.063.126.095.104.736-.677zm-.2-.4h-1v.236l.106.211.894-.447zm.8-1.2l.448.894.034-.017.033-.02-.515-.857zm1.4 0l-.832.555.045.067.054.058.733-.68zm12.4 8.4l-.362.932.008.003.354-.935zm35-5.6l.787.618.007-.009-.794-.609zm-30.4-53.8l-.948.316.074.224.167.167.707-.707zm0-2.2l-.832-.555-.034.052-.028.056.894.447zm25.6-7.6l-.687-.727.687.727zm1.4-37.8l-.74.673.006.005.005.006.729-.684zm-32.8-2.4l.476.88.008-.005-.484-.875zm-11 11.8l-.908-.42-.092.2v.22h1zm-1.8-.2l-.554.832.051.035.056.027.447-.894zm-.4-.8l.895.447.013-.027.012-.028-.92-.392zm13.6-16.8l.555.832-.555-.832zm43.2 2l-.707.707.009.009.698-.716zm1.6 39l-.815-.58-.002.004.817.576zm-17.059 13.798c8.694.52 15.421 3.747 20.288 9.639l1.542-1.274c-5.266-6.375-12.539-9.814-21.711-10.361l-.119 1.996zm20.288 9.639c4.903 5.935 7.371 13.17 7.371 21.763h2c0-9.006-2.598-16.705-7.829-23.037l-1.542 1.274zM163.595 93c0 7.183-1.565 13.545-4.673 19.113l1.747.974c3.292-5.899 4.926-12.603 4.926-20.087h-2zm-4.668 19.104c-3.108 5.439-7.442 9.71-13.019 12.823l.975 1.746c5.889-3.287 10.489-7.816 13.781-13.577l-1.737-.992zm-13.003 12.814c-5.573 2.981-11.875 4.482-18.929 4.482v2c7.347 0 13.978-1.566 19.872-4.718l-.943-1.764zm-18.929 4.482c-12.091 0-22.633-4.861-31.664-14.677l-1.472 1.354c9.37 10.184 20.428 15.323 33.136 15.323v-2zM95.49 114.953l-.2-.4-1.79.894.2.4 1.79-.894zm-.095.047c0-.092.02-.127.032-.145.016-.025.067-.087.215-.161l-.894-1.788a2.503 2.503 0 00-.985.839 2.23 2.23 0 00-.368 1.255h2zm.315-.343a1.65 1.65 0 01.28-.139c.065-.023.08-.018.055-.018a.365.365 0 01-.166-.047.343.343 0 01-.116-.098l1.664-1.11a1.626 1.626 0 00-1.382-.745c-.498 0-.968.205-1.364.443l1.029 1.714zm.153-.177c3.57 3.846 7.831 6.731 12.77 8.652l.725-1.864c-4.661-1.813-8.667-4.527-12.03-8.148l-1.466 1.36zm12.778 8.655c5.039 1.907 10.092 2.865 15.154 2.865v-2c-4.804 0-9.618-.908-14.446-2.735l-.708 1.87zM123.795 126c9.282 0 16.347-2.877 20.987-8.782l-1.573-1.236c-4.16 5.295-10.562 8.018-19.414 8.018v2zm20.994-8.791c4.565-5.949 6.806-13.579 6.806-22.809h-2c0 8.903-2.158 16.073-6.393 21.591l1.587 1.218zm6.806-22.809c0-10.598-3.098-18.716-9.449-24.16-6.321-5.418-15.698-8.04-27.951-8.04v2c12.014 0 20.838 2.578 26.65 7.56 5.782 4.956 8.75 12.438 8.75 22.64h2zm-37.4-32.2a.7.7 0 01.259.046c.04.017.056.029.046.022a2.253 2.253 0 01-.198-.175l-1.414 1.414c.157.157.326.307.503.425.149.1.437.268.804.268v-2zm.349.284a2.782 2.782 0 01-.149-.884h-2c0 .513.086 1.02.252 1.516l1.897-.632zm-.149-.884c0-.295.05-.464.095-.553l-1.789-.894c-.222.444-.306.942-.306 1.447h2zm.032-.445c.057-.085.105-.152.145-.204.041-.052.068-.081.08-.094.016-.016-.002.007-.055.038a.782.782 0 01-.402.105v-2c-.279 0-.496.102-.627.18a1.75 1.75 0 00-.33.263c-.168.168-.326.38-.475.602l1.664 1.11zm-.232-.155c11.818 0 20.473-2.34 25.688-7.273l-1.375-1.453c-4.652 4.4-12.663 6.726-24.313 6.726v2zm25.688-7.273c5.175-4.896 7.712-11.65 7.712-20.127h-2c0 8.056-2.396 14.236-7.087 18.673l1.375 1.453zm7.712-20.127c0-8.16-2.041-14.573-6.27-19.084l-1.459 1.368c3.771 4.022 5.729 9.875 5.729 17.716h2zm-6.26-19.073c-4.229-4.651-10.122-6.927-17.54-6.927v2c6.983 0 12.289 2.124 16.06 6.273l1.48-1.346zM123.795 7.6c-5.775 0-11.274 1.446-16.483 4.325l.967 1.75c4.924-2.72 10.091-4.075 15.516-4.075v-2zm-16.475 4.32c-5.128 2.772-8.944 6.87-11.433 12.26l1.816.84c2.312-5.01 5.829-8.779 10.568-11.34l-.951-1.76zM95.795 24.6a.846.846 0 01.453-.744c.142-.072.23-.056.147-.056v2c.185 0 .472-.018.748-.156a1.154 1.154 0 00.653-1.044h-2zm.6-.8c-.187 0-.495-.066-.953-.294l-.894 1.788c.61.305 1.235.506 1.847.506v-2zm-.845-.232a.69.69 0 01-.098-.075c-.01-.01.012.009.038.06a.558.558 0 01.055.247.558.558 0 01-.055.247l-1.79-.894c-.207.415-.207.88 0 1.294.18.357.475.608.74.785l1.11-1.664zm-.035.424c2.998-7.037 7.411-12.477 13.235-16.36l-1.109-1.664c-6.176 4.117-10.83 9.877-13.966 17.24l1.84.784zm13.235-16.36c5.818-3.879 12.62-5.832 20.445-5.832v-2c-8.175 0-15.372 2.047-21.554 6.168l1.109 1.664zM129.195 1.8c9.273 0 16.392 2.606 21.493 7.707l1.414-1.414C146.536 2.527 138.856-.2 129.195-.2v2zm21.502 7.716c5.129 5 7.698 11.27 7.698 18.884h2c0-8.12-2.763-14.916-8.302-20.316l-1.396 1.432zm7.698 18.884c0 6.712-2.06 12.979-6.215 18.82l1.63 1.16c4.379-6.159 6.585-12.826 6.585-19.98h-2zm-6.217 18.824c-4.009 5.69-9.506 9.837-16.53 12.438l.695 1.876c7.375-2.732 13.212-7.118 17.47-13.162l-1.635-1.152z" fill="#583D2B"/></svg>