<svg width="298" height="183" fill="none" xmlns="http://www.w3.org/2000/svg"><path d="M1 151l7.75 7.75c13.117 13.117 34.383 13.117 47.5 0v0c13.117-13.117 34.383-13.117 47.5 0v0c13.117 13.117 34.383 13.117 47.5 0v0c13.117-13.117 34.383-13.117 47.5 0v0c13.117 13.117 34.383 13.117 47.5 0v0c13.117-13.117 34.383-13.117 47.5 0l3.75 3.75M1 106l7.75 7.75c13.117 13.117 34.383 13.117 47.5 0v0c13.117-13.117 34.383-13.117 47.5 0v0c13.117 13.117 34.383 13.117 47.5 0v0c13.117-13.117 34.383-13.117 47.5 0v0c13.117 13.117 34.383 13.117 47.5 0v0c13.117-13.117 34.383-13.117 47.5 0l3.75 3.75M1 61l7.75 7.75c13.117 13.117 34.383 13.117 47.5 0v0c13.117-13.117 34.383-13.117 47.5 0v0c13.117 13.117 34.383 13.117 47.5 0v0c13.117-13.117 34.383-13.117 47.5 0v0c13.117 13.117 34.383 13.117 47.5 0v0c13.117-13.117 34.383-13.117 47.5 0l3.75 3.75M1 16l7.75 7.75c13.117 13.117 34.383 13.117 47.5 0v0c13.117-13.117 34.383-13.117 47.5 0v0c13.117 13.117 34.383 13.117 47.5 0v0c13.117-13.117 34.383-13.117 47.5 0v0c13.117 13.117 34.383 13.117 47.5 0v0c13.117-13.117 34.383-13.117 47.5 0l3.75 3.75" stroke="#FF862F"/></svg>