<svg width="127" height="51" viewBox="0 0 127 51" fill="none" xmlns="http://www.w3.org/2000/svg">
<path d="M15.9055 12.9733C15.9055 13.0487 15.8417 13.0989 15.7143 13.124C15.5868 13.124 15.5104 13.0863 15.4849 13.011C15.4084 11.6797 15.0006 10.6499 14.2614 9.92151C13.5222 9.16797 12.5409 8.79121 11.3174 8.79121H8.98506C8.11842 8.79121 7.46843 8.854 7.03511 8.97959C6.60179 9.10518 6.29592 9.33124 6.11749 9.65777C5.96455 9.9843 5.88808 10.4615 5.88808 11.0895V19.3407H9.74975C11.1007 19.3407 12.0565 19.1397 12.6173 18.7378C13.2036 18.3108 13.4967 17.6327 13.4967 16.7033C13.4967 16.6531 13.5732 16.6279 13.7261 16.6279C13.8791 16.6279 13.9555 16.6531 13.9555 16.7033L13.9173 19.7551C13.9173 20.4835 13.93 21.0361 13.9555 21.4129L13.9938 23.2214C13.9938 23.2716 13.9173 23.2967 13.7643 23.2967C13.6114 23.2967 13.5349 23.2716 13.5349 23.2214C13.5349 22.1162 13.2291 21.325 12.6173 20.8477C12.0311 20.3705 11.037 20.1319 9.63504 20.1319H5.88808V28.3454C5.88808 29.1491 5.99004 29.7394 6.19396 30.1162C6.42336 30.4678 6.85669 30.719 7.49392 30.8697C8.13116 31.0204 9.138 31.0958 10.5144 31.0958C10.5909 31.0958 10.6291 31.1711 10.6291 31.3218C10.6291 31.4725 10.5909 31.5479 10.5144 31.5479C9.46936 31.5479 8.6537 31.5353 8.06744 31.5102L4.62635 31.4725L2.02642 31.5102C1.56761 31.5353 0.917623 31.5479 0.0764685 31.5479C0.0254895 31.5479 0 31.4725 0 31.3218C0 31.1711 0.0254895 31.0958 0.0764685 31.0958C1.04507 31.0958 1.75878 31.033 2.21759 30.9074C2.6764 30.7818 2.98228 30.5432 3.13521 30.1915C3.31364 29.8148 3.40285 29.2496 3.40285 28.4961V11.0518C3.40285 10.2983 3.31364 9.74568 3.13521 9.39403C2.98228 9.04239 2.6764 8.80377 2.21759 8.67818C1.78427 8.52747 1.08331 8.45212 0.114703 8.45212C0.0637237 8.45212 0.0382341 8.37677 0.0382341 8.22606C0.0382341 8.07535 0.0637237 8 0.114703 8H15.4849C15.7143 8 15.829 8.11303 15.829 8.33909L15.9055 12.9733Z" fill="#583D2B"/>
<path d="M22.3972 12.2575C21.862 12.2575 21.4414 12.1193 21.1355 11.843C20.8551 11.5667 20.7149 11.1774 20.7149 10.675C20.7149 10.1727 20.8551 9.78336 21.1355 9.50706C21.4414 9.23077 21.862 9.09262 22.3972 9.09262C22.907 9.09262 23.3021 9.23077 23.5825 9.50706C23.8629 9.78336 24.0031 10.1727 24.0031 10.675C24.0031 11.1774 23.8629 11.5667 23.5825 11.843C23.3021 12.1193 22.907 12.2575 22.3972 12.2575ZM19.1856 31.5479C19.1346 31.5479 19.1091 31.4725 19.1091 31.3218C19.1091 31.1711 19.1346 31.0958 19.1856 31.0958C19.8738 31.0958 20.3836 31.033 20.7149 30.9074C21.0718 30.7567 21.3139 30.5055 21.4414 30.1538C21.5688 29.7771 21.6325 29.2245 21.6325 28.4961V21.4506C21.6325 20.5463 21.5306 19.8932 21.3267 19.4914C21.1482 19.0895 20.8296 18.8885 20.3708 18.8885C19.912 18.8885 19.3385 19.0644 18.6503 19.416H18.612C18.5101 19.416 18.4336 19.3532 18.3826 19.2276C18.3317 19.102 18.3444 19.0141 18.4209 18.9639L23.3913 16.7033L23.5443 16.6656C23.5952 16.6656 23.659 16.7033 23.7354 16.7787C23.8119 16.8289 23.8501 16.8917 23.8501 16.967C23.8501 17.1429 23.8374 17.6452 23.8119 18.4741C23.7864 19.303 23.7737 20.2826 23.7737 21.4129V28.4961C23.7737 29.2496 23.8374 29.8022 23.9648 30.1538C24.0923 30.5055 24.3217 30.7567 24.6531 30.9074C24.9844 31.033 25.4942 31.0958 26.1824 31.0958C26.2589 31.0958 26.2971 31.1711 26.2971 31.3218C26.2971 31.4725 26.2589 31.5479 26.1824 31.5479C25.5962 31.5479 25.1246 31.5353 24.7678 31.5102L22.7031 31.4725L20.6385 31.5102C20.2816 31.5353 19.7973 31.5479 19.1856 31.5479Z" fill="#583D2B"/>
<path d="M38.74 29.5887C38.842 29.5887 38.9184 29.6515 38.9694 29.7771C39.0204 29.8776 39.0076 29.9529 38.9312 30.0031C37.9881 30.7316 37.1342 31.2465 36.3695 31.5479C35.6303 31.8493 34.8529 32 34.0372 32C32.9666 32 32.0872 31.7614 31.399 31.2841C30.7108 30.8069 30.3667 30.0157 30.3667 28.9105V20.0565C30.3667 19.4035 30.3157 18.9388 30.2138 18.6625C30.1373 18.3862 29.9716 18.2104 29.7167 18.135C29.4618 18.0345 29.0285 17.9843 28.4167 17.9843C28.3148 17.9843 28.2638 17.9089 28.2638 17.7582C28.2638 17.5824 28.3148 17.4945 28.4167 17.4945C29.4363 17.4694 30.2647 17.2057 30.902 16.7033C31.5392 16.1758 31.9088 15.4851 32.0108 14.6311C32.0108 14.5557 32.1127 14.5181 32.3166 14.5181C32.4951 14.5181 32.5843 14.5557 32.5843 14.6311V17.4192C33.8588 17.394 35.6303 17.2684 37.8989 17.0424C37.9498 17.0424 38.0008 17.1429 38.0518 17.3438C38.1283 17.5196 38.1665 17.7206 38.1665 17.9466C38.1665 18.1476 38.1155 18.3611 38.0136 18.5871C37.9371 18.7881 37.8479 18.876 37.7459 18.8509C36.344 18.4992 34.6234 18.2983 32.5843 18.248V27.6295C32.5843 28.6593 32.8392 29.4254 33.349 29.9278C33.8843 30.4301 34.6362 30.6813 35.6048 30.6813C36.7263 30.6813 37.7459 30.3297 38.6635 29.6264L38.74 29.5887Z" fill="#583D2B"/>
<path d="M79.9746 31.0958C80.052 31.0958 80.0907 31.1711 80.0907 31.3218C80.0907 31.4725 80.052 31.5479 79.9746 31.5479C79.1753 31.5479 78.5436 31.5353 78.0795 31.5102L75.4108 31.4725L72.9354 31.5102C72.5229 31.5353 71.9427 31.5479 71.195 31.5479C71.1434 31.5479 71.1176 31.4725 71.1176 31.3218C71.1176 31.1711 71.1434 31.0958 71.195 31.0958C72.0717 31.0958 72.7163 31.033 73.1288 30.9074C73.5672 30.7567 73.8508 30.5055 73.9797 30.1538C74.1344 29.8022 74.186 29.2496 74.1344 28.4961L73.4382 11.3532L64.6199 31.2841C64.5683 31.3846 64.4652 31.4349 64.3105 31.4349C64.1816 31.4349 64.0655 31.3846 63.9624 31.2841L54.4479 11.5793L54.0998 27.4411C54.074 28.7724 54.306 29.7143 54.7959 30.2669C55.2859 30.8195 56.1496 31.0958 57.3873 31.0958C57.4389 31.0958 57.4647 31.1711 57.4647 31.3218C57.4647 31.4725 57.4389 31.5479 57.3873 31.5479C56.6653 31.5479 56.111 31.5353 55.7242 31.5102L53.6356 31.4725L51.6244 31.5102C51.2634 31.5353 50.7478 31.5479 50.0774 31.5479C50.0258 31.5479 50 31.4725 50 31.3218C50 31.1711 50.0258 31.0958 50.0774 31.0958C51.1603 31.0958 51.9338 30.8195 52.398 30.2669C52.8879 29.6892 53.1457 28.7473 53.1715 27.4411L53.5196 9.95918C52.7461 8.95447 51.6889 8.45212 50.3481 8.45212C50.2965 8.45212 50.2707 8.37677 50.2707 8.22606C50.2707 8.07535 50.2965 8 50.3481 8L51.7791 8.03768C52.037 8.06279 52.398 8.07535 52.8621 8.07535C53.3262 8.07535 53.713 8.06279 54.0224 8.03768C54.3576 8.01256 54.6155 8 54.7959 8C55.1311 8 55.4019 8.12559 55.6082 8.37677C55.8402 8.60283 56.1625 9.1303 56.5751 9.95918L65.2 27.6672L73.6316 8.94191C73.9153 8.31397 74.302 8 74.7919 8C74.9209 8 75.1013 8.01256 75.3334 8.03768C75.5913 8.06279 75.9265 8.07535 76.339 8.07535L78.1568 8.03768C78.4405 8.01256 78.8659 8 79.4332 8C79.5105 8 79.5492 8.07535 79.5492 8.22606C79.5492 8.37677 79.5105 8.45212 79.4332 8.45212C78.1439 8.45212 77.2157 8.6405 76.6484 9.01727C76.1069 9.36891 75.8491 10.0471 75.8749 11.0518L76.6484 28.4961C76.6742 29.2747 76.7645 29.8399 76.9192 30.1915C77.0997 30.5432 77.4091 30.7818 77.8474 30.9074C78.2858 31.033 78.9948 31.0958 79.9746 31.0958Z" fill="#FF862F"/>
<path d="M96.1779 29.5133C96.281 29.5133 96.3455 29.5761 96.3713 29.7017C96.397 29.8022 96.3584 29.8776 96.2552 29.9278L92.2715 31.7739C92.1684 31.8242 92.0652 31.8493 91.9621 31.8493C91.6269 31.8493 91.3304 31.6358 91.0725 31.2088C90.8147 30.7567 90.6471 30.1538 90.5697 29.4003L88.5585 30.6813C87.9139 31.0832 87.3466 31.3721 86.8567 31.5479C86.3668 31.7237 85.8511 31.8116 85.3096 31.8116C84.3556 31.8116 83.6079 31.573 83.0664 31.0958C82.5507 30.5934 82.2928 29.9655 82.2928 29.2119C82.2928 28.4584 82.6023 27.8053 83.2211 27.2527C83.8399 26.7002 84.8584 26.1727 86.2766 25.6703L90.531 24.1256V21.5636C90.531 18.7504 89.7188 17.3438 88.0944 17.3438C87.2177 17.3438 86.5473 17.6327 86.0832 18.2104C85.6448 18.763 85.3483 19.4035 85.1936 20.1319C85.1163 20.584 84.9744 20.9608 84.7682 21.2622C84.5619 21.5385 84.2138 21.6766 83.7239 21.6766C83.3113 21.6766 82.989 21.5636 82.757 21.3375C82.5507 21.1115 82.4476 20.8477 82.4476 20.5463C82.4476 19.9435 82.8472 19.3407 83.6465 18.7378C84.4459 18.135 85.3999 17.6327 86.5086 17.2308C87.6174 16.8289 88.6101 16.6279 89.4868 16.6279C90.5439 16.6279 91.3433 16.9545 91.8847 17.6075C92.4262 18.2606 92.6969 19.2025 92.6969 20.4333V27.4788C92.6969 28.3579 92.813 28.9984 93.045 29.4003C93.2771 29.8022 93.6639 30.0031 94.2053 30.0031C94.6953 30.0031 95.327 29.8399 96.1005 29.5133H96.1779ZM90.531 28.8728V28.6845V24.6531L86.9341 26.0094C86.2121 26.2857 85.6835 26.6122 85.3483 26.989C85.0389 27.3407 84.8842 27.7677 84.8842 28.27C84.8842 28.8728 85.0776 29.3878 85.4644 29.8148C85.8769 30.2166 86.4055 30.4176 87.0501 30.4176C87.5658 30.4176 88.1846 30.2166 88.9066 29.8148L90.531 28.8728Z" fill="#FF862F"/>
<path d="M107.585 29.5887C107.689 29.5887 107.766 29.6515 107.818 29.7771C107.869 29.8776 107.856 29.9529 107.779 30.0031C106.825 30.7316 105.961 31.2465 105.187 31.5479C104.44 31.8493 103.653 32 102.828 32C101.745 32 100.856 31.7614 100.159 31.2841C99.4633 30.8069 99.1152 30.0157 99.1152 28.9105V20.0565C99.1152 19.4035 99.0636 18.9388 98.9605 18.6625C98.8831 18.3862 98.7155 18.2104 98.4577 18.135C98.1999 18.0345 97.7615 17.9843 97.1427 17.9843C97.0395 17.9843 96.988 17.9089 96.988 17.7582C96.988 17.5824 97.0395 17.4945 97.1427 17.4945C98.1741 17.4694 99.0121 17.2057 99.6567 16.7033C100.301 16.1758 100.675 15.4851 100.778 14.6311C100.778 14.5557 100.881 14.5181 101.088 14.5181C101.268 14.5181 101.358 14.5557 101.358 14.6311V17.4192C102.648 17.394 104.44 17.2684 106.735 17.0424C106.786 17.0424 106.838 17.1429 106.889 17.3438C106.967 17.5196 107.005 17.7206 107.005 17.9466C107.005 18.1476 106.954 18.3611 106.851 18.5871C106.773 18.7881 106.683 18.876 106.58 18.8509C105.162 18.4992 103.421 18.2983 101.358 18.248V27.6295C101.358 28.6593 101.616 29.4254 102.132 29.9278C102.673 30.4301 103.434 30.6813 104.414 30.6813C105.548 30.6813 106.58 30.3297 107.508 29.6264L107.585 29.5887Z" fill="#FF862F"/>
<path d="M121.737 29.438C121.814 29.438 121.879 29.4882 121.93 29.5887C122.008 29.6641 122.021 29.7394 121.969 29.8148C120.267 31.2716 118.385 32 116.322 32C114.827 32 113.55 31.6609 112.493 30.9827C111.436 30.3046 110.624 29.4129 110.057 28.3077C109.515 27.2025 109.244 26.022 109.244 24.7661C109.244 23.2841 109.605 21.9278 110.327 20.697C111.049 19.4411 112.029 18.4615 113.267 17.7582C114.53 17.0298 115.91 16.6656 117.405 16.6656C118.849 16.6656 119.958 17.0424 120.731 17.7959C121.505 18.5495 121.892 19.6044 121.892 20.9608C121.892 21.3124 121.853 21.5636 121.776 21.7143C121.724 21.865 121.621 21.9403 121.466 21.9403L111.874 21.978C111.823 22.5306 111.797 22.9827 111.797 23.3344C111.797 25.5196 112.326 27.2904 113.383 28.6468C114.44 30.0031 115.923 30.6813 117.831 30.6813C118.604 30.6813 119.262 30.5809 119.803 30.3799C120.37 30.179 121.002 29.865 121.698 29.438H121.737ZM116.129 17.4192C115.02 17.4192 114.105 17.7834 113.383 18.5118C112.661 19.2151 112.184 20.2072 111.952 21.4882L119.3 21.3375C119.3 20.0565 119.017 19.0895 118.449 18.4364C117.882 17.7582 117.109 17.4192 116.129 17.4192Z" fill="#FF862F"/>
<path fill-rule="evenodd" clip-rule="evenodd" d="M118.187 41.7273L127 51V0H45V41.7273H118.187ZM46.5327 40.1818H118.841L125.467 47.1537V1.54545H46.5327V40.1818Z" fill="#FF862F"/>
</svg>
