<svg width="158" height="131" viewBox="0 0 158 131" fill="none" xmlns="http://www.w3.org/2000/svg">
<path opacity="0.1" d="M19.8 122.4L19.1346 123.147L19.1426 123.154L19.8 122.4ZM5.4 99.4L4.45254 99.7201L4.45654 99.7315L5.4 99.4ZM5.6 31.8L6.54204 32.1355L6.54346 32.1315L5.6 31.8ZM20 8.8L19.3426 8.04639L19.3346 8.05348L20 8.8ZM62.4 8.8L61.7265 9.53924L61.7346 9.54651L62.4 8.8ZM76.6 32L75.6513 32.3162L75.6526 32.3201L76.6 32ZM76.4 99.8L75.4565 99.4685L75.4539 99.476L76.4 99.8ZM62.2 122.6L62.8562 123.355L62.8654 123.347L62.2 122.6ZM61.4 112.4L60.4666 112.041L60.4642 112.048L61.4 112.4ZM59.6 19.8L58.6949 20.2253L59.6 19.8ZM20.8 19.6L19.8723 19.2266L19.8684 19.2364L20.8 19.6ZM22.2 110.6L21.2893 111.013L22.2 110.6ZM41.2 129.6C33.4519 129.6 26.5498 126.961 20.4574 121.646L19.1426 123.154C25.5836 128.772 32.9481 131.6 41.2 131.6V129.6ZM20.4654 121.653C14.4883 116.326 9.76902 108.818 6.34346 99.0685L4.45654 99.7315C7.96432 109.715 12.8451 117.541 19.1346 123.147L20.4654 121.653ZM6.3474 99.0799C3.05583 89.3369 1.4 78.1151 1.4 65.4H-0.599999C-0.599999 78.2849 1.07751 89.7298 4.45261 99.7201L6.3474 99.0799ZM1.4 65.4C1.4 52.8227 3.12128 41.7399 6.54204 32.1355L4.65797 31.4645C1.14538 41.3267 -0.599999 52.6439 -0.599999 65.4H1.4ZM6.54346 32.1315C9.96902 22.3818 14.6883 14.8739 20.6654 9.54651L19.3346 8.05348C13.0451 13.6594 8.16432 21.4848 4.65654 31.4685L6.54346 32.1315ZM20.6574 9.55357C26.7464 4.24187 33.7143 1.59999 41.6 1.59999V-0.400005C33.2191 -0.400005 25.7869 2.42479 19.3426 8.04643L20.6574 9.55357ZM41.6 1.59999C49.2089 1.59999 55.9042 4.23444 61.7265 9.53919L63.0735 8.0608C56.8958 2.43222 49.7244 -0.400005 41.6 -0.400005V1.59999ZM61.7346 9.54651C67.7057 14.8685 72.3579 22.436 75.6513 32.3162L77.5487 31.6838C74.1754 21.564 69.361 13.6648 63.0654 8.05348L61.7346 9.54651ZM75.6526 32.3201C78.9442 42.0631 80.6 53.2849 80.6 66H82.6C82.6 53.1152 80.9225 41.6702 77.5474 31.6799L75.6526 32.3201ZM80.6 66C80.6 78.5769 78.8788 89.7281 75.4565 99.4685L77.3435 100.131C80.8545 90.1385 82.6 78.7565 82.6 66H80.6ZM75.4539 99.476C72.1625 109.087 67.5111 116.527 61.5346 121.853L62.8654 123.347C69.1555 117.74 73.9709 109.98 77.3461 100.124L75.4539 99.476ZM61.5438 121.845C55.5859 127.026 48.8169 129.6 41.2 129.6V131.6C49.3165 131.6 56.5475 128.84 62.8562 123.355L61.5438 121.845ZM43.6 128.8C47.8351 128.8 51.552 127.434 54.7043 124.706C57.8372 121.996 60.3659 117.983 62.3358 112.752L60.4642 112.048C58.5675 117.084 56.1962 120.771 53.3957 123.194C50.6147 125.6 47.3649 126.8 43.6 126.8V128.8ZM62.3334 112.759C66.3978 102.191 68.4 87.3825 68.4 68.4H66.4C66.4 87.2842 64.4022 101.809 60.4667 112.041L62.3334 112.759ZM68.4 68.4C68.4 47.0134 65.798 30.6391 60.5051 19.3747L58.6949 20.2253C63.8021 31.0943 66.4 47.1199 66.4 68.4H68.4ZM60.5051 19.3747C55.2299 8.14817 48.2281 2.2 39.4 2.2V4.2C47.1052 4.2 53.5701 9.31849 58.6949 20.2253L60.5051 19.3747ZM39.4 2.2C30.8053 2.2 24.3404 8.12424 19.8723 19.2266L21.7277 19.9733C26.0597 9.20908 31.9947 4.2 39.4 4.2V2.2ZM19.8684 19.2364C15.5378 30.3337 13.4 45.2737 13.4 64H15.4C15.4 45.3929 17.5289 30.733 21.7316 19.9635L19.8684 19.2364ZM13.4 64C13.4 83.6713 16.0068 99.3645 21.2893 111.013L23.1107 110.187C17.9932 98.9021 15.4 83.5287 15.4 64H13.4ZM21.2893 111.013C26.5775 122.674 33.9888 128.8 43.6 128.8V126.8C35.0778 126.8 28.2225 121.459 23.1107 110.187L21.2893 111.013ZM115.395 124.6L115.608 125.577L115.628 125.573L115.648 125.568L115.395 124.6ZM121.795 120.6L120.982 120.019L120.967 120.039L120.954 120.059L121.795 120.6ZM100.595 28.4L101.043 29.2944L101.123 29.2541L101.195 29.2L100.595 28.4ZM100.195 28.6V29.6H100.431L100.643 29.4944L100.195 28.6ZM98.9953 27.6L99.9238 27.2286L98.9953 27.6ZM99.3953 26.2L99.8425 27.0944L99.9193 27.0561L99.9883 27.0052L99.3953 26.2ZM132.795 1.59999L132.281 0.742504L132.24 0.766804L132.202 0.794819L132.795 1.59999ZM134.995 1.4L134.288 2.10709L134.288 2.10711L134.995 1.4ZM136.995 120.8L136.113 121.271L136.12 121.283L136.127 121.296L136.995 120.8ZM145.995 127.8L146.043 126.801L146.025 126.8L146.008 126.8L145.995 127.8ZM129.595 127.6L129.608 126.6L129.595 126.6L129.583 126.6L129.595 127.6ZM113.395 127.8L113.383 126.8L113.366 126.8L113.35 126.801L113.395 127.8ZM101.395 127C101.49 127 101.594 127.019 101.695 127.062C101.796 127.105 101.873 127.163 101.927 127.218C102.028 127.318 102.05 127.403 102.044 127.384C102.04 127.372 102.026 127.322 102.014 127.215C102.003 127.111 101.995 126.974 101.995 126.8H99.9953C99.9953 127.229 100.028 127.66 100.147 128.016C100.257 128.347 100.598 129 101.395 129V127ZM101.995 126.8C101.995 126.626 102.003 126.489 102.014 126.385C102.026 126.278 102.04 126.228 102.044 126.216C102.05 126.197 102.028 126.282 101.927 126.382C101.873 126.437 101.796 126.495 101.695 126.538C101.594 126.581 101.49 126.6 101.395 126.6V124.6C100.598 124.6 100.257 125.253 100.147 125.584C100.028 125.94 99.9953 126.371 99.9953 126.8H101.995ZM101.395 126.6C107.678 126.6 112.432 126.268 115.608 125.577L115.183 123.623C112.225 124.266 107.646 124.6 101.395 124.6V126.6ZM115.648 125.568C118.854 124.731 121.252 123.294 122.636 121.141L120.954 120.059C119.938 121.639 118.07 122.869 115.143 123.632L115.648 125.568ZM122.609 121.181C124.124 119.06 124.795 115.871 124.795 111.8H122.795C122.795 115.729 122.133 118.407 120.982 120.019L122.609 121.181ZM124.795 111.8V29.4H122.795V111.8H124.795ZM124.795 29.4C124.795 25.8142 124.344 22.974 123.336 20.9961C122.825 19.9927 122.156 19.1824 121.305 18.6257C120.449 18.0655 119.467 17.8 118.395 17.8V19.8C119.124 19.8 119.717 19.9762 120.21 20.2993C120.709 20.6259 121.165 21.1407 121.554 21.9039C122.347 23.4593 122.795 25.9192 122.795 29.4H124.795ZM118.395 17.8C116.466 17.8 113.963 18.7061 110.971 20.3198C107.943 21.9529 104.282 24.3852 99.9953 27.6L101.195 29.2C105.442 26.0148 109.015 23.6471 111.92 22.0802C114.861 20.4939 116.992 19.8 118.395 19.8V17.8ZM100.148 27.5056L99.7481 27.7056L100.643 29.4944L101.043 29.2944L100.148 27.5056ZM100.195 27.6C100.168 27.6 100.157 27.596 100.157 27.5958C100.156 27.5956 100.15 27.5937 100.135 27.5818C100.102 27.554 100.018 27.4633 99.9238 27.2286L98.0668 27.9714C98.2396 28.4034 98.4884 28.8126 98.8551 29.1182C99.2395 29.4386 99.7009 29.6 100.195 29.6V27.6ZM99.9238 27.2286C99.8818 27.1236 99.8676 27.0559 99.8635 27.0207C99.8596 26.9876 99.8656 26.9939 99.8568 27.0247C99.847 27.0592 99.8282 27.0905 99.8102 27.1102C99.7955 27.1264 99.7977 27.1168 99.8425 27.0944L98.9481 25.3056C98.4925 25.5334 98.0946 25.9125 97.9338 26.4753C97.7832 27.0024 97.8891 27.5269 98.0668 27.9714L99.9238 27.2286ZM99.9883 27.0052L133.388 2.40517L132.202 0.794819L98.8023 25.3948L99.9883 27.0052ZM133.31 2.45749C133.622 2.26992 133.863 2.14462 134.039 2.06913C134.24 1.98298 134.271 1.99999 134.195 1.99999V-1.14441e-05C133.853 -1.14441e-05 133.517 0.117004 133.251 0.230846C132.961 0.355362 132.635 0.530071 132.281 0.742504L133.31 2.45749ZM134.195 1.99999C134.156 1.99999 134.137 1.98889 134.148 1.99442C134.164 2.00222 134.212 2.03057 134.288 2.10709L135.702 0.692898C135.327 0.317226 134.821 -1.14441e-05 134.195 -1.14441e-05V1.99999ZM134.288 2.10711C134.365 2.18362 134.393 2.2316 134.401 2.24721C134.406 2.25825 134.395 2.23943 134.395 2.2H136.395C136.395 1.57457 136.078 1.06855 135.702 0.692886L134.288 2.10711ZM134.395 2.2V111.8H136.395V2.2H134.395ZM134.395 111.8C134.395 115.856 134.931 119.054 136.113 121.271L137.878 120.329C136.927 118.546 136.395 115.744 136.395 111.8H134.395ZM136.127 121.296C137.389 123.504 139.769 124.878 142.983 125.577L143.408 123.623C140.489 122.988 138.735 121.829 137.864 120.304L136.127 121.296ZM142.983 125.577C146.16 126.268 151.05 126.6 157.595 126.6V124.6C151.074 124.6 146.364 124.265 143.408 123.623L142.983 125.577ZM157.595 126.6C157.5 126.6 157.397 126.581 157.295 126.538C157.195 126.495 157.118 126.437 157.063 126.382C156.963 126.282 156.94 126.197 156.947 126.216C156.95 126.228 156.965 126.278 156.976 126.385C156.988 126.489 156.995 126.626 156.995 126.8H158.995C158.995 126.371 158.963 125.94 158.844 125.584C158.734 125.253 158.393 124.6 157.595 124.6V126.6ZM156.995 126.8C156.995 126.974 156.988 127.111 156.976 127.215C156.965 127.322 156.95 127.372 156.947 127.384C156.94 127.403 156.963 127.318 157.063 127.218C157.118 127.163 157.195 127.105 157.295 127.062C157.397 127.019 157.5 127 157.595 127V129C158.393 129 158.734 128.347 158.844 128.016C158.963 127.66 158.995 127.229 158.995 126.8H156.995ZM157.595 127C152.668 127 148.82 126.933 146.043 126.801L145.948 128.799C148.771 128.933 152.656 129 157.595 129V127ZM146.008 126.8L129.608 126.6L129.583 128.6L145.983 128.8L146.008 126.8ZM129.583 126.6L113.383 126.8L113.408 128.8L129.608 128.6L129.583 126.6ZM113.35 126.801C110.439 126.933 106.456 127 101.395 127V129C106.468 129 110.485 128.933 113.441 128.799L113.35 126.801Z" fill="#583D2B"/>
</svg>
