<svg width="166" height="131" viewBox="0 0 166 131" fill="none" xmlns="http://www.w3.org/2000/svg">
<path opacity="0.1" d="M19.8 122.4L19.1346 123.147L19.1426 123.154L19.8 122.4ZM5.4 99.4L4.45254 99.7201L4.45654 99.7315L5.4 99.4ZM5.6 31.8L6.54204 32.1355L6.54346 32.1315L5.6 31.8ZM20 8.8L19.3426 8.04639L19.3346 8.05348L20 8.8ZM62.4 8.8L61.7265 9.53924L61.7346 9.54651L62.4 8.8ZM76.6 32L75.6513 32.3162L75.6526 32.3201L76.6 32ZM76.4 99.8L75.4565 99.4685L75.4539 99.476L76.4 99.8ZM62.2 122.6L62.8562 123.355L62.8654 123.347L62.2 122.6ZM61.4 112.4L60.4666 112.041L60.4642 112.048L61.4 112.4ZM59.6 19.8L58.6949 20.2253L59.6 19.8ZM20.8 19.6L19.8723 19.2266L19.8684 19.2364L20.8 19.6ZM22.2 110.6L21.2893 111.013L22.2 110.6ZM41.2 129.6C33.4519 129.6 26.5498 126.961 20.4574 121.646L19.1426 123.154C25.5836 128.772 32.9481 131.6 41.2 131.6V129.6ZM20.4654 121.653C14.4883 116.326 9.76902 108.818 6.34346 99.0685L4.45654 99.7315C7.96432 109.715 12.8451 117.541 19.1346 123.147L20.4654 121.653ZM6.3474 99.0799C3.05583 89.3369 1.4 78.1151 1.4 65.4H-0.599999C-0.599999 78.2849 1.07751 89.7298 4.45261 99.7201L6.3474 99.0799ZM1.4 65.4C1.4 52.8227 3.12128 41.7399 6.54204 32.1355L4.65797 31.4645C1.14538 41.3267 -0.599999 52.6439 -0.599999 65.4H1.4ZM6.54346 32.1315C9.96902 22.3818 14.6883 14.8739 20.6654 9.54651L19.3346 8.05348C13.0451 13.6594 8.16432 21.4848 4.65654 31.4685L6.54346 32.1315ZM20.6574 9.55357C26.7464 4.24187 33.7143 1.59999 41.6 1.59999V-0.400005C33.2191 -0.400005 25.7869 2.42479 19.3426 8.04643L20.6574 9.55357ZM41.6 1.59999C49.2089 1.59999 55.9042 4.23444 61.7265 9.53919L63.0735 8.0608C56.8958 2.43222 49.7244 -0.400005 41.6 -0.400005V1.59999ZM61.7346 9.54651C67.7057 14.8685 72.3579 22.436 75.6513 32.3162L77.5487 31.6838C74.1754 21.564 69.361 13.6648 63.0654 8.05348L61.7346 9.54651ZM75.6526 32.3201C78.9442 42.0631 80.6 53.2849 80.6 66H82.6C82.6 53.1152 80.9225 41.6702 77.5474 31.6799L75.6526 32.3201ZM80.6 66C80.6 78.5769 78.8788 89.7281 75.4565 99.4685L77.3435 100.131C80.8545 90.1385 82.6 78.7565 82.6 66H80.6ZM75.4539 99.476C72.1625 109.087 67.5111 116.527 61.5346 121.853L62.8654 123.347C69.1555 117.74 73.9709 109.98 77.3461 100.124L75.4539 99.476ZM61.5438 121.845C55.5859 127.026 48.8169 129.6 41.2 129.6V131.6C49.3165 131.6 56.5475 128.84 62.8562 123.355L61.5438 121.845ZM43.6 128.8C47.8351 128.8 51.552 127.434 54.7043 124.706C57.8372 121.996 60.3659 117.983 62.3358 112.752L60.4642 112.048C58.5675 117.084 56.1962 120.771 53.3957 123.194C50.6147 125.6 47.3649 126.8 43.6 126.8V128.8ZM62.3334 112.759C66.3978 102.191 68.4 87.3825 68.4 68.4H66.4C66.4 87.2842 64.4022 101.809 60.4667 112.041L62.3334 112.759ZM68.4 68.4C68.4 47.0134 65.798 30.6391 60.5051 19.3747L58.6949 20.2253C63.8021 31.0943 66.4 47.1199 66.4 68.4H68.4ZM60.5051 19.3747C55.2299 8.14817 48.2281 2.2 39.4 2.2V4.2C47.1052 4.2 53.5701 9.31849 58.6949 20.2253L60.5051 19.3747ZM39.4 2.2C30.8053 2.2 24.3404 8.12424 19.8723 19.2266L21.7277 19.9733C26.0597 9.20908 31.9947 4.2 39.4 4.2V2.2ZM19.8684 19.2364C15.5378 30.3337 13.4 45.2737 13.4 64H15.4C15.4 45.3929 17.5289 30.733 21.7316 19.9635L19.8684 19.2364ZM13.4 64C13.4 83.6713 16.0068 99.3645 21.2893 111.013L23.1107 110.187C17.9932 98.9021 15.4 83.5287 15.4 64H13.4ZM21.2893 111.013C26.5775 122.674 33.9888 128.8 43.6 128.8V126.8C35.0778 126.8 28.2225 121.459 23.1107 110.187L21.2893 111.013ZM93.3953 127L92.5378 127.514L92.5724 127.572L92.6144 127.625L93.3953 127ZM93.5953 125.4L94.1953 126.2L94.299 126.122L94.3794 126.021L93.5953 125.4ZM105.195 111.2L105.95 111.856L105.959 111.845L105.968 111.834L105.195 111.2ZM128.195 81.8L129.005 82.3865L128.195 81.8ZM142.395 58L143.298 58.4294L143.301 58.4237L142.395 58ZM141.995 16L141.256 16.6738L141.261 16.6793L141.266 16.6847L141.995 16ZM107.595 15L108.22 15.7809L108.227 15.7755L108.233 15.77L107.595 15ZM97.1953 31.2L96.2431 30.8946L96.1953 31.0435V31.2H97.1953ZM94.9953 30.6L95.9655 30.8425L95.9716 30.8181L95.9764 30.7935L94.9953 30.6ZM107.195 8.6L107.834 9.36956L107.195 8.6ZM152.995 9.19999L152.28 9.89853L152.288 9.90715L152.297 9.91557L152.995 9.19999ZM154.995 54.4L154.107 53.9414L154.995 54.4ZM140.195 77.2L140.973 77.8283L140.195 77.2ZM119.395 101.2L118.656 100.526L118.652 100.531L119.395 101.2ZM112.995 108.2L112.259 107.523L112.258 107.524L112.995 108.2ZM106.395 116.2L107.209 116.781L107.214 116.774L107.219 116.767L106.395 116.2ZM143.995 117L144.051 117.998L144.06 117.998L144.069 117.997L143.995 117ZM159.195 113.4L159.732 114.244L159.746 114.235L159.759 114.226L159.195 113.4ZM163.795 103.8L164.795 103.83L164.795 103.815V103.8H163.795ZM165.995 103.8L166.995 103.809V103.8H165.995ZM165.795 125.8L164.795 125.791V125.8H165.795ZM165.195 127.4L164.395 126.8L164.379 126.822L164.363 126.845L165.195 127.4ZM95.1953 127C94.9144 127 94.5777 126.877 94.1762 126.375L92.6144 127.625C93.2796 128.456 94.1429 129 95.1953 129V127ZM94.2528 126.486C94.1181 126.261 94.142 126.189 94.1376 126.224C94.1351 126.244 94.1272 126.261 94.124 126.266C94.1231 126.267 94.1385 126.243 94.1953 126.2L92.9953 124.6C92.5672 124.921 92.2278 125.378 92.153 125.976C92.082 126.545 92.2725 127.072 92.5378 127.514L94.2528 126.486ZM94.3794 126.021C99.444 119.623 103.299 114.905 105.95 111.856L104.441 110.544C101.758 113.629 97.88 118.377 92.8113 124.779L94.3794 126.021ZM105.968 111.834C115.708 99.9601 123.389 90.1428 129.005 82.3865L127.385 81.2135C121.802 88.9239 114.149 98.7066 104.422 110.566L105.968 111.834ZM129.005 82.3865C134.639 74.6067 139.404 66.621 143.298 58.4294L141.492 57.5706C137.653 65.6457 132.952 73.5266 127.385 81.2135L129.005 82.3865ZM143.301 58.4237C147.216 50.0533 149.195 42.0419 149.195 34.4H147.195C147.195 41.6914 145.308 49.4134 141.49 57.5763L143.301 58.4237ZM149.195 34.4C149.195 26.3585 147.079 19.9516 142.724 15.3153L141.266 16.6847C145.178 20.8484 147.195 26.7082 147.195 34.4H149.195ZM142.734 15.3262C138.371 10.5408 132.277 8.19999 124.595 8.19999V10.2C131.847 10.2 137.353 12.3925 141.256 16.6738L142.734 15.3262ZM124.595 8.19999C117.721 8.19999 111.822 10.1995 106.957 14.23L108.233 15.77C112.702 12.0671 118.137 10.2 124.595 10.2V8.19999ZM106.971 14.2191C102.117 18.1021 98.5553 23.6861 96.2431 30.8946L98.1475 31.5054C100.369 24.5806 103.74 19.3646 108.22 15.7809L106.971 14.2191ZM96.1953 31.2C96.1953 31.0412 96.2373 30.886 96.3146 30.7507C96.3882 30.622 96.4782 30.5378 96.5453 30.4875C96.6114 30.4379 96.6681 30.4113 96.6982 30.3988C96.7296 30.3857 96.7498 30.3806 96.7528 30.3799C96.7563 30.379 96.7306 30.3853 96.6623 30.391C96.5971 30.3964 96.5093 30.4 96.3953 30.4V32.4C96.6824 32.4 96.9821 32.3841 97.2379 32.3201C97.3606 32.2895 97.5582 32.2279 97.7453 32.0875C97.9606 31.926 98.1953 31.6262 98.1953 31.2H96.1953ZM96.3953 30.4C96.1666 30.4 95.9978 30.3854 95.8792 30.3648C95.7551 30.3432 95.7232 30.3213 95.7415 30.3318C95.7695 30.3478 95.8689 30.4165 95.9309 30.5654C95.9919 30.7117 95.9701 30.8238 95.9655 30.8425L94.0252 30.3575C93.9538 30.6429 93.9404 30.9883 94.0847 31.3346C94.2301 31.6835 94.4878 31.9189 94.7492 32.0682C95.2209 32.3378 95.8282 32.4 96.3953 32.4V30.4ZM95.9764 30.7935C97.8072 21.509 101.776 14.3966 107.834 9.36956L106.557 7.83044C100.082 13.2034 95.9168 20.7577 94.0142 30.4065L95.9764 30.7935ZM107.834 9.36956C113.898 4.33778 121.396 1.79999 130.395 1.79999V-0.200008C120.994 -0.200008 113.026 2.46222 106.557 7.83044L107.834 9.36956ZM130.395 1.79999C139.791 1.79999 147.042 4.53341 152.28 9.89853L153.711 8.50145C148.015 2.66658 140.2 -0.200008 130.395 -0.200008V1.79999ZM152.297 9.91557C157.682 15.1729 160.395 21.9709 160.395 30.4H162.395C162.395 21.4958 159.508 14.1604 153.694 8.48442L152.297 9.91557ZM160.395 30.4C160.395 37.9445 158.315 45.788 154.107 53.9414L155.884 54.8586C160.209 46.4787 162.395 38.3222 162.395 30.4H160.395ZM154.107 53.9414C149.87 62.1505 144.973 69.6933 139.417 76.5717L140.973 77.8283C146.618 70.8401 151.588 63.1828 155.884 54.8586L154.107 53.9414ZM139.417 76.5717C133.834 83.4849 126.914 91.4693 118.656 100.526L120.134 101.874C128.41 92.7974 135.357 84.7817 140.973 77.8283L139.417 76.5717ZM118.652 100.531C117.456 101.86 115.326 104.189 112.259 107.523L113.731 108.877C116.798 105.544 118.935 103.207 120.139 101.869L118.652 100.531ZM112.258 107.524C109.311 110.739 107.076 113.445 105.571 115.633L107.219 116.767C108.648 114.689 110.813 112.061 113.732 108.876L112.258 107.524ZM105.582 115.619C105.382 115.898 105.203 116.208 105.109 116.538C105.012 116.877 104.985 117.322 105.227 117.746C105.463 118.159 105.847 118.364 106.167 118.465C106.487 118.567 106.843 118.6 107.195 118.6V116.6C107.077 116.6 106.982 116.594 106.909 116.585C106.835 116.576 106.792 116.566 106.774 116.56C106.754 116.553 106.774 116.557 106.813 116.584C106.854 116.613 106.914 116.668 106.964 116.754C107.014 116.841 107.034 116.928 107.037 116.996C107.041 117.059 107.03 117.092 107.032 117.087C107.033 117.082 107.043 117.053 107.072 116.997C107.102 116.942 107.146 116.87 107.209 116.781L105.582 115.619ZM107.195 118.6C124.529 118.6 136.82 118.4 144.051 117.998L143.94 116.002C136.77 116.4 124.529 116.6 107.195 116.6V118.6ZM144.069 117.997C151.293 117.462 156.576 116.252 159.732 114.244L158.658 112.556C155.948 114.281 151.098 115.471 143.921 116.003L144.069 117.997ZM159.759 114.226C163.02 112.003 164.654 108.464 164.795 103.83L162.796 103.77C162.67 107.936 161.237 110.797 158.632 112.574L159.759 114.226ZM164.795 103.8C164.795 103.961 164.738 104.131 164.626 104.265C164.529 104.382 164.432 104.422 164.417 104.428C164.399 104.435 164.417 104.426 164.49 104.416C164.56 104.407 164.66 104.4 164.795 104.4V102.4C164.425 102.4 164.021 102.433 163.674 102.572C163.492 102.644 163.27 102.768 163.09 102.985C162.894 103.219 162.795 103.506 162.795 103.8H164.795ZM164.795 104.4C164.969 104.4 165.106 104.407 165.21 104.419C165.317 104.431 165.368 104.445 165.379 104.449C165.398 104.455 165.314 104.432 165.213 104.332C165.159 104.277 165.1 104.201 165.057 104.1C165.014 103.999 164.995 103.895 164.995 103.8H166.995C166.995 103.002 166.342 102.662 166.012 102.551C165.655 102.433 165.225 102.4 164.795 102.4V104.4ZM164.995 103.791L164.795 125.791L166.795 125.809L166.995 103.809L164.995 103.791ZM164.795 125.8C164.795 126.068 164.698 126.396 164.395 126.8L165.995 128C166.492 127.337 166.795 126.599 166.795 125.8H164.795ZM164.363 126.845C164.305 126.933 164.237 127 163.995 127V129C164.82 129 165.553 128.667 166.027 127.955L164.363 126.845ZM163.995 127H95.1953V129H163.995V127Z" fill="#583D2B"/>
</svg>
