<svg width="165" height="131" viewBox="0 0 165 131" fill="none" xmlns="http://www.w3.org/2000/svg">
<path opacity="0.1" d="M19.8 122.4L19.1346 123.147L19.1426 123.154L19.8 122.4ZM5.4 99.4L4.45254 99.7201L4.45654 99.7315L5.4 99.4ZM5.6 31.8L6.54204 32.1355L6.54346 32.1315L5.6 31.8ZM20 8.8L19.3426 8.04639L19.3346 8.05348L20 8.8ZM62.4 8.8L61.7265 9.53924L61.7346 9.54651L62.4 8.8ZM76.6 32L75.6513 32.3162L75.6526 32.3201L76.6 32ZM76.4 99.8L75.4565 99.4685L75.4539 99.476L76.4 99.8ZM62.2 122.6L62.8562 123.355L62.8654 123.347L62.2 122.6ZM61.4 112.4L60.4666 112.041L60.4642 112.048L61.4 112.4ZM59.6 19.8L58.6949 20.2253L59.6 19.8ZM20.8 19.6L19.8723 19.2266L19.8684 19.2364L20.8 19.6ZM22.2 110.6L21.2893 111.013L22.2 110.6ZM41.2 129.6C33.4519 129.6 26.5498 126.961 20.4574 121.646L19.1426 123.154C25.5836 128.772 32.9481 131.6 41.2 131.6V129.6ZM20.4654 121.653C14.4883 116.326 9.76902 108.818 6.34346 99.0685L4.45654 99.7315C7.96432 109.715 12.8451 117.541 19.1346 123.147L20.4654 121.653ZM6.3474 99.0799C3.05583 89.3369 1.4 78.1151 1.4 65.4H-0.599999C-0.599999 78.2849 1.07751 89.7298 4.45261 99.7201L6.3474 99.0799ZM1.4 65.4C1.4 52.8227 3.12128 41.7399 6.54204 32.1355L4.65797 31.4645C1.14538 41.3267 -0.599999 52.6439 -0.599999 65.4H1.4ZM6.54346 32.1315C9.96902 22.3818 14.6883 14.8739 20.6654 9.54651L19.3346 8.05348C13.0451 13.6594 8.16432 21.4848 4.65654 31.4685L6.54346 32.1315ZM20.6574 9.55357C26.7464 4.24187 33.7143 1.59999 41.6 1.59999V-0.400005C33.2191 -0.400005 25.7869 2.42479 19.3426 8.04643L20.6574 9.55357ZM41.6 1.59999C49.2089 1.59999 55.9042 4.23444 61.7265 9.53919L63.0735 8.0608C56.8958 2.43222 49.7244 -0.400005 41.6 -0.400005V1.59999ZM61.7346 9.54651C67.7057 14.8685 72.3579 22.436 75.6513 32.3162L77.5487 31.6838C74.1754 21.564 69.361 13.6648 63.0654 8.05348L61.7346 9.54651ZM75.6526 32.3201C78.9442 42.0631 80.6 53.2849 80.6 66H82.6C82.6 53.1152 80.9225 41.6702 77.5474 31.6799L75.6526 32.3201ZM80.6 66C80.6 78.5769 78.8788 89.7281 75.4565 99.4685L77.3435 100.131C80.8545 90.1385 82.6 78.7565 82.6 66H80.6ZM75.4539 99.476C72.1625 109.087 67.5111 116.527 61.5346 121.853L62.8654 123.347C69.1555 117.74 73.9709 109.98 77.3461 100.124L75.4539 99.476ZM61.5438 121.845C55.5859 127.026 48.8169 129.6 41.2 129.6V131.6C49.3165 131.6 56.5475 128.84 62.8562 123.355L61.5438 121.845ZM43.6 128.8C47.8351 128.8 51.552 127.434 54.7043 124.706C57.8372 121.996 60.3659 117.983 62.3358 112.752L60.4642 112.048C58.5675 117.084 56.1962 120.771 53.3957 123.194C50.6147 125.6 47.3649 126.8 43.6 126.8V128.8ZM62.3334 112.759C66.3978 102.191 68.4 87.3825 68.4 68.4H66.4C66.4 87.2842 64.4022 101.809 60.4667 112.041L62.3334 112.759ZM68.4 68.4C68.4 47.0134 65.798 30.6391 60.5051 19.3747L58.6949 20.2253C63.8021 31.0943 66.4 47.1199 66.4 68.4H68.4ZM60.5051 19.3747C55.2299 8.14817 48.2281 2.2 39.4 2.2V4.2C47.1052 4.2 53.5701 9.31849 58.6949 20.2253L60.5051 19.3747ZM39.4 2.2C30.8053 2.2 24.3404 8.12424 19.8723 19.2266L21.7277 19.9733C26.0597 9.20908 31.9947 4.2 39.4 4.2V2.2ZM19.8684 19.2364C15.5378 30.3337 13.4 45.2737 13.4 64H15.4C15.4 45.3929 17.5289 30.733 21.7316 19.9635L19.8684 19.2364ZM13.4 64C13.4 83.6713 16.0068 99.3645 21.2893 111.013L23.1107 110.187C17.9932 98.9021 15.4 83.5287 15.4 64H13.4ZM21.2893 111.013C26.5775 122.674 33.9888 128.8 43.6 128.8V126.8C35.0778 126.8 28.2225 121.459 23.1107 110.187L21.2893 111.013ZM135.995 60.6L135.648 59.6622L135.936 61.5982L135.995 60.6ZM156.995 70.6L156.224 71.2369V71.2369L156.995 70.6ZM159.795 112.6L160.664 113.096L160.669 113.087L159.795 112.6ZM146.395 125.8L146.867 126.682L146.875 126.678L146.883 126.673L146.395 125.8ZM94.5953 115.4L93.7009 115.847L93.7639 115.973L93.8594 116.077L94.5953 115.4ZM94.3953 115H93.3953V115.236L93.5009 115.447L94.3953 115ZM95.1953 113.8L95.6425 114.694L95.6769 114.677L95.7098 114.657L95.1953 113.8ZM96.5953 113.8L95.7633 114.355L95.8078 114.422L95.8625 114.48L96.5953 113.8ZM108.995 122.2L108.633 123.132L108.641 123.135L108.995 122.2ZM143.995 116.6L144.782 117.218L144.789 117.209L143.995 116.6ZM113.595 62.8L112.647 63.1162L112.721 63.3402L112.888 63.5071L113.595 62.8ZM113.595 60.6L112.763 60.0453L112.729 60.0971L112.701 60.1528L113.595 60.6ZM139.195 53L138.508 52.2735L139.195 53ZM140.595 15.2L139.855 15.8727L139.861 15.8783L139.866 15.8839L140.595 15.2ZM107.795 12.8L108.271 13.6797L108.279 13.6752L107.795 12.8ZM96.7953 24.6L95.8874 24.1809L95.7953 24.3804V24.6H96.7953ZM94.9953 24.4L94.4406 25.232L94.4924 25.2666L94.5481 25.2944L94.9953 24.4ZM94.5953 23.6L95.4897 24.0472L95.5034 24.0199L95.5153 23.9919L94.5953 23.6ZM108.195 6.8L108.75 7.63205L108.195 6.8ZM151.395 8.8L150.688 9.50716L150.697 9.516L151.395 8.8ZM152.995 47.8L152.18 47.2205L152.178 47.224L152.995 47.8ZM135.936 61.5982C144.63 62.1173 151.357 65.3453 156.224 71.2369L157.766 69.9631C152.5 63.588 145.227 60.1494 136.055 59.6018L135.936 61.5982ZM156.224 71.2369C161.127 77.1717 163.595 84.4061 163.595 93H165.595C165.595 83.9939 162.997 76.295 157.766 69.9631L156.224 71.2369ZM163.595 93C163.595 100.183 162.03 106.545 158.922 112.113L160.669 113.087C163.961 107.188 165.595 100.484 165.595 93H163.595ZM158.927 112.104C155.819 117.543 151.485 121.814 145.908 124.927L146.883 126.673C152.772 123.386 157.372 118.857 160.664 113.096L158.927 112.104ZM145.924 124.918C140.351 127.899 134.049 129.4 126.995 129.4V131.4C134.342 131.4 140.973 129.834 146.867 126.682L145.924 124.918ZM126.995 129.4C114.904 129.4 104.362 124.539 95.3312 114.723L93.8594 116.077C103.229 126.261 114.287 131.4 126.995 131.4V129.4ZM95.4897 114.953L95.2897 114.553L93.5009 115.447L93.7009 115.847L95.4897 114.953ZM95.3953 115C95.3953 114.908 95.4154 114.873 95.4274 114.855C95.4435 114.83 95.4945 114.768 95.6425 114.694L94.7481 112.906C94.3628 113.098 94.0138 113.37 93.7633 113.745C93.5086 114.127 93.3953 114.558 93.3953 115H95.3953ZM95.7098 114.657C95.8347 114.583 95.9275 114.54 95.9906 114.518C96.0546 114.495 96.0693 114.5 96.0453 114.5C96.0146 114.5 95.9508 114.492 95.879 114.453C95.8083 114.414 95.7728 114.369 95.7633 114.355L97.4274 113.245C97.1153 112.777 96.6249 112.5 96.0453 112.5C95.5471 112.5 95.0775 112.705 94.6808 112.943L95.7098 114.657ZM95.8625 114.48C99.4332 118.326 103.694 121.211 108.633 123.132L109.358 121.268C104.697 119.455 100.691 116.741 97.3281 113.12L95.8625 114.48ZM108.641 123.135C113.68 125.042 118.733 126 123.795 126V124C118.991 124 114.177 123.092 109.349 121.265L108.641 123.135ZM123.795 126C133.077 126 140.142 123.123 144.782 117.218L143.209 115.982C139.049 121.277 132.647 124 123.795 124V126ZM144.789 117.209C149.354 111.26 151.595 103.63 151.595 94.4H149.595C149.595 103.303 147.437 110.473 143.202 115.991L144.789 117.209ZM151.595 94.4C151.595 83.8021 148.497 75.6844 142.146 70.2407C135.825 64.8224 126.448 62.2 114.195 62.2V64.2C126.209 64.2 135.033 66.7776 140.845 71.7593C146.627 76.7156 149.595 84.1979 149.595 94.4H151.595ZM114.195 62.2C114.325 62.2 114.416 62.2313 114.454 62.2465C114.494 62.2625 114.51 62.2749 114.5 62.268C114.491 62.2621 114.469 62.2464 114.434 62.2157C114.398 62.1856 114.355 62.1453 114.302 62.0929L112.888 63.5071C113.045 63.6639 113.214 63.8144 113.391 63.9321C113.54 64.0319 113.828 64.2 114.195 64.2V62.2ZM114.544 62.4838C114.443 62.1802 114.395 61.8868 114.395 61.6H112.395C112.395 62.1132 112.481 62.6198 112.647 63.1162L114.544 62.4838ZM114.395 61.6C114.395 61.3046 114.445 61.1359 114.49 61.0472L112.701 60.1528C112.479 60.5974 112.395 61.0954 112.395 61.6H114.395ZM114.427 61.1547C114.484 61.0699 114.532 61.003 114.572 60.9514C114.613 60.8988 114.64 60.8698 114.652 60.8571C114.668 60.8412 114.65 60.8636 114.597 60.895C114.55 60.9232 114.408 61 114.195 61V59C113.916 59 113.699 59.1018 113.568 59.18C113.433 59.2614 113.322 59.3588 113.238 59.4429C113.07 59.6106 112.912 59.8228 112.763 60.0453L114.427 61.1547ZM114.195 61C126.013 61 134.668 58.6591 139.883 53.7265L138.508 52.2735C133.856 56.6742 125.845 59 114.195 59V61ZM139.883 53.7265C145.058 48.8309 147.595 42.0773 147.595 33.6H145.595C145.595 41.656 143.199 47.8357 138.508 52.2735L139.883 53.7265ZM147.595 33.6C147.595 25.4407 145.554 19.0272 141.325 14.5161L139.866 15.8839C143.637 19.9061 145.595 25.7593 145.595 33.6H147.595ZM141.335 14.5273C137.106 9.87555 131.213 7.6 123.795 7.6V9.6C130.778 9.6 136.084 11.7244 139.855 15.8727L141.335 14.5273ZM123.795 7.6C118.02 7.6 112.521 9.0458 107.312 11.9248L108.279 13.6752C113.203 10.9542 118.37 9.6 123.795 9.6V7.6ZM107.32 11.9203C102.192 14.6921 98.3759 18.7892 95.8874 24.1809L97.7033 25.0191C100.015 20.0108 103.532 16.2413 108.271 13.6797L107.32 11.9203ZM95.7953 24.6C95.7953 24.4583 95.8336 24.2898 95.9383 24.1328C96.0388 23.9821 96.1628 23.8982 96.2481 23.8556C96.3904 23.7844 96.4776 23.8 96.3953 23.8V25.8C96.5797 25.8 96.8669 25.7822 97.1425 25.6444C97.2945 25.5684 97.4685 25.4429 97.6024 25.2422C97.7404 25.0352 97.7953 24.8083 97.7953 24.6H95.7953ZM96.3953 23.8C96.2079 23.8 95.8995 23.7341 95.4425 23.5056L94.5481 25.2944C95.1578 25.5993 95.7827 25.8 96.3953 25.8V23.8ZM95.55 23.568C95.4907 23.5284 95.4619 23.5023 95.4524 23.4929C95.4426 23.483 95.4642 23.5017 95.4897 23.5528C95.5175 23.6084 95.5453 23.6939 95.5453 23.8C95.5453 23.9061 95.5175 23.9916 95.4897 24.0472L93.7009 23.1528C93.4935 23.5676 93.4935 24.0323 93.7009 24.4472C93.8792 24.8039 94.1755 25.0553 94.4406 25.232L95.55 23.568ZM95.5153 23.9919C98.5125 16.9551 102.926 11.5148 108.75 7.63205L107.641 5.96795C101.465 10.0852 96.8115 15.8449 93.6753 23.2081L95.5153 23.9919ZM108.75 7.63205C114.568 3.75338 121.37 1.79999 129.195 1.79999V-0.200008C121.02 -0.200008 113.823 1.84661 107.641 5.96795L108.75 7.63205ZM129.195 1.79999C138.468 1.79999 145.587 4.40637 150.688 9.5071L152.102 8.09289C146.536 2.52695 138.856 -0.200008 129.195 -0.200008V1.79999ZM150.697 9.516C155.826 14.5163 158.395 20.7861 158.395 28.4H160.395C160.395 20.2806 157.632 13.4837 152.093 8.084L150.697 9.516ZM158.395 28.4C158.395 35.1124 156.335 41.3786 152.18 47.2205L153.81 48.3795C158.189 42.2213 160.395 35.5542 160.395 28.4H158.395ZM152.178 47.224C148.169 52.9136 142.672 57.0607 135.648 59.6622L136.343 61.5377C143.718 58.806 149.555 54.4198 153.813 48.3759L152.178 47.224Z" fill="#583D2B"/>
</svg>
