<svg width="314" height="181" viewBox="0 0 314 181" fill="none" xmlns="http://www.w3.org/2000/svg">
<path d="M1.2 146L0.342507 146.514L0.377113 146.572L0.419131 146.625L1.2 146ZM1.4 144.4L2 145.2L2.10364 145.122L2.18405 145.021L1.4 144.4ZM13 130.2L13.7546 130.856L13.7641 130.845L13.7732 130.834L13 130.2ZM36 100.8L36.8099 101.387L36 100.8ZM50.2 77L51.1032 77.4294L51.1058 77.4237L50.2 77ZM49.8 35L49.061 35.6738L49.0661 35.6793L49.0712 35.6847L49.8 35ZM15.4 34L16.0247 34.7809L16.0314 34.7755L16.038 34.77L15.4 34ZM5 50.2L4.04778 49.8946L4 50.0435V50.2H5ZM2.8 49.6L3.77014 49.8425L3.77624 49.8181L3.78111 49.7935L2.8 49.6ZM15 27.6L15.6386 28.3696L15 27.6ZM60.8 28.2L60.0844 28.8985L60.0928 28.9072L60.1015 28.9156L60.8 28.2ZM62.8 73.4L61.9114 72.9414L62.8 73.4ZM48 96.2L48.7779 96.8283L48 96.2ZM27.2 120.2L26.461 119.526L26.4567 119.531L27.2 120.2ZM20.8 127.2L20.0641 126.523L20.0628 126.524L20.8 127.2ZM14.2 135.2L15.0137 135.781L15.019 135.774L15.024 135.767L14.2 135.2ZM51.8 136L51.8555 136.998L51.8647 136.998L51.8739 136.997L51.8 136ZM67 132.4L67.5369 133.244L67.5502 133.235L67.5633 133.226L67 132.4ZM71.6 122.8L72.5995 122.83L72.6 122.815V122.8H71.6ZM73.8 122.8L74.8 122.809V122.8H73.8ZM73.6 144.8L72.6 144.791V144.8H73.6ZM73 146.4L72.2 145.8L72.1833 145.822L72.168 145.845L73 146.4ZM3 146C2.71908 146 2.38234 145.877 1.98087 145.375L0.419131 146.625C1.08433 147.456 1.94758 148 3 148V146ZM2.05749 145.486C1.92277 145.261 1.94668 145.189 1.94228 145.224C1.93978 145.244 1.9319 145.261 1.92868 145.266C1.92783 145.267 1.94317 145.243 2 145.2L0.8 143.6C0.371841 143.921 0.0324426 144.378 -0.0422778 144.976C-0.113349 145.545 0.0772257 146.072 0.342507 146.514L2.05749 145.486ZM2.18405 145.021C7.24864 138.623 11.1037 133.905 13.7546 130.856L12.2454 129.544C9.56301 132.629 5.68469 137.377 0.615954 143.779L2.18405 145.021ZM13.7732 130.834C23.5126 118.96 31.1933 109.143 36.8099 101.387L35.1901 100.213C29.6067 107.924 21.954 117.707 12.2268 129.566L13.7732 130.834ZM36.8099 101.387C42.4436 93.6067 47.2087 85.621 51.1031 77.4294L49.2969 76.5706C45.4579 84.6457 40.7564 92.5266 35.1901 100.213L36.8099 101.387ZM51.1058 77.4237C55.021 69.0533 57 61.0419 57 53.4H55C55 60.6914 53.1123 68.4134 49.2942 76.5763L51.1058 77.4237ZM57 53.4C57 45.3585 54.8841 38.9516 50.5289 34.3153L49.0712 35.6847C52.9826 39.8484 55 45.7082 55 53.4H57ZM50.539 34.3262C46.1758 29.5408 40.0819 27.2 32.4 27.2V29.2C39.6515 29.2 45.1575 31.3925 49.061 35.6738L50.539 34.3262ZM32.4 27.2C25.5253 27.2 19.6263 29.1995 14.762 33.23L16.038 34.77C20.507 31.0671 25.9414 29.2 32.4 29.2V27.2ZM14.7753 33.2191C9.92166 37.1021 6.35994 42.6861 4.04778 49.8946L5.95222 50.5054C8.1734 43.5806 11.545 38.3646 16.0247 34.7809L14.7753 33.2191ZM4 50.2C4 50.0412 4.04195 49.886 4.11925 49.7507C4.19284 49.622 4.28292 49.5378 4.34999 49.4875C4.41612 49.4379 4.47279 49.4113 4.50288 49.3988C4.53432 49.3857 4.55453 49.3806 4.55746 49.3799C4.561 49.379 4.53528 49.3853 4.46695 49.391C4.40183 49.3964 4.314 49.4 4.2 49.4V51.4C4.48714 51.4 4.78681 51.3841 5.04254 51.3201C5.1653 51.2895 5.36285 51.2279 5.55001 51.0875C5.76532 50.926 6 50.6262 6 50.2H4ZM4.2 49.4C3.97129 49.4 3.80252 49.3854 3.68384 49.3648C3.55976 49.3432 3.52792 49.3213 3.54614 49.3318C3.57423 49.3478 3.67353 49.4165 3.73558 49.5654C3.79656 49.7117 3.77483 49.8238 3.77014 49.8425L1.82986 49.3575C1.7585 49.6429 1.74511 49.9883 1.88942 50.3346C2.0348 50.6835 2.29244 50.9189 2.55386 51.0682C3.02562 51.3378 3.63286 51.4 4.2 51.4V49.4ZM3.78111 49.7935C5.61185 40.509 9.58034 33.3966 15.6386 28.3696L14.3614 26.8304C7.88633 32.2034 3.72148 39.7577 1.81889 49.4065L3.78111 49.7935ZM15.6386 28.3696C21.7025 23.3378 29.2011 20.8 38.2 20.8V18.8C28.7989 18.8 20.8308 21.4622 14.3614 26.8304L15.6386 28.3696ZM38.2 20.8C47.5958 20.8 54.847 23.5334 60.0844 28.8985L61.5156 27.5015C55.8196 21.6666 48.0042 18.8 38.2 18.8V20.8ZM60.1015 28.9156C65.487 34.1729 68.2 40.9709 68.2 49.4H70.2C70.2 40.4958 67.313 33.1604 61.4985 27.4844L60.1015 28.9156ZM68.2 49.4C68.2 56.9445 66.1196 64.788 61.9114 72.9414L63.6886 73.8586C68.0138 65.4787 70.2 57.3222 70.2 49.4H68.2ZM61.9114 72.9414C57.6744 81.1505 52.7777 88.6933 47.2221 95.5717L48.7779 96.8283C54.4223 89.8401 59.3923 82.1828 63.6886 73.8586L61.9114 72.9414ZM47.2221 95.5717C41.6383 102.485 34.7189 110.469 26.461 119.526L27.939 120.874C36.2145 111.797 43.1617 103.782 48.7779 96.8283L47.2221 95.5717ZM26.4567 119.531C25.2608 120.86 23.1309 123.189 20.0641 126.523L21.5359 127.877C24.6025 124.544 26.7392 122.207 27.9433 120.869L26.4567 119.531ZM20.0628 126.524C17.116 129.739 14.8807 132.445 13.376 134.633L15.024 135.767C16.4526 133.689 18.6173 131.061 21.5372 127.876L20.0628 126.524ZM13.3863 134.619C13.1869 134.898 13.0076 135.208 12.9135 135.538C12.8165 135.877 12.7894 136.322 13.0318 136.746C13.2675 137.159 13.6521 137.364 13.9718 137.465C14.292 137.567 14.6479 137.6 15 137.6V135.6C14.8813 135.6 14.7868 135.594 14.7136 135.585C14.6394 135.576 14.5969 135.566 14.5782 135.56C14.5589 135.553 14.5786 135.557 14.6172 135.584C14.6592 135.613 14.719 135.668 14.7682 135.754C14.8182 135.841 14.8382 135.928 14.8421 135.996C14.8457 136.059 14.835 136.092 14.8365 136.087C14.838 136.082 14.8474 136.053 14.8771 135.997C14.9064 135.942 14.9502 135.87 15.0137 135.781L13.3863 134.619ZM15 137.6C32.3334 137.6 44.6249 137.4 51.8555 136.998L51.7445 135.002C44.5751 135.4 32.3332 135.6 15 135.6V137.6ZM51.8739 136.997C59.0973 136.462 64.3803 135.252 67.5369 133.244L66.4631 131.556C63.753 133.281 58.9027 134.471 51.7261 135.003L51.8739 136.997ZM67.5633 133.226C70.8248 131.003 72.4591 127.464 72.5995 122.83L70.6005 122.77C70.4742 126.936 69.0419 129.797 66.4367 131.574L67.5633 133.226ZM72.6 122.8C72.6 122.961 72.5427 123.131 72.4307 123.265C72.3335 123.382 72.2367 123.422 72.2214 123.428C72.2039 123.435 72.2214 123.426 72.2947 123.416C72.3645 123.407 72.4644 123.4 72.6 123.4V121.4C72.2295 121.4 71.8252 121.433 71.4786 121.572C71.2966 121.644 71.0749 121.768 70.8943 121.985C70.6989 122.219 70.6 122.506 70.6 122.8H72.6ZM72.6 123.4C72.7742 123.4 72.9108 123.407 73.0146 123.419C73.1219 123.431 73.1724 123.445 73.1838 123.449C73.2028 123.455 73.1182 123.432 73.0179 123.332C72.9632 123.277 72.9051 123.201 72.8621 123.1C72.8186 122.999 72.8 122.895 72.8 122.8H74.8C74.8 122.002 74.1469 121.662 73.8162 121.551C73.4599 121.433 73.0292 121.4 72.6 121.4V123.4ZM72.8 122.791L72.6 144.791L74.6 144.809L74.8 122.809L72.8 122.791ZM72.6 144.8C72.6 145.068 72.5031 145.396 72.2 145.8L73.8 147C74.2969 146.337 74.6 145.599 74.6 144.8H72.6ZM72.168 145.845C72.1094 145.933 72.042 146 71.8 146V148C72.6246 148 73.3572 147.667 73.8321 146.955L72.168 145.845ZM71.8 146H3V148H71.8V146ZM164.248 103.2V102.2H164.23L164.212 102.201L164.248 103.2ZM164.248 111.6L164.212 112.599L164.23 112.6H164.248V111.6ZM147.648 111L147.685 110.001L146.648 109.963V111H147.648ZM148.648 139.8L147.7 140.116L147.703 140.126L147.707 140.136L148.648 139.8ZM152.648 143.6L152.332 144.549V144.549L152.648 143.6ZM154.048 146.8L154.115 145.802L154.09 145.801L154.064 145.8L154.048 146.8ZM141.448 146.6L141.464 145.6L141.45 145.6L141.435 145.6L141.448 146.6ZM126.448 146.8L126.435 145.8L126.415 145.8L126.396 145.801L126.448 146.8ZM129.248 143.8L129.454 144.779L129.479 144.773L129.503 144.767L129.248 143.8ZM134.248 140.2L135.156 140.619L135.162 140.607L135.168 140.594L134.248 140.2ZM135.448 110.6H136.448V109.615L135.463 109.6L135.448 110.6ZM83.4484 109.6L82.554 110.047L82.6266 110.192L82.7413 110.307L83.4484 109.6ZM83.6484 108L84.4484 108.6L84.4585 108.587L84.4681 108.573L83.6484 108ZM144.448 21L143.741 20.2929L143.679 20.3551L143.629 20.4272L144.448 21ZM147.648 103.8H146.648V104.837L147.685 104.799L147.648 103.8ZM135.448 104L135.466 105L136.448 104.983V104H135.448ZM135.448 42H136.448V38.7716L134.624 41.4347L135.448 42ZM93.6484 103L92.8235 102.435L92.8005 102.468L92.7802 102.504L93.6484 103ZM164.248 104.2C163.86 104.2 163.709 103.922 163.73 103.959C163.749 103.991 163.807 104.126 163.866 104.437C163.981 105.042 164.048 106.015 164.048 107.4H166.048C166.048 105.985 165.982 104.858 165.831 104.063C165.757 103.674 165.648 103.284 165.467 102.966C165.288 102.653 164.903 102.2 164.248 102.2V104.2ZM164.048 107.4C164.048 108.785 163.981 109.758 163.866 110.363C163.807 110.674 163.749 110.809 163.73 110.841C163.709 110.878 163.86 110.6 164.248 110.6V112.6C164.903 112.6 165.288 112.147 165.467 111.834C165.648 111.516 165.757 111.126 165.831 110.737C165.982 109.942 166.048 108.815 166.048 107.4H164.048ZM164.285 110.601L147.685 110.001L147.612 111.999L164.212 112.599L164.285 110.601ZM146.648 111V130.8H148.648V111H146.648ZM146.648 130.8C146.648 134.829 146.981 137.96 147.7 140.116L149.597 139.484C148.983 137.64 148.648 134.771 148.648 130.8H146.648ZM147.707 140.136C148.484 142.313 150.062 143.792 152.332 144.549L152.965 142.651C151.235 142.075 150.146 141.02 149.59 139.464L147.707 140.136ZM152.332 144.549C154.494 145.269 157.832 145.6 162.248 145.6V143.6C157.865 143.6 154.802 143.264 152.965 142.651L152.332 144.549ZM162.248 145.6C162.153 145.6 162.05 145.581 161.948 145.538C161.848 145.495 161.771 145.437 161.716 145.382C161.616 145.282 161.593 145.197 161.6 145.216C161.604 145.228 161.618 145.278 161.63 145.385C161.641 145.489 161.648 145.626 161.648 145.8H163.648C163.648 145.371 163.616 144.94 163.497 144.584C163.387 144.253 163.046 143.6 162.248 143.6V145.6ZM161.648 145.8C161.648 145.974 161.641 146.111 161.63 146.215C161.618 146.322 161.604 146.372 161.6 146.384C161.593 146.403 161.616 146.318 161.716 146.218C161.771 146.163 161.848 146.105 161.948 146.062C162.05 146.019 162.153 146 162.248 146V148C163.046 148 163.387 147.347 163.497 147.016C163.616 146.66 163.648 146.229 163.648 145.8H161.648ZM162.248 146C158.791 146 156.083 145.933 154.115 145.802L153.982 147.798C156.014 147.933 158.773 148 162.248 148V146ZM154.064 145.8L141.464 145.6L141.433 147.6L154.033 147.8L154.064 145.8ZM141.435 145.6L126.435 145.8L126.462 147.8L141.462 147.6L141.435 145.6ZM126.396 145.801C123.888 145.933 120.442 146 116.048 146V148C120.455 148 123.942 147.933 126.501 147.799L126.396 145.801ZM116.048 146C116.123 146 116.234 146.022 116.341 146.093C116.441 146.16 116.484 146.234 116.493 146.253C116.5 146.268 116.486 146.245 116.472 146.161C116.459 146.079 116.448 145.961 116.448 145.8H114.448C114.448 146.251 114.5 146.738 114.704 147.147C114.813 147.366 114.98 147.59 115.231 147.757C115.488 147.928 115.773 148 116.048 148V146ZM116.448 145.8C116.448 145.639 116.459 145.521 116.472 145.439C116.486 145.355 116.5 145.333 116.493 145.347C116.484 145.366 116.441 145.44 116.341 145.507C116.234 145.578 116.123 145.6 116.048 145.6V143.6C115.773 143.6 115.488 143.672 115.231 143.843C114.98 144.01 114.813 144.234 114.704 144.453C114.5 144.862 114.448 145.349 114.448 145.8H116.448ZM116.048 145.6C122.314 145.6 126.808 145.336 129.454 144.779L129.042 142.821C126.622 143.331 122.316 143.6 116.048 143.6V145.6ZM129.503 144.767C132.212 144.054 134.189 142.714 135.156 140.619L133.34 139.781C132.708 141.152 131.352 142.212 128.994 142.833L129.503 144.767ZM135.168 140.594C136.054 138.526 136.448 135.214 136.448 130.8H134.448C134.448 135.186 134.043 138.141 133.329 139.806L135.168 140.594ZM136.448 130.8V110.6H134.448V130.8H136.448ZM135.463 109.6C117.326 109.333 100.521 109.2 85.0484 109.2V111.2C100.509 111.2 117.304 111.333 135.434 111.6L135.463 109.6ZM85.0484 109.2C84.596 109.2 84.3348 109.072 84.1555 108.893L82.7413 110.307C83.3621 110.928 84.1675 111.2 85.0484 111.2V109.2ZM84.3429 109.153C84.2878 109.043 84.2845 108.974 84.2907 108.924C84.2979 108.867 84.328 108.761 84.4484 108.6L82.8484 107.4C82.5689 107.773 82.3657 108.2 82.3062 108.676C82.2457 109.16 82.3424 109.624 82.554 110.047L84.3429 109.153ZM84.4681 108.573L145.268 21.5728L143.629 20.4272L82.8288 107.427L84.4681 108.573ZM145.156 21.7071C145.169 21.6941 145.269 21.6 145.648 21.6V19.6C144.961 19.6 144.262 19.7725 143.741 20.2929L145.156 21.7071ZM145.648 21.6C146.248 21.6 146.531 21.6957 146.634 21.7575C146.671 21.7794 146.662 21.7835 146.649 21.7606C146.637 21.7391 146.648 21.7416 146.648 21.8H148.648C148.648 21.0612 148.308 20.4296 147.663 20.0425C147.099 19.7043 146.382 19.6 145.648 19.6V21.6ZM146.648 21.8V103.8H148.648V21.8H146.648ZM147.685 104.799L164.285 104.199L164.212 102.201L147.612 102.801L147.685 104.799ZM94.6484 105.4C106.389 105.4 119.995 105.267 135.466 105L135.431 103C119.969 103.267 106.375 103.4 94.6484 103.4V105.4ZM136.448 104V42H134.448V104H136.448ZM134.624 41.4347L92.8235 102.435L94.4734 103.565L136.273 42.5653L134.624 41.4347ZM92.7802 102.504C92.4927 103.007 92.1416 103.871 92.6847 104.631C92.9383 104.986 93.2993 105.172 93.6198 105.269C93.9402 105.367 94.2937 105.4 94.6484 105.4V103.4C94.5299 103.4 94.4335 103.394 94.3569 103.385C94.2796 103.376 94.23 103.364 94.2021 103.356C94.1392 103.337 94.2252 103.347 94.3122 103.469C94.3558 103.53 94.3825 103.596 94.3946 103.657C94.406 103.714 94.4015 103.75 94.4009 103.754C94.4004 103.757 94.4031 103.737 94.4214 103.69C94.4395 103.643 94.4694 103.579 94.5167 103.496L92.7802 102.504ZM183.198 179.6L182.237 179.326L182.232 179.342L182.228 179.357L183.198 179.6ZM179.198 179.2L179.5 178.246L179.476 178.239L179.453 178.233L179.198 179.2ZM175.598 177.4L174.637 177.125L174.632 177.141L174.628 177.157L175.598 177.4ZM225.998 0.999996L225.104 0.552788L225.062 0.635914L225.037 0.725275L225.998 0.999996ZM229.998 1.39999L229.682 2.34867L229.713 2.35887L229.744 2.36707L229.998 1.39999ZM233.398 3.39999L232.47 3.0286L232.451 3.07644L232.437 3.12599L233.398 3.39999ZM182.228 179.357C182.315 179.011 182.595 178.914 182.61 178.91C182.615 178.909 182.587 178.917 182.51 178.919C182.435 178.922 182.333 178.918 182.198 178.905C181.638 178.849 180.751 178.642 179.5 178.246L178.897 180.154C180.179 180.558 181.226 180.818 181.999 180.895C182.376 180.933 182.778 180.938 183.137 180.84C183.518 180.736 184.015 180.456 184.169 179.843L182.228 179.357ZM179.453 178.233C178.203 177.904 177.351 177.608 176.846 177.356C176.724 177.295 176.634 177.242 176.569 177.199C176.538 177.177 176.515 177.16 176.499 177.147C176.483 177.134 176.476 177.127 176.477 177.127C176.477 177.127 176.486 177.137 176.5 177.158C176.514 177.179 176.533 177.214 176.551 177.261C176.589 177.367 176.603 177.503 176.569 177.643L174.628 177.157C174.481 177.747 174.759 178.221 175.02 178.498C175.272 178.766 175.611 178.974 175.951 179.144C176.646 179.492 177.661 179.829 178.944 180.167L179.453 178.233ZM176.56 177.675L226.96 1.27472L225.037 0.725275L174.637 177.125L176.56 177.675ZM226.893 1.4472C226.784 1.66397 226.611 1.70268 226.641 1.69514C226.681 1.68504 226.818 1.66692 227.099 1.69503C227.653 1.75045 228.502 1.95534 229.682 2.34867L230.315 0.451307C229.095 0.0446453 228.077 -0.217133 227.298 -0.295044C226.912 -0.333597 226.516 -0.335052 226.156 -0.245146C225.786 -0.152685 225.346 0.069355 225.104 0.552788L226.893 1.4472ZM229.744 2.36707C230.991 2.69535 231.798 3.00108 232.241 3.26192C232.468 3.39523 232.512 3.46655 232.497 3.44498C232.451 3.37311 232.402 3.19977 232.47 3.0286L234.327 3.77138C234.529 3.26688 234.438 2.7602 234.174 2.355C233.944 2.00009 233.596 1.73809 233.255 1.53806C232.566 1.13223 231.539 0.771301 230.253 0.432917L229.744 2.36707ZM232.437 3.12599L182.237 179.326L184.16 179.874L234.36 3.67399L232.437 3.12599ZM269.962 142.6L270.896 142.959L270.899 142.951L270.902 142.942L269.962 142.6ZM268.163 146.2L268.87 146.907L268.909 146.868L268.943 146.825L268.163 146.2ZM255.362 145L256.257 145.447L256.267 145.427L256.276 145.407L255.362 145ZM304.763 34L303.894 33.5039L303.869 33.5475L303.849 33.5934L304.763 34ZM262.362 33.4L262.294 32.4024L262.293 32.4025L262.362 33.4ZM247.363 36.8L247.939 37.617L247.948 37.6107L247.363 36.8ZM241.762 46.2L240.809 45.9002L240.762 46.0466V46.2H241.762ZM239.762 46.6L239.055 47.3071L239.222 47.474L239.446 47.5487L239.762 46.6ZM239.562 45.8L240.457 46.2472L240.509 46.1424L240.536 46.0283L239.562 45.8ZM246.363 16.8L245.414 16.4838L245.399 16.5272L245.389 16.5717L246.363 16.8ZM247.762 16.4L247.598 17.3864L247.68 17.4H247.762V16.4ZM248.762 17L247.814 16.6838L247.802 16.7202L247.792 16.7575L248.762 17ZM250.363 21.4L250.046 22.3487L250.061 22.3535L250.075 22.3578L250.363 21.4ZM312.562 23L311.705 23.5145L311.74 23.5722L311.782 23.6247L312.562 23ZM312.962 24.6L312.13 24.0453L312.064 24.145L312.023 24.2576L312.962 24.6ZM269.029 142.241C268.366 143.964 267.811 145.038 267.382 145.575L268.943 146.825C269.58 146.029 270.225 144.703 270.896 142.959L269.029 142.241ZM267.455 145.493C267.176 145.773 266.675 146 265.763 146V148C266.983 148 268.083 147.694 268.87 146.907L267.455 145.493ZM265.763 146H256.962V148H265.763V146ZM256.962 146C256.712 146 256.495 145.918 256.27 145.693L254.855 147.107C255.43 147.682 256.147 148 256.962 148V146ZM256.27 145.693C256.228 145.652 256.211 145.624 256.205 145.613C256.2 145.604 256.202 145.604 256.202 145.609C256.205 145.624 256.19 145.58 256.257 145.447L254.468 144.553C254.268 144.953 254.154 145.409 254.223 145.891C254.292 146.379 254.534 146.786 254.855 147.107L256.27 145.693ZM256.276 145.407L305.676 34.4066L303.849 33.5934L254.449 144.593L256.276 145.407ZM305.631 34.4961C305.918 33.9931 306.269 33.1291 305.726 32.3688C305.473 32.0137 305.112 31.8283 304.791 31.7308C304.471 31.6333 304.117 31.6 303.763 31.6V33.6C303.881 33.6 303.977 33.6058 304.054 33.6149C304.131 33.6241 304.181 33.6357 304.209 33.6442C304.272 33.6633 304.186 33.653 304.099 33.5312C304.055 33.4701 304.028 33.4035 304.016 33.343C304.005 33.286 304.009 33.2502 304.01 33.2461C304.01 33.2429 304.008 33.2631 303.99 33.3103C303.971 33.357 303.942 33.4211 303.894 33.5039L305.631 34.4961ZM303.763 31.6C283.897 31.6 270.066 31.8664 262.294 32.4024L262.431 34.3976C270.126 33.867 283.894 33.6 303.763 33.6V31.6ZM262.293 32.4025C258.464 32.6711 255.259 33.0928 252.691 33.6747C250.142 34.2526 248.138 35.0062 246.777 35.9893L247.948 37.6107C248.987 36.8605 250.683 36.1808 253.134 35.6253C255.566 35.0739 258.661 34.6622 262.432 34.3975L262.293 32.4025ZM246.786 35.983C244.248 37.7744 242.296 41.1664 240.809 45.9002L242.716 46.4998C244.162 41.9003 245.944 39.0256 247.939 37.617L246.786 35.983ZM240.762 46.2C240.762 46.1584 240.772 46.0733 240.826 45.9768C240.88 45.879 240.951 45.8206 240.998 45.7925C241.038 45.7684 241.05 45.7728 241.004 45.7819C240.96 45.7908 240.882 45.8 240.762 45.8V47.8C241.163 47.8 241.63 47.7457 242.027 47.5075C242.505 47.2204 242.762 46.7388 242.762 46.2H240.762ZM240.762 45.8C240.647 45.8 240.429 45.768 240.079 45.6513L239.446 47.5487C239.896 47.6986 240.345 47.8 240.762 47.8V45.8ZM240.47 45.8929C240.419 45.8419 240.459 45.8613 240.483 45.9575C240.495 46.0078 240.5 46.0654 240.492 46.124C240.485 46.1815 240.469 46.2235 240.457 46.2472L238.668 45.3528C238.504 45.6801 238.446 46.0573 238.542 46.4425C238.633 46.8054 238.84 47.0914 239.055 47.3071L240.47 45.8929ZM240.536 46.0283L247.336 17.0283L245.389 16.5717L238.589 45.5717L240.536 46.0283ZM247.311 17.1162C247.292 17.1736 247.252 17.2418 247.189 17.2974C247.131 17.3491 247.085 17.3621 247.087 17.3615C247.092 17.3601 247.133 17.35 247.225 17.35C247.315 17.35 247.438 17.3597 247.598 17.3864L247.927 15.4136C247.466 15.3368 246.979 15.3125 246.538 15.4385C246.043 15.58 245.602 15.9195 245.414 16.4838L247.311 17.1162ZM247.762 17.4C247.925 17.4 248.034 17.4104 248.101 17.4223C248.175 17.4353 248.157 17.4429 248.098 17.4075C248.025 17.3639 247.893 17.2538 247.826 17.0537C247.763 16.8646 247.801 16.7211 247.814 16.6838L249.711 17.3162C249.79 17.0789 249.837 16.7604 249.724 16.4213C249.607 16.0712 249.366 15.8361 249.127 15.6925C248.711 15.4431 248.189 15.4 247.762 15.4V17.4ZM247.792 16.7575C247.632 17.3971 247.562 18.1517 247.562 19H249.562C249.562 18.2483 249.626 17.6696 249.733 17.2425L247.792 16.7575ZM247.562 19C247.562 19.7719 247.758 20.4944 248.212 21.1C248.663 21.7011 249.305 22.1014 250.046 22.3487L250.679 20.4513C250.22 20.2986 249.962 20.0989 249.812 19.9C249.667 19.7056 249.562 19.4281 249.562 19H247.562ZM250.075 22.3578C251.57 22.8062 254.313 23 258.163 23V21C254.278 21 251.822 20.7938 250.65 20.4422L250.075 22.3578ZM258.163 23H311.163V21H258.163V23ZM311.163 23C311.199 23 311.395 22.9985 311.705 23.5145L313.42 22.4855C312.93 21.6682 312.193 21 311.163 21V23ZM311.782 23.6247C312.003 23.9015 312.075 24.0711 312.092 24.1425C312.099 24.1709 312.093 24.1644 312.098 24.1336C312.102 24.0994 312.116 24.067 312.13 24.0453L313.795 25.1547C314.461 24.1552 313.914 23.088 313.343 22.3753L311.782 23.6247ZM312.023 24.2576L269.023 142.258L270.902 142.942L313.902 24.9424L312.023 24.2576Z" fill="#583D2B"/>
</svg>
