<svg width="298" height="183" viewBox="0 0 298 183" fill="none" xmlns="http://www.w3.org/2000/svg">
<path d="M297.5 31.4999L289.75 23.7499C276.633 10.6331 255.367 10.6331 242.25 23.7499V23.7499C229.133 36.8666 207.867 36.8666 194.75 23.7499V23.7499C181.633 10.6331 160.367 10.6331 147.25 23.7499V23.7499C134.133 36.8666 112.867 36.8666 99.7501 23.7499V23.7499C86.6333 10.6331 65.3668 10.6331 52.2501 23.7499V23.7499C39.1333 36.8666 17.8668 36.8666 4.75005 23.7499L0.999999 19.9998" stroke="#71A364"/>
<path d="M297.5 76.4999L289.75 68.7499C276.633 55.6331 255.367 55.6331 242.25 68.7499V68.7499C229.133 81.8666 207.867 81.8666 194.75 68.7499V68.7499C181.633 55.6331 160.367 55.6331 147.25 68.7499V68.7499C134.133 81.8666 112.867 81.8666 99.7501 68.7499V68.7499C86.6333 55.6331 65.3668 55.6331 52.2501 68.7499V68.7499C39.1333 81.8666 17.8668 81.8666 4.75005 68.7499L0.999999 64.9998" stroke="#71A364"/>
<path d="M297.5 121.5L289.75 113.75C276.633 100.633 255.367 100.633 242.25 113.75V113.75C229.133 126.867 207.867 126.867 194.75 113.75V113.75C181.633 100.633 160.367 100.633 147.25 113.75V113.75C134.133 126.867 112.867 126.867 99.7501 113.75V113.75C86.6333 100.633 65.3668 100.633 52.2501 113.75V113.75C39.1333 126.867 17.8668 126.867 4.75005 113.75L0.999999 110" stroke="#71A364"/>
<path d="M297.5 166.5L289.75 158.75C276.633 145.633 255.367 145.633 242.25 158.75V158.75C229.133 171.867 207.867 171.867 194.75 158.75V158.75C181.633 145.633 160.367 145.633 147.25 158.75V158.75C134.133 171.867 112.867 171.867 99.7501 158.75V158.75C86.6333 145.633 65.3668 145.633 52.2501 158.75V158.75C39.1333 171.867 17.8668 171.867 4.75005 158.75L0.999999 155" stroke="#71A364"/>
</svg>
