<svg width="188" height="188" viewBox="0 0 188 188" fill="none" xmlns="http://www.w3.org/2000/svg">
<path d="M85.8756 10.7125C90.0766 5.58138 97.9234 5.58138 102.124 10.7125L107.584 17.3809C110.711 21.2006 115.927 22.5983 120.546 20.8539L128.608 17.8087C134.812 15.4655 141.607 19.3889 142.68 25.9331L144.074 34.4379C144.872 39.3095 148.691 43.128 153.562 43.9264L162.067 45.3203C168.611 46.3929 172.534 53.1885 170.191 59.3922L167.146 67.4545C165.402 72.0726 166.799 77.2888 170.619 80.4161L177.287 85.8756C182.419 90.0766 182.419 97.9234 177.287 102.124L170.619 107.584C166.799 110.711 165.402 115.927 167.146 120.546L170.191 128.608C172.534 134.812 168.611 141.607 162.067 142.68L153.562 144.074C148.691 144.872 144.872 148.691 144.074 153.562L142.68 162.067C141.607 168.611 134.812 172.534 128.608 170.191L120.546 167.146C115.927 165.402 110.711 166.799 107.584 170.619L102.124 177.287C97.9234 182.419 90.0766 182.419 85.8756 177.287L80.4161 170.619C77.2888 166.799 72.0726 165.402 67.4545 167.146L59.3922 170.191C53.1884 172.534 46.3929 168.611 45.3203 162.067L43.9264 153.562C43.128 148.691 39.3094 144.872 34.4379 144.074L25.9331 142.68C19.3889 141.607 15.4655 134.812 17.8087 128.608L20.8539 120.546C22.5983 115.927 21.2006 110.711 17.3809 107.584L10.7125 102.124C5.58138 97.9234 5.58138 90.0766 10.7125 85.8756L17.3809 80.4161C21.2006 77.2888 22.5983 72.0726 20.8539 67.4545L17.8087 59.3922C15.4655 53.1885 19.3889 46.3929 25.9331 45.3203L34.4379 43.9264C39.3095 43.128 43.128 39.3094 43.9264 34.4379L45.3203 25.9331C46.3929 19.3889 53.1885 15.4655 59.3922 17.8087L67.4545 20.8539C72.0726 22.5983 77.2888 21.2006 80.4161 17.3809L85.8756 10.7125Z" stroke="#583D2B"/>
<path d="M86.0125 86.288C84.2525 86.288 82.7165 85.936 81.4045 85.232C80.1085 84.528 79.1165 83.576 78.4285 82.376C77.7405 81.176 77.3965 79.856 77.3965 78.416C77.3965 76.864 77.7885 75.512 78.5725 74.36C79.3565 73.192 80.4285 72.296 81.7885 71.672C83.1645 71.048 84.7005 70.736 86.3965 70.736C87.2445 70.736 88.0445 70.816 88.7965 70.976C89.5485 71.136 90.1725 71.368 90.6685 71.672C90.7965 71.736 90.8685 71.792 90.8845 71.84C90.9005 71.888 90.9165 72.008 90.9325 72.2L91.2205 75.032C91.2205 75.08 91.1725 75.112 91.0765 75.128C90.9965 75.144 90.9485 75.12 90.9325 75.056C90.1965 72.432 88.5325 71.12 85.9405 71.12C84.6765 71.12 83.5325 71.408 82.5085 71.984C81.5005 72.544 80.7005 73.352 80.1085 74.408C79.5325 75.448 79.2445 76.664 79.2445 78.056C79.2445 79.416 79.5245 80.696 80.0845 81.896C80.6445 83.096 81.4845 84.072 82.6045 84.824C83.7245 85.56 85.0765 85.928 86.6605 85.928C87.7965 85.928 88.5965 85.712 89.0605 85.28C89.5245 84.832 89.7565 84.072 89.7565 83C89.7565 82.168 89.7005 81.592 89.5885 81.272C89.4925 80.936 89.2605 80.712 88.8925 80.6C88.5405 80.488 87.9165 80.432 87.0205 80.432C86.9245 80.432 86.8765 80.368 86.8765 80.24C86.8765 80.192 86.8845 80.152 86.9005 80.12C86.9325 80.072 86.9645 80.048 86.9965 80.048C88.2445 80.128 89.2525 80.168 90.0205 80.168C90.7565 80.168 91.5485 80.144 92.3965 80.096C92.4285 80.096 92.4525 80.12 92.4685 80.168C92.5005 80.2 92.5165 80.232 92.5165 80.264C92.5165 80.376 92.4765 80.432 92.3965 80.432C91.9965 80.416 91.7165 80.472 91.5565 80.6C91.4125 80.712 91.3165 80.952 91.2685 81.32C91.2205 81.672 91.1965 82.312 91.1965 83.24C91.1965 83.96 91.2205 84.472 91.2685 84.776C91.3325 85.08 91.3645 85.272 91.3645 85.352C91.3645 85.448 91.3485 85.512 91.3165 85.544C91.2845 85.576 91.2125 85.608 91.1005 85.64C89.1165 86.072 87.4205 86.288 86.0125 86.288ZM101.729 84.656C101.777 84.656 101.817 84.688 101.849 84.752C101.897 84.8 101.905 84.848 101.873 84.896C100.817 85.824 99.6493 86.288 98.3693 86.288C97.4413 86.288 96.6493 86.072 95.9933 85.64C95.3373 85.208 94.8333 84.64 94.4813 83.936C94.1453 83.232 93.9773 82.48 93.9773 81.68C93.9773 80.736 94.2013 79.872 94.6493 79.088C95.0973 78.288 95.7053 77.664 96.4733 77.216C97.2573 76.752 98.1133 76.52 99.0413 76.52C99.9373 76.52 100.625 76.76 101.105 77.24C101.585 77.72 101.825 78.392 101.825 79.256C101.825 79.48 101.801 79.64 101.753 79.736C101.721 79.832 101.657 79.88 101.561 79.88L95.6093 79.904C95.5773 80.256 95.5613 80.544 95.5613 80.768C95.5613 82.16 95.8893 83.288 96.5453 84.152C97.2013 85.016 98.1213 85.448 99.3053 85.448C99.7853 85.448 100.193 85.384 100.529 85.256C100.881 85.128 101.273 84.928 101.705 84.656H101.729ZM98.2493 77C97.5613 77 96.9933 77.232 96.5453 77.696C96.0973 78.144 95.8013 78.776 95.6573 79.592L100.217 79.496C100.217 78.68 100.041 78.064 99.6893 77.648C99.3373 77.216 98.8573 77 98.2493 77ZM110.134 84.752C110.198 84.752 110.246 84.792 110.278 84.872C110.31 84.936 110.302 84.984 110.254 85.016C109.662 85.48 109.126 85.808 108.646 86C108.182 86.192 107.694 86.288 107.182 86.288C106.51 86.288 105.958 86.136 105.526 85.832C105.094 85.528 104.878 85.024 104.878 84.32V78.68C104.878 78.264 104.846 77.968 104.782 77.792C104.734 77.616 104.63 77.504 104.47 77.456C104.31 77.392 104.038 77.36 103.654 77.36C103.59 77.36 103.558 77.312 103.558 77.216C103.558 77.104 103.59 77.048 103.654 77.048C104.294 77.032 104.814 76.864 105.214 76.544C105.614 76.208 105.846 75.768 105.91 75.224C105.91 75.176 105.974 75.152 106.102 75.152C106.214 75.152 106.27 75.176 106.27 75.224V77C107.07 76.984 108.182 76.904 109.606 76.76C109.638 76.76 109.67 76.824 109.702 76.952C109.75 77.064 109.774 77.192 109.774 77.336C109.774 77.464 109.742 77.6 109.678 77.744C109.63 77.872 109.574 77.928 109.51 77.912C108.63 77.688 107.55 77.56 106.27 77.528V83.504C106.27 84.16 106.43 84.648 106.75 84.968C107.086 85.288 107.558 85.448 108.166 85.448C108.87 85.448 109.51 85.224 110.086 84.776L110.134 84.752ZM76.6745 109.712C76.7065 109.712 76.7225 109.76 76.7225 109.856C76.7225 109.952 76.7065 110 76.6745 110H73.5785C73.1785 110 72.4265 109.336 71.3225 108.008C70.2185 106.68 68.9065 104.856 67.3865 102.536C66.9545 102.632 66.5065 102.68 66.0425 102.68C65.9465 102.68 65.5865 102.656 64.9625 102.608V108.056C64.9625 108.552 65.0105 108.912 65.1065 109.136C65.2025 109.36 65.3865 109.512 65.6585 109.592C65.9465 109.672 66.3945 109.712 67.0025 109.712C67.0505 109.712 67.0745 109.76 67.0745 109.856C67.0745 109.952 67.0505 110 67.0025 110C66.5065 110 66.1145 109.992 65.8265 109.976L64.1705 109.952L62.5385 109.976C62.2505 109.992 61.8425 110 61.3145 110C61.2825 110 61.2665 109.952 61.2665 109.856C61.2665 109.76 61.2825 109.712 61.3145 109.712C61.9225 109.712 62.3705 109.672 62.6585 109.592C62.9465 109.512 63.1385 109.36 63.2345 109.136C63.3465 108.896 63.4025 108.536 63.4025 108.056V96.944C63.4025 96.464 63.3545 96.112 63.2585 95.888C63.1625 95.664 62.9705 95.512 62.6825 95.432C62.4105 95.336 61.9705 95.288 61.3625 95.288C61.3145 95.288 61.2905 95.24 61.2905 95.144C61.2905 95.048 61.3145 95 61.3625 95L62.5385 95.024C63.2105 95.056 63.7545 95.072 64.1705 95.072C64.5225 95.072 64.8505 95.064 65.1545 95.048C65.4585 95.032 65.7145 95.016 65.9225 95C66.5145 94.952 67.0505 94.928 67.5305 94.928C68.7945 94.928 69.7705 95.216 70.4585 95.792C71.1465 96.368 71.4905 97.136 71.4905 98.096C71.4905 98.96 71.2345 99.744 70.7225 100.448C70.2265 101.136 69.5625 101.68 68.7305 102.08C70.0745 104.016 71.2025 105.536 72.1145 106.64C73.0425 107.728 73.8585 108.512 74.5625 108.992C75.2825 109.472 75.9865 109.712 76.6745 109.712ZM64.9625 102.032C65.3625 102.096 65.8345 102.128 66.3785 102.128C67.6265 102.128 68.5145 101.856 69.0425 101.312C69.5865 100.768 69.8585 99.928 69.8585 98.792C69.8585 97.544 69.5785 96.648 69.0185 96.104C68.4745 95.56 67.6745 95.288 66.6185 95.288C65.9945 95.288 65.5625 95.4 65.3225 95.624C65.0825 95.848 64.9625 96.304 64.9625 96.992V102.032ZM84.3851 108.656C84.4331 108.656 84.4731 108.688 84.5051 108.752C84.5531 108.8 84.5611 108.848 84.5291 108.896C83.4731 109.824 82.3051 110.288 81.0251 110.288C80.0971 110.288 79.3051 110.072 78.6491 109.64C77.9931 109.208 77.4891 108.64 77.1371 107.936C76.8011 107.232 76.6331 106.48 76.6331 105.68C76.6331 104.736 76.8571 103.872 77.3051 103.088C77.7531 102.288 78.3611 101.664 79.1291 101.216C79.9131 100.752 80.7691 100.52 81.6971 100.52C82.5931 100.52 83.2811 100.76 83.7611 101.24C84.2411 101.72 84.4811 102.392 84.4811 103.256C84.4811 103.48 84.4571 103.64 84.4091 103.736C84.3771 103.832 84.3131 103.88 84.2171 103.88L78.2651 103.904C78.2331 104.256 78.2171 104.544 78.2171 104.768C78.2171 106.16 78.5451 107.288 79.2011 108.152C79.8571 109.016 80.7771 109.448 81.9611 109.448C82.4411 109.448 82.8491 109.384 83.1851 109.256C83.5371 109.128 83.9291 108.928 84.3611 108.656H84.3851ZM80.9051 101C80.2171 101 79.6491 101.232 79.2011 101.696C78.7531 102.144 78.4571 102.776 78.3131 103.592L82.8731 103.496C82.8731 102.68 82.6971 102.064 82.3451 101.648C81.9931 101.216 81.5131 101 80.9051 101ZM87.7499 102.2C87.7499 102.76 87.9339 103.208 88.3019 103.544C88.6699 103.864 89.2059 104.208 89.9099 104.576C90.4699 104.864 90.9019 105.112 91.2059 105.32C91.5259 105.528 91.7979 105.8 92.0219 106.136C92.2459 106.472 92.3579 106.88 92.3579 107.36C92.3579 108.176 92.0539 108.864 91.4459 109.424C90.8379 109.984 90.0139 110.264 88.9739 110.264C88.1259 110.264 87.3579 110.024 86.6699 109.544C86.5739 109.48 86.5259 109.384 86.5259 109.256L86.4779 107.384C86.4779 107.336 86.5179 107.312 86.5979 107.312C86.6939 107.296 86.7499 107.312 86.7659 107.36C87.0699 108.16 87.4619 108.768 87.9419 109.184C88.4379 109.6 89.0059 109.808 89.6459 109.808C90.1739 109.808 90.5739 109.68 90.8459 109.424C91.1179 109.168 91.2379 108.792 91.2059 108.296C91.1899 107.688 90.9979 107.224 90.6299 106.904C90.2779 106.568 89.7419 106.224 89.0219 105.872C88.4939 105.616 88.0699 105.384 87.7499 105.176C87.4459 104.968 87.1819 104.696 86.9579 104.36C86.7499 104.024 86.6459 103.608 86.6459 103.112C86.6459 102.248 86.9659 101.592 87.6059 101.144C88.2619 100.68 89.0299 100.448 89.9099 100.448C90.5499 100.448 91.1339 100.568 91.6619 100.808C91.7579 100.84 91.8139 100.88 91.8299 100.928C91.8619 100.96 91.8779 101.008 91.8779 101.072C91.8779 101.392 91.8699 101.64 91.8539 101.816L91.8299 102.824C91.8299 102.856 91.7819 102.872 91.6859 102.872C91.5899 102.872 91.5419 102.856 91.5419 102.824C91.5419 102.488 91.4139 102.176 91.1579 101.888C90.9019 101.584 90.5819 101.344 90.1979 101.168C89.8139 100.992 89.4299 100.904 89.0459 100.904C88.6459 100.904 88.3259 101.016 88.0859 101.24C87.8619 101.448 87.7499 101.768 87.7499 102.2ZM104.883 108.632C104.947 108.632 104.987 108.672 105.003 108.752C105.035 108.816 105.019 108.864 104.955 108.896L102.147 110.216L102.051 110.24C101.891 110.24 101.739 110.056 101.595 109.688C101.451 109.32 101.379 108.84 101.379 108.248V108.152C100.755 108.856 100.131 109.376 99.5073 109.712C98.8833 110.032 98.2353 110.192 97.5633 110.192C96.7633 110.192 96.1393 109.944 95.6913 109.448C95.2433 108.936 95.0193 108.2 95.0193 107.24V103.568C95.0193 102.944 94.9633 102.496 94.8513 102.224C94.7393 101.936 94.5553 101.792 94.2993 101.792C94.0753 101.792 93.8033 101.872 93.4833 102.032H93.4593C93.3953 102.032 93.3473 101.992 93.3153 101.912C93.2833 101.816 93.2993 101.76 93.3633 101.744L96.0273 100.544L96.1233 100.52C96.1713 100.52 96.2193 100.544 96.2673 100.592C96.3313 100.624 96.3633 100.664 96.3633 100.712V106.448C96.3633 108.304 97.0353 109.232 98.3793 109.232C98.8913 109.232 99.4113 109.104 99.9393 108.848C100.467 108.576 100.947 108.208 101.379 107.744V103.568C101.379 102.928 101.323 102.472 101.211 102.2C101.115 101.928 100.931 101.792 100.659 101.792C100.435 101.792 100.163 101.872 99.8433 102.032H99.8193C99.7553 102.032 99.7073 101.992 99.6753 101.912C99.6593 101.816 99.6833 101.76 99.7473 101.744L102.411 100.544L102.483 100.52C102.531 100.52 102.579 100.544 102.627 100.592C102.691 100.624 102.723 100.664 102.723 100.712V107.432C102.723 107.976 102.787 108.368 102.915 108.608C103.043 108.848 103.259 108.968 103.563 108.968C103.835 108.968 104.259 108.856 104.835 108.632H104.883ZM105.751 110C105.703 110 105.679 109.952 105.679 109.856C105.679 109.76 105.703 109.712 105.751 109.712C106.183 109.712 106.503 109.672 106.711 109.592C106.919 109.496 107.063 109.336 107.143 109.112C107.223 108.872 107.263 108.52 107.263 108.056V95.648C107.263 95.072 107.207 94.656 107.095 94.4C106.983 94.144 106.783 94.016 106.495 94.016C106.255 94.016 105.887 94.128 105.391 94.352H105.343C105.295 94.352 105.255 94.312 105.223 94.232C105.207 94.152 105.223 94.104 105.271 94.088L108.343 92.624C108.375 92.608 108.415 92.6 108.463 92.6C108.495 92.6 108.535 92.624 108.583 92.672C108.647 92.704 108.679 92.744 108.679 92.792V108.056C108.679 108.52 108.711 108.864 108.775 109.088C108.855 109.312 108.999 109.472 109.207 109.568C109.415 109.664 109.735 109.712 110.167 109.712C110.215 109.712 110.239 109.76 110.239 109.856C110.239 109.952 110.215 110 110.167 110C109.815 110 109.527 109.992 109.303 109.976L107.959 109.952L106.663 109.976C106.439 109.992 106.135 110 105.751 110ZM118.203 108.752C118.267 108.752 118.315 108.792 118.347 108.872C118.379 108.936 118.371 108.984 118.323 109.016C117.731 109.48 117.195 109.808 116.715 110C116.251 110.192 115.763 110.288 115.251 110.288C114.579 110.288 114.027 110.136 113.595 109.832C113.163 109.528 112.947 109.024 112.947 108.32V102.68C112.947 102.264 112.915 101.968 112.851 101.792C112.803 101.616 112.699 101.504 112.539 101.456C112.379 101.392 112.107 101.36 111.723 101.36C111.659 101.36 111.627 101.312 111.627 101.216C111.627 101.104 111.659 101.048 111.723 101.048C112.363 101.032 112.883 100.864 113.283 100.544C113.683 100.208 113.915 99.768 113.979 99.224C113.979 99.176 114.043 99.152 114.171 99.152C114.283 99.152 114.339 99.176 114.339 99.224V101C115.139 100.984 116.251 100.904 117.675 100.76C117.707 100.76 117.739 100.824 117.771 100.952C117.819 101.064 117.843 101.192 117.843 101.336C117.843 101.464 117.811 101.6 117.747 101.744C117.699 101.872 117.643 101.928 117.579 101.912C116.699 101.688 115.619 101.56 114.339 101.528V107.504C114.339 108.16 114.499 108.648 114.819 108.968C115.155 109.288 115.627 109.448 116.235 109.448C116.939 109.448 117.579 109.224 118.155 108.776L118.203 108.752ZM121.032 102.2C121.032 102.76 121.216 103.208 121.584 103.544C121.952 103.864 122.488 104.208 123.192 104.576C123.752 104.864 124.184 105.112 124.488 105.32C124.808 105.528 125.08 105.8 125.304 106.136C125.528 106.472 125.64 106.88 125.64 107.36C125.64 108.176 125.336 108.864 124.728 109.424C124.12 109.984 123.296 110.264 122.256 110.264C121.408 110.264 120.64 110.024 119.952 109.544C119.856 109.48 119.808 109.384 119.808 109.256L119.76 107.384C119.76 107.336 119.8 107.312 119.88 107.312C119.976 107.296 120.032 107.312 120.048 107.36C120.352 108.16 120.744 108.768 121.224 109.184C121.72 109.6 122.288 109.808 122.928 109.808C123.456 109.808 123.856 109.68 124.128 109.424C124.4 109.168 124.52 108.792 124.488 108.296C124.472 107.688 124.28 107.224 123.912 106.904C123.56 106.568 123.024 106.224 122.304 105.872C121.776 105.616 121.352 105.384 121.032 105.176C120.728 104.968 120.464 104.696 120.24 104.36C120.032 104.024 119.928 103.608 119.928 103.112C119.928 102.248 120.248 101.592 120.888 101.144C121.544 100.68 122.312 100.448 123.192 100.448C123.832 100.448 124.416 100.568 124.944 100.808C125.04 100.84 125.096 100.88 125.112 100.928C125.144 100.96 125.16 101.008 125.16 101.072C125.16 101.392 125.152 101.64 125.136 101.816L125.112 102.824C125.112 102.856 125.064 102.872 124.968 102.872C124.872 102.872 124.824 102.856 124.824 102.824C124.824 102.488 124.696 102.176 124.44 101.888C124.184 101.584 123.864 101.344 123.48 101.168C123.096 100.992 122.712 100.904 122.328 100.904C121.928 100.904 121.608 101.016 121.368 101.24C121.144 101.448 121.032 101.768 121.032 102.2Z" fill="#583D2B"/>
</svg>
