<svg width="188" height="188" viewBox="0 0 188 188" fill="none" xmlns="http://www.w3.org/2000/svg">
<path d="M85.8756 10.7125C90.0766 5.58138 97.9234 5.58138 102.124 10.7125L107.584 17.3809C110.711 21.2006 115.927 22.5983 120.546 20.8539L128.608 17.8087C134.812 15.4655 141.607 19.3889 142.68 25.9331L144.074 34.4379C144.872 39.3095 148.691 43.128 153.562 43.9264L162.067 45.3203C168.611 46.3929 172.534 53.1885 170.191 59.3922L167.146 67.4545C165.402 72.0726 166.799 77.2888 170.619 80.4161L177.287 85.8756C182.419 90.0766 182.419 97.9234 177.287 102.124L170.619 107.584C166.799 110.711 165.402 115.927 167.146 120.546L170.191 128.608C172.534 134.812 168.611 141.607 162.067 142.68L153.562 144.074C148.691 144.872 144.872 148.691 144.074 153.562L142.68 162.067C141.607 168.611 134.812 172.534 128.608 170.191L120.546 167.146C115.927 165.402 110.711 166.799 107.584 170.619L102.124 177.287C97.9234 182.419 90.0766 182.419 85.8756 177.287L80.4161 170.619C77.2888 166.799 72.0726 165.402 67.4545 167.146L59.3922 170.191C53.1884 172.534 46.3929 168.611 45.3203 162.067L43.9264 153.562C43.128 148.691 39.3094 144.872 34.4379 144.074L25.9331 142.68C19.3889 141.607 15.4655 134.812 17.8087 128.608L20.8539 120.546C22.5983 115.927 21.2006 110.711 17.3809 107.584L10.7125 102.124C5.58138 97.9234 5.58138 90.0766 10.7125 85.8756L17.3809 80.4161C21.2006 77.2888 22.5983 72.0726 20.8539 67.4545L17.8087 59.3922C15.4655 53.1885 19.3889 46.3929 25.9331 45.3203L34.4379 43.9264C39.3095 43.128 43.128 39.3094 43.9264 34.4379L45.3203 25.9331C46.3929 19.3889 53.1885 15.4655 59.3922 17.8087L67.4545 20.8539C72.0726 22.5983 77.2888 21.2006 80.4161 17.3809L85.8756 10.7125Z" stroke="#583D2B"/>
<path d="M70.8934 98.424C70.8934 98.392 70.9254 98.376 70.9894 98.376C71.0374 98.376 71.0774 98.384 71.1094 98.4C71.1574 98.416 71.1814 98.44 71.1814 98.472C71.0374 99.48 70.9654 100.536 70.9654 101.64C70.9654 101.768 70.9334 101.864 70.8694 101.928C70.8214 101.976 70.7254 102 70.5814 102H60.5254C60.4934 102 60.4774 101.952 60.4774 101.856C60.4774 101.76 60.4934 101.712 60.5254 101.712C61.1334 101.712 61.5734 101.672 61.8454 101.592C62.1334 101.512 62.3254 101.36 62.4214 101.136C62.5334 100.896 62.5894 100.536 62.5894 100.056V88.944C62.5894 88.464 62.5334 88.112 62.4214 87.888C62.3254 87.664 62.1334 87.512 61.8454 87.432C61.5734 87.336 61.1334 87.288 60.5254 87.288C60.4934 87.288 60.4774 87.24 60.4774 87.144C60.4774 87.048 60.4934 87 60.5254 87H70.1734C70.3174 87 70.3894 87.072 70.3894 87.216L70.4374 90.168C70.4374 90.216 70.3974 90.248 70.3174 90.264C70.2374 90.264 70.1894 90.24 70.1734 90.192C70.1254 89.344 69.8694 88.688 69.4054 88.224C68.9414 87.744 68.3254 87.504 67.5574 87.504H66.0934C65.5334 87.504 65.1174 87.552 64.8454 87.648C64.5894 87.728 64.4054 87.88 64.2934 88.104C64.1974 88.312 64.1494 88.632 64.1494 89.064V93.936H67.0774C67.8454 93.936 68.3894 93.808 68.7094 93.552C69.0454 93.296 69.2134 92.864 69.2134 92.256C69.2134 92.224 69.2614 92.208 69.3574 92.208C69.4534 92.208 69.5014 92.224 69.5014 92.256L69.4774 94.2C69.4774 94.664 69.4854 95.016 69.5014 95.256L69.5254 96.408C69.5254 96.44 69.4774 96.456 69.3814 96.456C69.2854 96.456 69.2374 96.44 69.2374 96.408C69.2374 95.704 69.0614 95.2 68.7094 94.896C68.3734 94.592 67.8054 94.44 67.0054 94.44H64.1494V99.96C64.1494 100.408 64.1974 100.736 64.2934 100.944C64.3894 101.152 64.5654 101.296 64.8214 101.376C65.0774 101.456 65.4774 101.496 66.0214 101.496H67.9414C68.7094 101.496 69.3494 101.224 69.8614 100.68C70.3734 100.136 70.7174 99.384 70.8934 98.424ZM82.3921 101.712C82.4241 101.712 82.4401 101.76 82.4401 101.856C82.4401 101.952 82.4241 102 82.3921 102L81.6241 101.976C81.4481 101.96 81.1921 101.952 80.8561 101.952L79.3201 101.976C79.0801 101.992 78.7601 102 78.3601 102C78.3121 102 78.2881 101.952 78.2881 101.856C78.2881 101.76 78.3121 101.712 78.3601 101.712C78.6481 101.712 78.8481 101.696 78.9601 101.664C79.0881 101.616 79.1521 101.536 79.1521 101.424C79.1521 101.28 79.0561 101.064 78.8641 100.776L77.0401 98.016L75.6001 100.08C75.2801 100.56 75.1201 100.912 75.1201 101.136C75.1201 101.328 75.2241 101.472 75.4321 101.568C75.6561 101.664 76.0081 101.712 76.4881 101.712C76.5361 101.712 76.5601 101.76 76.5601 101.856C76.5601 101.952 76.5361 102 76.4881 102C76.0561 102 75.7361 101.992 75.5281 101.976L74.0881 101.952L73.2241 101.976C73.0641 101.992 72.8081 102 72.4561 102C72.4241 102 72.4081 101.952 72.4081 101.856C72.4081 101.76 72.4241 101.712 72.4561 101.712C72.8721 101.712 73.3201 101.56 73.8001 101.256C74.2961 100.952 74.7521 100.512 75.1681 99.936L76.8001 97.656L74.8561 94.728C74.4721 94.136 74.0721 93.704 73.6561 93.432C73.2401 93.16 72.8641 93.024 72.5281 93.024C72.4961 93.024 72.4801 92.976 72.4801 92.88C72.4801 92.784 72.4961 92.736 72.5281 92.736C72.8641 92.736 73.1121 92.744 73.2721 92.76L74.0161 92.784L75.5521 92.76C75.7761 92.744 76.0881 92.736 76.4881 92.736C76.5201 92.736 76.5361 92.784 76.5361 92.88C76.5361 92.976 76.5201 93.024 76.4881 93.024C76.2161 93.024 76.0161 93.048 75.8881 93.096C75.7601 93.128 75.6961 93.2 75.6961 93.312C75.6961 93.424 75.8001 93.64 76.0081 93.96L77.6641 96.456L78.8881 94.656C79.2241 94.16 79.3921 93.8 79.3921 93.576C79.3921 93.384 79.2801 93.248 79.0561 93.168C78.8481 93.072 78.4961 93.024 78.0001 93.024C77.9681 93.024 77.9521 92.976 77.9521 92.88C77.9521 92.784 77.9681 92.736 78.0001 92.736C78.4321 92.736 78.7601 92.744 78.9841 92.76L80.4241 92.784L81.2881 92.76C81.4481 92.744 81.7041 92.736 82.0561 92.736C82.0881 92.736 82.1041 92.784 82.1041 92.88C82.1041 92.976 82.0881 93.024 82.0561 93.024C81.6241 93.024 81.1681 93.176 80.6881 93.48C80.2241 93.768 79.7761 94.208 79.3441 94.8L77.8801 96.792L80.0161 100.008C80.4161 100.616 80.8241 101.056 81.2401 101.328C81.6721 101.584 82.0561 101.712 82.3921 101.712ZM90.1069 92.424C90.7629 92.424 91.3709 92.6 91.9309 92.952C92.4909 93.304 92.9389 93.816 93.2749 94.488C93.6109 95.16 93.7789 95.944 93.7789 96.84C93.7789 98.04 93.5069 99.056 92.9629 99.888C92.4189 100.704 91.7469 101.312 90.9469 101.712C90.1629 102.112 89.3869 102.312 88.6189 102.312C88.1229 102.312 87.6749 102.264 87.2749 102.168C86.8909 102.072 86.4909 101.912 86.0749 101.688V106.656C86.0749 107.136 86.1309 107.488 86.2429 107.712C86.3709 107.936 86.6029 108.088 86.9389 108.168C87.2749 108.264 87.7869 108.312 88.4749 108.312C88.5069 108.312 88.5229 108.36 88.5229 108.456C88.5229 108.552 88.5069 108.6 88.4749 108.6C87.9309 108.6 87.4989 108.592 87.1789 108.576L85.4269 108.552L84.1069 108.576C83.8829 108.592 83.5869 108.6 83.2189 108.6C83.1709 108.6 83.1469 108.552 83.1469 108.456C83.1469 108.36 83.1709 108.312 83.2189 108.312C83.6509 108.312 83.9709 108.264 84.1789 108.168C84.3869 108.088 84.5309 107.936 84.6109 107.712C84.6909 107.488 84.7309 107.136 84.7309 106.656V95.376C84.7309 94.8 84.6669 94.392 84.5389 94.152C84.4109 93.896 84.1869 93.768 83.8669 93.768C83.5149 93.768 83.0909 93.88 82.5949 94.104L82.5469 94.128C82.4829 94.128 82.4429 94.088 82.4269 94.008C82.3949 93.928 82.4029 93.872 82.4509 93.84L85.1149 92.568C85.1469 92.552 85.2029 92.544 85.2829 92.544C85.5069 92.544 85.6909 92.712 85.8349 93.048C85.9789 93.384 86.0589 93.864 86.0749 94.488C87.4349 93.112 88.7789 92.424 90.1069 92.424ZM89.3389 101.808C90.1869 101.808 90.8829 101.44 91.4269 100.704C91.9709 99.952 92.2429 98.912 92.2429 97.584C92.2429 96.24 91.9469 95.2 91.3549 94.464C90.7629 93.712 90.0109 93.336 89.0989 93.336C88.5389 93.336 88.0189 93.472 87.5389 93.744C87.0589 94.016 86.5709 94.4 86.0749 94.896V100.296C86.5229 100.792 86.9949 101.168 87.4909 101.424C88.0029 101.68 88.6189 101.808 89.3389 101.808ZM103.085 100.656C103.133 100.656 103.173 100.688 103.205 100.752C103.253 100.8 103.261 100.848 103.229 100.896C102.173 101.824 101.005 102.288 99.7248 102.288C98.7968 102.288 98.0048 102.072 97.3488 101.64C96.6928 101.208 96.1888 100.64 95.8368 99.936C95.5008 99.232 95.3328 98.48 95.3328 97.68C95.3328 96.736 95.5568 95.872 96.0048 95.088C96.4528 94.288 97.0608 93.664 97.8288 93.216C98.6128 92.752 99.4688 92.52 100.397 92.52C101.293 92.52 101.981 92.76 102.461 93.24C102.941 93.72 103.181 94.392 103.181 95.256C103.181 95.48 103.157 95.64 103.109 95.736C103.077 95.832 103.013 95.88 102.917 95.88L96.9648 95.904C96.9328 96.256 96.9168 96.544 96.9168 96.768C96.9168 98.16 97.2448 99.288 97.9008 100.152C98.5568 101.016 99.4768 101.448 100.661 101.448C101.141 101.448 101.549 101.384 101.885 101.256C102.237 101.128 102.629 100.928 103.061 100.656H103.085ZM99.6048 93C98.9168 93 98.3488 93.232 97.9008 93.696C97.4528 94.144 97.1568 94.776 97.0128 95.592L101.573 95.496C101.573 94.68 101.397 94.064 101.045 93.648C100.693 93.216 100.213 93 99.6048 93ZM110.626 92.52C110.978 92.52 111.314 92.616 111.634 92.808C111.954 93 112.114 93.232 112.114 93.504C112.114 93.712 112.042 93.888 111.898 94.032C111.77 94.176 111.578 94.248 111.322 94.248C111.178 94.248 111.05 94.224 110.938 94.176C110.842 94.112 110.722 94.024 110.578 93.912C110.434 93.784 110.298 93.688 110.17 93.624C110.042 93.56 109.89 93.528 109.714 93.528C109.506 93.528 109.282 93.616 109.042 93.792C108.818 93.968 108.458 94.344 107.962 94.92V100.056C107.962 100.536 108.018 100.888 108.13 101.112C108.258 101.336 108.482 101.496 108.802 101.592C109.122 101.672 109.618 101.712 110.29 101.712C110.354 101.712 110.386 101.76 110.386 101.856C110.386 101.952 110.354 102 110.29 102C109.778 102 109.37 101.992 109.066 101.976L107.29 101.952L105.97 101.976C105.762 101.992 105.474 102 105.106 102C105.058 102 105.034 101.952 105.034 101.856C105.034 101.76 105.058 101.712 105.106 101.712C105.538 101.712 105.858 101.672 106.066 101.592C106.274 101.496 106.41 101.336 106.474 101.112C106.554 100.888 106.594 100.536 106.594 100.056V95.304C106.594 94.76 106.53 94.368 106.402 94.128C106.274 93.888 106.058 93.768 105.754 93.768C105.498 93.768 105.066 93.888 104.458 94.128H104.41C104.346 94.128 104.298 94.096 104.266 94.032C104.25 93.952 104.274 93.896 104.338 93.864L107.122 92.544L107.266 92.52C107.41 92.52 107.562 92.704 107.722 93.072C107.882 93.44 107.962 93.912 107.962 94.488V94.512C108.618 93.744 109.138 93.224 109.522 92.952C109.906 92.664 110.274 92.52 110.626 92.52ZM119.992 100.752C120.056 100.752 120.104 100.792 120.136 100.872C120.168 100.936 120.16 100.984 120.112 101.016C119.52 101.48 118.984 101.808 118.504 102C118.04 102.192 117.552 102.288 117.04 102.288C116.368 102.288 115.816 102.136 115.384 101.832C114.952 101.528 114.736 101.024 114.736 100.32V94.68C114.736 94.264 114.704 93.968 114.64 93.792C114.592 93.616 114.488 93.504 114.328 93.456C114.168 93.392 113.896 93.36 113.512 93.36C113.448 93.36 113.416 93.312 113.416 93.216C113.416 93.104 113.448 93.048 113.512 93.048C114.152 93.032 114.672 92.864 115.072 92.544C115.472 92.208 115.704 91.768 115.768 91.224C115.768 91.176 115.832 91.152 115.96 91.152C116.072 91.152 116.128 91.176 116.128 91.224V93C116.928 92.984 118.04 92.904 119.464 92.76C119.496 92.76 119.528 92.824 119.56 92.952C119.608 93.064 119.632 93.192 119.632 93.336C119.632 93.464 119.6 93.6 119.536 93.744C119.488 93.872 119.432 93.928 119.368 93.912C118.488 93.688 117.408 93.56 116.128 93.528V99.504C116.128 100.16 116.288 100.648 116.608 100.968C116.944 101.288 117.416 101.448 118.024 101.448C118.728 101.448 119.368 101.224 119.944 100.776L119.992 100.752ZM122.821 94.2C122.821 94.76 123.005 95.208 123.373 95.544C123.741 95.864 124.277 96.208 124.981 96.576C125.541 96.864 125.973 97.112 126.277 97.32C126.597 97.528 126.869 97.8 127.093 98.136C127.317 98.472 127.429 98.88 127.429 99.36C127.429 100.176 127.125 100.864 126.517 101.424C125.909 101.984 125.085 102.264 124.045 102.264C123.197 102.264 122.429 102.024 121.741 101.544C121.645 101.48 121.597 101.384 121.597 101.256L121.549 99.384C121.549 99.336 121.589 99.312 121.669 99.312C121.765 99.296 121.821 99.312 121.837 99.36C122.141 100.16 122.533 100.768 123.013 101.184C123.509 101.6 124.077 101.808 124.717 101.808C125.245 101.808 125.645 101.68 125.917 101.424C126.189 101.168 126.309 100.792 126.277 100.296C126.261 99.688 126.069 99.224 125.701 98.904C125.349 98.568 124.813 98.224 124.093 97.872C123.565 97.616 123.141 97.384 122.821 97.176C122.517 96.968 122.253 96.696 122.029 96.36C121.821 96.024 121.717 95.608 121.717 95.112C121.717 94.248 122.037 93.592 122.677 93.144C123.333 92.68 124.101 92.448 124.981 92.448C125.621 92.448 126.205 92.568 126.733 92.808C126.829 92.84 126.885 92.88 126.901 92.928C126.933 92.96 126.949 93.008 126.949 93.072C126.949 93.392 126.941 93.64 126.925 93.816L126.901 94.824C126.901 94.856 126.853 94.872 126.757 94.872C126.661 94.872 126.613 94.856 126.613 94.824C126.613 94.488 126.485 94.176 126.229 93.888C125.973 93.584 125.653 93.344 125.269 93.168C124.885 92.992 124.501 92.904 124.117 92.904C123.717 92.904 123.397 93.016 123.157 93.24C122.933 93.448 122.821 93.768 122.821 94.2Z" fill="#583D2B"/>
</svg>
