<svg width="298" height="183" viewBox="0 0 298 183" fill="none" xmlns="http://www.w3.org/2000/svg">
<path d="M0.999999 151L8.75002 158.75C21.8668 171.867 43.1332 171.867 56.25 158.75V158.75C69.3667 145.633 90.6332 145.633 103.75 158.75V158.75C116.867 171.867 138.133 171.867 151.25 158.75V158.75C164.367 145.633 185.633 145.633 198.75 158.75V158.75C211.867 171.867 233.133 171.867 246.25 158.75V158.75C259.367 145.633 280.633 145.633 293.75 158.75L297.5 162.5" stroke="#FF862F"/>
<path d="M0.999999 106L8.75002 113.75C21.8668 126.867 43.1332 126.867 56.25 113.75V113.75C69.3667 100.633 90.6332 100.633 103.75 113.75V113.75C116.867 126.867 138.133 126.867 151.25 113.75V113.75C164.367 100.633 185.633 100.633 198.75 113.75V113.75C211.867 126.867 233.133 126.867 246.25 113.75V113.75C259.367 100.633 280.633 100.633 293.75 113.75L297.5 117.5" stroke="#FF862F"/>
<path d="M0.999999 61L8.75002 68.75C21.8668 81.8668 43.1332 81.8668 56.25 68.75V68.75C69.3667 55.6332 90.6332 55.6332 103.75 68.75V68.75C116.867 81.8668 138.133 81.8668 151.25 68.75V68.75C164.367 55.6332 185.633 55.6332 198.75 68.75V68.75C211.867 81.8668 233.133 81.8668 246.25 68.75V68.75C259.367 55.6332 280.633 55.6332 293.75 68.75L297.5 72.5" stroke="#FF862F"/>
<path d="M0.999999 16L8.75002 23.75C21.8668 36.8668 43.1332 36.8668 56.25 23.75V23.75C69.3667 10.6332 90.6332 10.6332 103.75 23.75V23.75C116.867 36.8668 138.133 36.8668 151.25 23.75V23.75C164.367 10.6332 185.633 10.6332 198.75 23.75V23.75C211.867 36.8668 233.133 36.8668 246.25 23.75V23.75C259.367 10.6332 280.633 10.6332 293.75 23.75L297.5 27.5" stroke="#FF862F"/>
</svg>
