<svg width="183" height="298" viewBox="0 0 183 298" fill="none" xmlns="http://www.w3.org/2000/svg">
<path d="M151 297.5L158.75 289.75C171.867 276.633 171.867 255.367 158.75 242.25V242.25C145.633 229.133 145.633 207.867 158.75 194.75V194.75C171.867 181.633 171.867 160.367 158.75 147.25V147.25C145.633 134.133 145.633 112.867 158.75 99.7501V99.7501C171.867 86.6333 171.867 65.3668 158.75 52.2501V52.2501C145.633 39.1333 145.633 17.8668 158.75 4.75005L162.5 0.999998" stroke="#71A364"/>
<path d="M106 297.5L113.75 289.75C126.867 276.633 126.867 255.367 113.75 242.25V242.25C100.633 229.133 100.633 207.867 113.75 194.75V194.75C126.867 181.633 126.867 160.367 113.75 147.25V147.25C100.633 134.133 100.633 112.867 113.75 99.7501V99.7501C126.867 86.6333 126.867 65.3668 113.75 52.2501V52.2501C100.633 39.1333 100.633 17.8668 113.75 4.75005L117.5 0.999998" stroke="#71A364"/>
<path d="M61 297.5L68.75 289.75C81.8668 276.633 81.8668 255.367 68.75 242.25V242.25C55.6332 229.133 55.6332 207.867 68.75 194.75V194.75C81.8668 181.633 81.8668 160.367 68.75 147.25V147.25C55.6333 134.133 55.6333 112.867 68.75 99.7501V99.7501C81.8668 86.6333 81.8668 65.3668 68.75 52.2501V52.2501C55.6333 39.1333 55.6333 17.8668 68.75 4.75005L72.5001 0.999998" stroke="#71A364"/>
<path d="M16 297.5L23.75 289.75C36.8668 276.633 36.8668 255.367 23.75 242.25V242.25C10.6332 229.133 10.6332 207.867 23.75 194.75V194.75C36.8668 181.633 36.8668 160.367 23.75 147.25V147.25C10.6333 134.133 10.6333 112.867 23.75 99.7501V99.7501C36.8668 86.6333 36.8668 65.3668 23.75 52.2501V52.2501C10.6333 39.1333 10.6333 17.8668 23.75 4.75005L27.5001 0.999998" stroke="#71A364"/>
</svg>
