<svg width="80" height="56" fill="none" xmlns="http://www.w3.org/2000/svg"><path d="M73.054 5H6.946C4.768 5 3 6.75 3 8.907v38.186C3 49.25 4.767 51 6.946 51h66.108C75.232 51 77 49.25 77 47.093V8.907C77 6.75 75.233 5 73.054 5zM17.697 37.567l-4.68-16.606c-1.619-.888-3.466-1.602-5.53-2.097l.067-.397h8.489c1.143.042 2.068.403 2.387 1.614l1.845 8.785.55 2.65 5.154-13.037h5.577L23.267 37.56l-5.57.007zm17.96.017h-5.262l3.291-19.12h5.265l-3.294 19.12zm9.162.283c-2.361-.024-4.635-.486-5.865-1.02l.739-4.28.678.304c1.73.714 2.849 1.004 4.956 1.004 1.513 0 3.137-.586 3.15-1.867.01-.837-.68-1.435-2.729-2.372-1.997-.915-4.642-2.447-4.613-5.194.031-3.716 3.696-6.31 8.898-6.31 2.041 0 3.675.416 4.719.803l-.714 4.144-.472-.22a9.803 9.803 0 00-3.94-.733c-2.061 0-3.015.85-3.015 1.645-.012.895 1.115 1.485 2.955 2.37 3.037 1.364 4.44 3.02 4.42 5.194-.04 3.969-3.633 6.532-9.167 6.532zm22.809-.277s-.483-2.196-.64-2.865l-6.743-.008c-.204.517-1.108 2.873-1.108 2.873h-5.529l7.819-17.522c.553-1.245 1.496-1.585 2.757-1.585h4.068l4.261 19.107h-4.885z" fill="#100F0A"/><path d="M61.76 30.806c.436-1.102 2.098-5.345 2.098-5.345-.031.051.432-1.106.698-1.824l.356 1.648 1.218 5.52h-4.37z" fill="#100F0A"/></svg>