<svg width="81" height="56" fill="none" xmlns="http://www.w3.org/2000/svg"><path fill-rule="evenodd" clip-rule="evenodd" d="M72.517 6.913H7.467A2.428 2.428 0 005.042 9.34V47.3a2.427 2.427 0 002.427 2.427h17.22c1.34 0 20.905-4.406 34.411-10.65 8.504-3.427 15.844-8.386 15.844-8.386V9.341a2.427 2.427 0 00-2.426-2.428zM2.129 47.3V9.34A5.34 5.34 0 017.468 4h65.049a5.34 5.34 0 015.339 5.34V47.3a5.34 5.34 0 01-5.34 5.34H7.469a5.34 5.34 0 01-5.34-5.34zm6.544-17.714v-9.625H11.6c3.234 0 5.489 1.979 5.489 4.82 0 1.416-.69 2.785-1.856 3.694-.982.767-2.1 1.111-3.648 1.111H8.673zm2.528-1.63c1.288 0 2.102-.232 2.729-.764.69-.579 1.104-1.502 1.104-2.426 0-.922-.415-1.818-1.104-2.396-.659-.561-1.44-.778-2.73-.778h-.534v6.365h.535zm8.8 1.63h-1.995v-9.625H20v9.625zm3.327-7.167c0 .52.352.795 1.548 1.212 2.269.781 2.941 1.474 2.941 3.003 0 1.863-1.454 3.16-3.526 3.16-1.518 0-2.62-.563-3.54-1.832l1.288-1.168c.46.836 1.226 1.284 2.177 1.284.89 0 1.548-.578 1.548-1.358 0-.404-.2-.75-.597-.996-.201-.116-.599-.289-1.379-.548-1.873-.635-2.515-1.313-2.515-2.64 0-1.575 1.38-2.758 3.188-2.758 1.121 0 2.147.361 3.005 1.068l-1.044 1.286c-.52-.548-1.01-.78-1.608-.78-.86 0-1.486.461-1.486 1.067zm10.514 7.358c-3.036 0-5.396-2.194-5.396-5.023 0-2.798 2.422-5.037 5.444-5.037.858 0 1.577.174 2.453.592v2.208c-.83-.763-1.55-1.082-2.5-1.082-1.871 0-3.342 1.457-3.342 3.306 0 1.948 1.425 3.32 3.434 3.32.904 0 1.61-.304 2.408-1.055v2.21c-.907.402-1.642.561-2.5.561zm15.586-9.83l2.726 6.464 2.762-6.465h2.162l-4.417 9.872h-1.073l-4.339-9.872h2.179zm14.207 9.64H57.98V19.96h5.655v1.63h-3.663v2.137H63.5v1.63h-3.528v2.599h3.663v1.63zm4.278-9.626c2.3 0 3.618 1.04 3.618 2.842 0 1.473-.827 2.44-2.33 2.728l3.22 4.055h-2.453l-2.76-3.866h-.26v3.866h-1.992v-9.625h2.957zm-.965 4.43h.582c1.274 0 1.949-.52 1.949-1.487 0-.937-.675-1.427-1.917-1.427h-.614v2.915zm-29.956.378v.003c0 2.828 2.435 5.12 5.439 5.12s5.439-2.292 5.439-5.12v-.003c0-2.828-2.435-5.117-5.439-5.117s-5.439 2.289-5.439 5.117z" fill="#100F0A"/></svg>