<svg width="1440" height="480" viewBox="0 0 1440 480" fill="none" xmlns="http://www.w3.org/2000/svg">
<path d="M0 130.5L66.4179 78.4186C124.389 32.9608 205.906 32.9608 263.877 78.4185L304.893 110.582C362.864 156.039 444.381 156.039 502.352 110.581L543.369 78.4185C601.34 32.9607 682.857 32.9608 740.828 78.4185L781.844 110.582C839.815 156.039 921.332 156.039 979.303 110.581L1020.32 78.4185C1078.29 32.9607 1159.81 32.9608 1217.78 78.4185L1258.8 110.582C1316.77 156.039 1398.28 156.039 1456.25 110.581L1596 1" stroke="url(#paint0_linear_60_766)"/>
<path d="M0 203.5L66.4179 151.419C124.389 105.961 205.906 105.961 263.877 151.419L304.893 183.582C362.864 229.039 444.381 229.039 502.352 183.581L543.369 151.418C601.34 105.961 682.857 105.961 740.828 151.419L781.844 183.582C839.815 229.039 921.332 229.039 979.303 183.581L1020.32 151.418C1078.29 105.961 1159.81 105.961 1217.78 151.419L1258.8 183.582C1316.77 229.039 1398.28 229.039 1456.25 183.581L1596 74" stroke="url(#paint1_linear_60_766)"/>
<path d="M0 276.5L66.4179 224.419C124.389 178.961 205.906 178.961 263.877 224.419L304.893 256.582C362.864 302.039 444.381 302.039 502.352 256.581L543.369 224.418C601.34 178.961 682.857 178.961 740.828 224.419L781.844 256.582C839.815 302.039 921.332 302.039 979.303 256.581L1020.32 224.418C1078.29 178.961 1159.81 178.961 1217.78 224.419L1258.8 256.582C1316.77 302.039 1398.28 302.039 1456.25 256.581L1596 147" stroke="url(#paint2_linear_60_766)"/>
<path d="M0 349.5L66.4179 297.419C124.389 251.961 205.906 251.961 263.877 297.419L304.893 329.582C362.864 375.039 444.381 375.039 502.352 329.581L543.369 297.418C601.34 251.961 682.857 251.961 740.828 297.419L781.844 329.582C839.815 375.039 921.332 375.039 979.303 329.581L1020.32 297.418C1078.29 251.961 1159.81 251.961 1217.78 297.419L1258.8 329.582C1316.77 375.039 1398.28 375.039 1456.25 329.581L1596 220" stroke="url(#paint3_linear_60_766)"/>
<path d="M0 422.5L66.4179 370.419C124.389 324.961 205.906 324.961 263.877 370.419L304.893 402.582C362.864 448.039 444.381 448.039 502.352 402.581L543.369 370.418C601.34 324.961 682.857 324.961 740.828 370.419L781.844 402.582C839.815 448.039 921.332 448.039 979.303 402.581L1020.32 370.418C1078.29 324.961 1159.81 324.961 1217.78 370.419L1258.8 402.582C1316.77 448.039 1398.28 448.039 1456.25 402.581L1596 293" stroke="url(#paint4_linear_60_766)"/>
<defs>
<linearGradient id="paint0_linear_60_766" x1="1400.25" y1="143.5" x2="142.83" y2="143.5" gradientUnits="userSpaceOnUse">
<stop stop-color="white"/>
<stop offset="1" stop-color="white" stop-opacity="0"/>
</linearGradient>
<linearGradient id="paint1_linear_60_766" x1="1400.25" y1="216.5" x2="142.83" y2="216.5" gradientUnits="userSpaceOnUse">
<stop stop-color="white"/>
<stop offset="1" stop-color="white" stop-opacity="0"/>
</linearGradient>
<linearGradient id="paint2_linear_60_766" x1="1400.25" y1="289.5" x2="142.83" y2="289.5" gradientUnits="userSpaceOnUse">
<stop stop-color="white"/>
<stop offset="1" stop-color="white" stop-opacity="0"/>
</linearGradient>
<linearGradient id="paint3_linear_60_766" x1="1400.25" y1="362.5" x2="142.83" y2="362.5" gradientUnits="userSpaceOnUse">
<stop stop-color="white"/>
<stop offset="1" stop-color="white" stop-opacity="0"/>
</linearGradient>
<linearGradient id="paint4_linear_60_766" x1="1400.25" y1="435.5" x2="142.83" y2="435.5" gradientUnits="userSpaceOnUse">
<stop stop-color="white"/>
<stop offset="1" stop-color="white" stop-opacity="0"/>
</linearGradient>
</defs>
</svg>
