<svg width="80" height="56" viewBox="0 0 80 56" fill="none" xmlns="http://www.w3.org/2000/svg">
<path d="M73.054 5H6.94586C4.76754 5 3 6.74919 3 8.90708V47.0929C3 49.2513 4.76668 51 6.94586 51H73.054C75.2325 51 77 49.2508 77 47.0929V8.90708C77 6.74882 75.2333 5 73.054 5ZM17.6971 37.5673L13.0165 20.9613C11.3982 20.0731 9.55143 19.3592 7.48637 18.8644L7.55356 18.4667H16.043C17.1865 18.5088 18.1109 18.87 18.4296 20.0808L20.2752 28.8657L20.2756 28.8667L20.8248 31.5162L25.9791 18.4787H31.5559L23.2674 37.5601L17.6971 37.5666V37.5673ZM35.657 37.5836H30.3946L30.3945 37.5835L33.6862 18.4644H38.9509L35.657 37.5836ZM44.8187 37.8673C42.4576 37.8433 40.1838 37.381 38.954 36.8473L39.693 32.5674L40.3712 32.8712C42.1003 33.585 43.2198 33.8747 45.3269 33.8747C46.8401 33.8747 48.4637 33.2893 48.4767 32.0078C48.4865 31.1709 47.7975 30.5733 45.7484 29.6362C43.7514 28.7215 41.1059 27.1891 41.1351 24.4419C41.1663 20.7256 44.8308 18.1324 50.033 18.1324C52.074 18.1324 53.7085 18.5481 54.7516 18.9354L54.0379 23.0794L53.566 22.8586C52.5944 22.4714 51.3473 22.0998 49.6258 22.1261C47.5647 22.1261 46.6108 22.976 46.6108 23.7707C46.5988 24.6662 47.7258 25.2565 49.566 26.1408C52.6034 27.5054 54.006 29.1605 53.9861 31.3354C53.9453 35.304 50.3528 37.8673 44.8187 37.8673ZM67.6279 37.5897C67.6279 37.5897 67.145 35.3941 66.9874 34.7249C66.2197 34.7249 60.8491 34.7166 60.2449 34.7166C60.0406 35.2337 59.1365 37.5897 59.1365 37.5897H53.608L61.4269 20.0683C61.9804 18.8233 62.9235 18.4829 64.1839 18.4829H68.252L72.5132 37.5901H67.6279V37.5897Z" fill="#100F0A"/>
<path d="M61.7603 30.8059C62.1957 29.7042 63.8578 25.4613 63.8578 25.4613C63.8267 25.5123 64.2899 24.3545 64.5558 23.6367L64.9118 25.2849C64.9118 25.2849 65.9198 29.8487 66.1305 30.8058H61.7602L61.7603 30.8059Z" fill="#100F0A"/>
</svg>
