<svg width="81" height="56" viewBox="0 0 81 56" fill="none" xmlns="http://www.w3.org/2000/svg">
<path fill-rule="evenodd" clip-rule="evenodd" d="M78.2379 27.5073C78.2379 15.0773 68.1611 5.00043 55.7315 5.00043C50.3377 5.00043 45.4297 6.88808 41.5536 10.0521C44.5103 12.9067 46.7674 16.4808 47.9784 20.5209H46.1085C44.9365 16.929 42.8779 13.7599 40.202 11.2167C37.5082 13.7821 35.4921 16.975 34.334 20.5101H32.4636C33.6579 16.544 35.8467 12.9493 38.8218 10.0676C34.9552 6.93611 30.0706 5 24.7071 5C12.2775 5 2.2002 15.0768 2.2002 27.5069C2.2002 39.9365 12.277 50.0133 24.7071 50.0133C30.0702 50.0133 34.9552 48.0772 38.8218 44.9457C35.888 42.0997 33.6694 38.5208 32.4636 34.5037H34.334C35.4922 38.0387 37.5082 41.2316 40.202 43.797C42.8784 41.2535 44.9365 38.0847 46.1085 34.4924H47.9784C46.7674 38.5325 44.5103 42.1071 41.5536 44.9613C45.4297 48.1248 50.3377 50.0129 55.7315 50.0129C68.1611 50.0133 78.2379 39.9365 78.2379 27.5073Z" fill="#100F0A"/>
<path fill-rule="evenodd" clip-rule="evenodd" d="M61.6958 32.7792L63.2499 24.4515H65.2146L65.4201 25.2723C65.7722 24.8612 66.4467 24.4515 67.5902 24.4515L66.975 26.6208C66.4173 26.6208 65.3617 26.475 64.6876 28.9671L63.9837 32.7792H61.6958ZM31.5812 22.335H33.8457L33.3811 24.5415H34.5998L34.194 26.3413H33.0328L32.3938 29.7087C32.2774 30.3477 32.3358 30.9287 33.6424 30.7254L33.497 32.4088C33.0034 32.7281 32.3358 32.8159 31.8127 32.8159C31.2905 32.8159 29.5772 32.4958 30.0133 30.2317L31.5812 22.335ZM41.3942 29.0705C41.6555 27.7345 42.2655 24.4256 38.2882 24.4256C34.6297 24.4256 34.1655 28.0542 34.0785 28.5764C33.9915 29.0995 33.9336 32.7861 37.8525 32.7861C38.8108 32.8155 40.2044 32.6991 40.7564 32.4084L41.1047 30.6964C40.7564 30.7825 39.4494 30.8993 38.5491 30.8993C37.6496 30.8993 36.198 30.9577 36.4589 29.0705H41.3942ZM29.4336 26.3997L29.9558 24.7154C28.8815 24.3092 28.04 24.3966 27.7203 24.3966C27.4005 24.3966 24.6822 24.3633 24.2656 26.3708C23.9463 27.9097 24.5096 28.5461 25.0495 28.7802C25.9209 29.1579 26.4145 29.5062 26.8792 29.7385C27.4538 30.0258 27.3482 30.9867 26.5885 30.9867C26.2397 30.9867 24.7307 31.1606 23.5984 30.7829L23.2791 32.4958C24.3244 32.7865 25.1655 32.7865 25.9503 32.7865C26.5015 32.7865 29.2017 32.9319 29.5785 30.4346C29.7628 29.2172 29.2302 28.6634 28.7945 28.4033C28.3593 28.1126 27.6333 27.7063 27.1691 27.5026C26.7044 27.2997 26.3561 26.5161 27.1981 26.2838C27.7203 26.2254 28.7941 26.2254 29.4336 26.3997ZM14.7434 32.7861L16.6302 22.7413H12.9146L10.156 28.8382L9.72031 22.7413H6.09168L4.14648 32.7861H6.41054L7.80411 25.5284L8.41414 32.7861H10.5622L13.7271 25.7027L12.3915 32.7861H14.7434ZM17.2393 24.6869L16.891 26.4867C17.4431 26.4292 18.9236 26.1968 19.7072 26.2254C20.4916 26.2544 21.3621 26.1384 21.1007 27.3866C20.5201 27.445 16.4558 26.806 15.8176 30.2893C15.5563 32.003 17.0364 32.8735 18.1976 32.8159C19.3589 32.7575 19.6782 32.6122 20.0849 32.3214L20.3752 32.7861H22.4939L23.3942 28.2575C23.6265 27.1253 24.0034 24.3961 20.2008 24.3961C19.5043 24.4256 18.7207 24.3961 17.2393 24.6869ZM53.9358 25.0637C53.3543 24.715 52.9489 24.6575 52.1935 24.6575C51.439 24.6575 49.7547 25.3787 49.4363 27.4156C49.0586 29.825 50.713 31.0148 53.0359 30.2317L53.7035 32.2639C52.9489 32.6122 52.1935 32.7861 50.9453 32.7861C48.5935 32.7861 46.0391 30.6964 47.2003 26.4573C48.0565 23.334 50.7429 22.1901 52.3103 22.248C54.1677 22.3173 54.8362 22.9446 55.4168 23.5836L53.9358 25.0637ZM73.2419 25.412C72.8058 25.0931 72.5458 24.4256 71.4707 24.4256C70.2225 24.4256 68.2773 24.1932 67.1745 27.9672C66.4368 30.4896 67.929 32.7865 69.554 32.7865C70.3094 32.758 71.064 32.4382 71.5278 32.1189L71.8194 32.7865H74.2574L76.232 22.2195H73.8507L73.2419 25.412ZM55.5617 24.6869L55.2126 26.4867C55.7651 26.4292 57.2447 26.1968 58.0291 26.2254C58.8131 26.2544 59.6844 26.1384 59.4227 27.3866C58.8421 27.445 54.7777 26.806 54.1396 30.2893C53.8778 32.003 55.3579 32.8735 56.5192 32.8159C57.6813 32.7575 57.9997 32.6122 58.4068 32.3214L58.6976 32.7861H60.8158L61.7166 28.2575C61.9489 27.1253 62.3258 24.3961 58.5223 24.3961C57.8262 24.4256 57.0422 24.3961 55.5617 24.6869Z" fill="white"/>
<path fill-rule="evenodd" clip-rule="evenodd" d="M36.6047 27.561H39.4208C39.5662 26.748 39.3049 26.051 38.405 26.051C37.5046 26.051 36.8661 26.5157 36.6047 27.561ZM20.7248 29.0705C20.3471 29.0112 19.5051 28.7797 18.7791 29.2734C18.0531 29.7671 17.8502 30.6371 18.6052 30.9287C19.3316 31.2078 20.4042 30.7258 20.5504 29.9695L20.7248 29.0705ZM72.4299 28.8087C72.6622 28.0542 72.5354 27.1119 72.2845 26.7774C71.5884 25.8485 69.9863 26.5828 69.4978 28.4033C69.1785 29.5931 69.8755 30.493 70.659 30.493C71.5014 30.4926 72.0236 29.825 72.4299 28.8087ZM59.0467 29.0705C58.669 29.0112 57.8275 28.7797 57.1015 29.2734C56.3755 29.7671 56.1722 30.6371 56.9276 30.9287C57.6544 31.2078 58.7265 30.7258 58.8719 29.9695L59.0467 29.0705Z" fill="#100F0A"/>
<path fill-rule="evenodd" clip-rule="evenodd" d="M41.46 32.7861L42.9989 24.5415H44.9441L45.147 25.3545C45.4961 24.9478 46.1637 24.5415 47.2951 24.5415L46.7145 26.719C46.1637 26.719 45.0886 26.5451 44.421 29.0116L43.7249 32.7865H41.46V32.7861Z" fill="white"/>
</svg>
