<svg width="81" height="56" viewBox="0 0 81 56" fill="none" xmlns="http://www.w3.org/2000/svg">
<path fill-rule="evenodd" clip-rule="evenodd" d="M72.5166 6.91256H7.46783C6.12844 6.91256 5.04147 7.99973 5.04147 9.34019V47.2996C5.04147 48.6408 6.12786 49.7273 7.46773 49.7273H24.6887C26.0281 49.7273 45.593 45.3205 59.0993 39.0771C67.6031 35.6501 74.943 30.6911 74.943 30.6911V9.34019C74.943 7.99905 73.8567 6.91256 72.5166 6.91256ZM2.12891 47.2996V9.34019C2.12891 6.39122 4.51973 4 7.46783 4H72.5166C75.4655 4 77.8556 6.39073 77.8556 9.34019V47.2996C77.8556 50.2486 75.4647 52.6398 72.5166 52.6398H7.46783C4.51896 52.6398 2.12891 50.2491 2.12891 47.2996ZM8.67293 29.5861V19.9609H11.6001C14.8342 19.9609 17.0885 21.9395 17.0885 24.7802C17.0885 26.1967 16.3989 27.5662 15.2325 28.475C14.2512 29.2421 13.1329 29.5861 11.5847 29.5861H8.67293ZM11.2006 27.9566C12.4893 27.9566 13.3031 27.7242 13.9297 27.1918V27.1917C14.6194 26.6135 15.0343 25.6902 15.0343 24.7664C15.0343 23.8442 14.6194 22.9484 13.9297 22.3701C13.2711 21.809 12.4893 21.5919 11.2006 21.5919H10.6656V27.9566H11.2006ZM20.0002 29.5861H18.006V19.9609H20.0002V29.5861ZM23.3283 22.4194C23.3283 22.9392 23.6798 23.2144 24.8764 23.6312C27.1448 24.4121 27.817 25.1045 27.817 26.6336C27.817 28.497 26.3632 29.7941 24.2909 29.7941C22.7734 29.7941 21.6701 29.2315 20.7513 27.9619L22.0395 26.7939C22.4989 27.6298 23.2649 28.0776 24.2161 28.0776C25.1057 28.0776 25.7644 27.4996 25.7644 26.7199C25.7644 26.3157 25.5649 25.9691 25.1666 25.7241C24.9659 25.6079 24.5685 25.4351 23.788 25.1759C21.915 24.5412 21.2726 23.8625 21.2726 22.5365C21.2726 20.9612 22.6524 19.7783 24.4613 19.7783C25.5822 19.7783 26.6079 20.1394 27.4655 20.8456L26.422 22.1319C25.9025 21.5837 25.4113 21.3524 24.814 21.3524C23.9545 21.3524 23.3283 21.8132 23.3283 22.4194ZM33.8421 29.777C30.8056 29.777 28.4461 27.5832 28.4461 24.7542H28.446C28.446 21.9556 30.8683 19.7174 33.8896 19.7174C34.7476 19.7174 35.4672 19.8907 36.3429 20.3086V22.5175C35.5134 21.754 34.7937 21.4346 33.8422 21.4346C31.972 21.4346 30.5011 22.8923 30.5011 24.7405C30.5011 26.6894 31.9265 28.0605 33.935 28.0605C34.8391 28.0605 35.5454 27.7573 36.3429 27.0062V29.2162C35.436 29.6182 34.701 29.777 33.8421 29.777ZM49.4277 19.9461L52.1543 26.4112L52.1544 26.4113L54.9161 19.9461H57.0777L52.6611 29.8178H51.5879L47.2494 19.9461H49.4277ZM63.6348 29.5861H57.9795V19.9609H63.6348V21.5919H59.9722V23.7282H63.4998V25.3584H59.9722V27.9566H63.6348V29.5861ZM67.9127 19.9609C70.2127 19.9609 71.5307 21.0007 71.5307 22.8026V22.8027C71.5307 24.2763 70.704 25.2436 69.2019 25.5313L72.4202 29.5861H69.9678L67.2077 25.7195H66.9478V29.5861H64.9559V19.9609H67.9127ZM66.9478 24.3919H67.5303C68.8038 24.3919 69.4788 23.8714 69.4788 22.9038C69.4788 21.967 68.8038 21.477 67.562 21.477H66.9478V24.3919ZM36.9922 24.7686V24.7719H36.9921C36.9921 27.5999 39.4272 29.8925 42.431 29.8925C45.4348 29.8925 47.8699 27.6 47.8699 24.7719V24.7686C47.8699 21.9406 45.4348 19.6515 42.431 19.6515C39.4272 19.6515 36.9922 21.9406 36.9922 24.7686Z" fill="#100F0A"/>
</svg>
