<svg width="81" height="56" viewBox="0 0 81 56" fill="none" xmlns="http://www.w3.org/2000/svg">
<path fill-rule="evenodd" clip-rule="evenodd" d="M72.641 4H7.35897C4.40404 4 2 6.41313 2 9.37924V47.6208C2 50.5869 4.40404 53 7.35897 53H72.641C75.5958 53 78 50.5869 78 47.6208V9.37924C78 6.41313 75.5958 4 72.641 4ZM13.768 29.2039C13.7043 29.2039 13.5553 29.1935 13.3218 29.1722C13.0877 29.151 12.8858 29.1402 12.716 29.1402C12.5457 29.1402 12.3653 29.1562 12.1741 29.1879C11.9828 29.2197 11.8233 29.2896 11.6959 29.3962C11.5684 29.503 11.4937 29.6417 11.4727 29.8122L10.899 33.3317C10.8561 33.7373 10.6226 33.9397 10.1977 33.9397H7.77503C7.64748 33.9397 7.54108 33.8866 7.45631 33.7797C7.37115 33.6731 7.3392 33.5558 7.36073 33.4276L9.4327 20.3725C9.47509 19.9673 9.69822 19.7646 10.102 19.7646H15.2025C16.5199 19.7646 17.5877 20.0476 18.4062 20.6124C19.2241 21.178 19.6336 22.0899 19.6336 23.3483C19.6336 25.1833 19.1125 26.6177 18.0715 27.6521C17.03 28.687 15.5955 29.2039 13.768 29.2039ZM30.7905 24.9801L29.4835 33.3315C29.4198 33.7371 29.1857 33.9395 28.7823 33.9395H26.5828C26.3065 33.9395 26.1684 33.7693 26.1684 33.4276C26.1684 33.2358 26.2107 33.0117 26.2959 32.7559C25.9134 33.1826 25.4033 33.5238 24.7658 33.7798C24.1284 34.0355 23.5117 34.1638 22.917 34.1638C21.6842 34.1638 20.7016 33.7908 19.9683 33.0438C19.2351 32.2975 18.8685 31.295 18.8685 30.0361C18.8685 28.4791 19.4049 27.1242 20.4782 25.9722C21.5514 24.8203 22.8531 24.2442 24.3833 24.2442C25.8283 24.2442 26.8379 24.6713 27.4117 25.5243C27.4755 24.8203 27.6558 24.4682 27.9537 24.4682H30.3764C30.5037 24.4682 30.6098 24.5217 30.695 24.6282C30.7796 24.7349 30.8114 24.8521 30.7905 24.9801ZM34.9667 37.2353H32.5121C32.2356 37.2353 32.0977 37.0968 32.0977 36.8192C32.0977 36.6489 32.9687 35.369 34.7115 32.9795C34.6901 32.8948 34.4406 32.1477 33.9624 30.7401C33.5168 29.4278 33.0706 28.1158 32.6237 26.804C32.2094 25.5881 32.0022 24.9591 32.0022 24.9161C32.0022 24.8097 32.0445 24.7081 32.1297 24.6123C32.2142 24.5162 32.3098 24.4681 32.4163 24.4681H34.8074C35.1684 24.4681 35.402 24.6392 35.5086 24.9802L36.9113 29.78L40.2903 24.788C40.4387 24.5753 40.6298 24.4681 40.8641 24.4681H43.3187C43.4246 24.4681 43.5204 24.5163 43.6056 24.6123C43.69 24.7081 43.7329 24.8096 43.7329 24.9161C43.7329 25.0233 43.7116 25.0977 43.6693 25.14L35.5406 36.9156C35.3914 37.129 35.2003 37.2353 34.9667 37.2353ZM49.9806 29.2039C49.9172 29.2039 49.7679 29.1935 49.5343 29.1722C49.3004 29.151 49.0987 29.1402 48.9288 29.1402C48.7584 29.1402 48.578 29.1562 48.3868 29.1879C48.1953 29.2197 48.0361 29.2896 47.9087 29.3962C47.7809 29.503 47.7066 29.6417 47.6855 29.8122L47.1116 33.5238C47.0264 33.8012 46.8565 33.9397 46.6016 33.9397H43.9878C43.8601 33.9397 43.7534 33.8866 43.669 33.7797C43.5838 33.6731 43.5519 33.5558 43.5736 33.4276L45.6454 20.3725C45.6876 19.9673 45.9215 19.7646 46.3468 19.7646H51.4153C52.7329 19.7646 53.8006 20.0476 54.6189 20.6124C55.437 21.178 55.8463 22.0899 55.8462 23.3483C55.8462 25.1833 55.3254 26.6177 54.2842 27.6521C53.2425 28.687 51.8084 29.2039 49.9806 29.2039ZM67.0035 24.9801L65.6964 33.3315C65.6328 33.7371 65.3986 33.9395 64.9954 33.9395H62.7957C62.519 33.9395 62.3812 33.7693 62.3812 33.4276C62.3812 33.3429 62.4022 33.2146 62.445 33.0436C62.4872 32.873 62.5089 32.7772 62.5089 32.7559C62.147 33.1826 61.648 33.5238 61.0104 33.7798C60.3729 34.0355 59.7459 34.1638 59.1298 34.1638C57.8969 34.1638 56.9141 33.7908 56.1808 33.0438C55.4478 32.2975 55.0812 31.295 55.0812 30.0361C55.0812 28.4791 55.6176 27.1242 56.691 25.9722C57.7638 24.8203 59.0658 24.2442 60.5959 24.2442C62.0625 24.2442 63.0713 24.6713 63.6245 25.5243C63.6881 24.8203 63.8684 24.4682 64.1661 24.4682H66.5889C66.7164 24.4682 66.8223 24.5217 66.9076 24.6282C66.9926 24.7349 67.0244 24.8521 67.0035 24.9801ZM72.6458 20.2443L70.5738 33.3318C70.5309 33.7374 70.3076 33.9398 69.9044 33.9398H67.8002C67.6729 33.9398 67.5662 33.8918 67.4816 33.7958C67.3964 33.6999 67.3538 33.5989 67.3538 33.4918L67.3857 33.4279L69.4579 20.1168C69.5001 19.8821 69.6381 19.7647 69.8724 19.7647H72.2311C72.5072 19.7647 72.6457 19.914 72.6458 20.2126V20.2443ZM63.7249 27.2247C63.3154 26.8599 62.801 26.6774 62.1823 26.6774C61.3638 26.6774 60.6776 26.9594 60.1252 27.5235C59.5721 28.0874 59.2957 28.7791 59.2957 29.5969C59.2957 30.2168 59.4948 30.7035 59.893 31.0568C60.2913 31.4109 60.8106 31.5875 61.4524 31.5875C62.2487 31.5875 62.9288 31.3111 63.4927 30.7581C64.0568 30.2055 64.3388 29.5307 64.3389 28.7345C64.3388 28.0931 64.1338 27.5898 63.7249 27.2247ZM26.0351 27.2247C25.6255 26.8599 25.1113 26.6774 24.4922 26.6774C23.6736 26.6774 22.9877 26.9594 22.4353 27.5235C21.8821 28.0874 21.6056 28.7791 21.6056 29.5969C21.6056 30.2168 21.799 30.7035 22.1864 31.0568C22.5731 31.4109 23.0874 31.5875 23.7292 31.5875C24.547 31.5875 25.2386 31.3172 25.8028 30.7745C26.3668 30.2332 26.6488 29.5529 26.6488 28.7345C26.6488 28.0931 26.444 27.5898 26.0351 27.2247ZM51.4662 22.3646C51.7533 22.4092 52.0301 22.5471 52.2955 22.7793C52.5611 23.0115 52.6936 23.349 52.6937 23.7913C52.6937 24.7204 52.4502 25.3505 51.9638 25.6826C51.4771 26.0143 50.7472 26.1801 49.7741 26.1801L48.7123 26.2132L49.2765 22.6632C49.3203 22.4201 49.464 22.2984 49.7077 22.2984H50.3047C50.7911 22.2984 51.1782 22.3205 51.4662 22.3646ZM12.6156 22.2985C13.4999 22.2985 14.1417 22.426 14.5399 22.6799C14.9378 22.9345 15.0705 23.471 14.9377 24.2892C14.8268 25.0635 14.5396 25.5719 14.0751 25.8153C13.6106 26.059 12.947 26.1802 12.0845 26.1802L10.9896 26.2133L11.5538 22.6633C11.5979 22.4202 11.7416 22.2985 11.985 22.2985H12.6156Z" fill="#100F0A"/>
</svg>
