<svg width="81" height="56" viewBox="0 0 81 56" fill="none" xmlns="http://www.w3.org/2000/svg">
<path d="M13.5 3C9.3875 3 6 6.3875 6 10.5V45.5C6 49.6125 9.3875 53 13.5 53H68.5C72.6125 53 76 49.6125 76 45.5V10.5C76 6.3875 72.6125 3 68.5 3H13.5ZM13.5 8H68.5C69.9125 8 71 9.0875 71 10.5V45.5C71 46.9125 69.9125 48 68.5 48H13.5C12.0875 48 11 46.9125 11 45.5V10.5C11 9.0875 12.0875 8 13.5 8ZM18.6575 21.125L13.5 34.875H16.625L17.64 31.75H23.5L24.515 34.875H30.375V24.5625L34.125 34.875H36.86L40.685 24.875V34.875H43.4225V21.125H38.965L35.525 30.425L32.0925 21.125H27.25V34.175L22.405 21.125H18.655H18.6575ZM47.1725 21.125V34.875H58.1825L61.62 30.425L65.055 34.875H68.5L63.3425 28L68.5 21.125H64.75L61.3125 25.265L58.5 21.125H47.175H47.1725ZM20.375 23.86L22.095 28.7025H18.655L20.375 23.865V23.86ZM49.9075 24.25H56.7825L59.595 28L56.47 32.14H49.9075V29.4075H56.1575V26.595H49.9075V24.25Z" fill="#100F0A"/>
</svg>
